<svg width="23" height="22" viewBox="0 0 23 22" fill="none" xmlns="http://www.w3.org/2000/svg">
<path d="M11.5 22C17.8513 22 23 17.0751 23 11C23 4.92487 17.8513 0 11.5 0C5.14873 0 0 4.92487 0 11C0 17.0751 5.14873 22 11.5 22Z" fill="#334C8C"/>
<path d="M14.4142 9.95934L14.2236 11.4907C14.2153 11.5618 14.1799 11.6275 14.124 11.6751C14.0681 11.7226 13.9958 11.7487 13.9209 11.7483H12.2565V16.293C12.2569 16.3473 12.2348 16.3995 12.1951 16.4383C12.1555 16.477 12.1013 16.4992 12.0446 16.5H10.3484C10.3202 16.4996 10.2923 16.4939 10.2664 16.4833C10.2405 16.4726 10.217 16.4571 10.1973 16.4378C10.1776 16.4184 10.1622 16.3955 10.1517 16.3705C10.1413 16.3454 10.1361 16.3186 10.1365 16.2916L10.1456 11.7483H8.88515C8.80489 11.7483 8.72791 11.7178 8.67116 11.6635C8.6144 11.6092 8.58252 11.5356 8.58252 11.4588V9.9275C8.58252 9.85073 8.6144 9.7771 8.67116 9.72281C8.72791 9.66852 8.80489 9.63803 8.88515 9.63803H10.138V8.15303C10.138 6.435 11.2063 5.5 12.7709 5.5H14.0526C14.1328 5.5 14.2098 5.5305 14.2666 5.58478C14.3233 5.63907 14.3552 5.7127 14.3552 5.78947V7.07908C14.3552 7.15585 14.3233 7.22948 14.2666 7.28377C14.2098 7.33805 14.1328 7.36855 14.0526 7.36855H13.2673C12.4169 7.38158 12.2565 7.77092 12.2565 8.35276V9.63368H14.1192C14.1617 9.63438 14.2035 9.64363 14.242 9.66084C14.2805 9.67804 14.3148 9.70281 14.3427 9.73353C14.3705 9.76425 14.3913 9.80024 14.4036 9.83915C14.4159 9.87805 14.4195 9.91901 14.4142 9.95934Z" fill="white"/>
</svg>
