<svg width="16" height="17" viewBox="0 0 16 17" fill="none" xmlns="http://www.w3.org/2000/svg">
<g clip-path="url(#clip0_212_344)">
<path d="M15.0349 6.88436L8.66165 6.88403C8.38022 6.88403 8.1521 7.12733 8.1521 7.42752V9.59924C8.1521 9.89937 8.38022 10.1427 8.66162 10.1427H12.2507C11.8577 11.2306 11.1241 12.1417 10.1883 12.7207L11.7187 15.5465C14.1736 14.032 15.6249 11.3749 15.6249 8.40031C15.6249 7.97677 15.5956 7.67401 15.5371 7.33309C15.4926 7.07407 15.2818 6.88436 15.0349 6.88436Z" fill="#167EE6"/>
<path d="M7.81241 13.4058C6.056 13.4058 4.52268 12.3822 3.69916 10.8674L1.05005 12.4961C2.39816 14.9884 4.92361 16.6667 7.81241 16.6667C9.22955 16.6667 10.5667 16.2597 11.7187 15.5504V15.5465L10.1883 12.7207C9.48828 13.1538 8.67822 13.4058 7.81241 13.4058Z" fill="#12B347"/>
<path d="M11.7188 15.5504V15.5466L10.1884 12.7207C9.48837 13.1537 8.67838 13.4058 7.8125 13.4058V16.6667C9.22964 16.6667 10.5669 16.2597 11.7188 15.5504Z" fill="#0F993E"/>
<path d="M3.05707 8.33332C3.05707 7.40985 3.29333 6.54589 3.69925 5.79924L1.05014 4.17053C0.381531 5.39537 0 6.81783 0 8.33332C0 9.84882 0.381531 11.2713 1.05014 12.4961L3.69925 10.8674C3.29333 10.1208 3.05707 9.25679 3.05707 8.33332Z" fill="#FFD500"/>
<path d="M7.81241 3.26087C8.95776 3.26087 10.0098 3.69499 10.8316 4.41709C11.0343 4.59521 11.3289 4.58236 11.5146 4.38428L12.9572 2.84554C13.1679 2.6208 13.1529 2.25293 12.9278 2.04466C11.551 0.770606 9.75964 0 7.81241 0C4.92361 0 2.39816 1.67829 1.05005 4.17054L3.69916 5.79925C4.52268 4.28451 6.056 3.26087 7.81241 3.26087Z" fill="#FF4B26"/>
<path d="M10.8317 4.41709C11.0344 4.59521 11.3291 4.58236 11.5147 4.38428L12.9573 2.84554C13.168 2.6208 13.153 2.25293 12.9279 2.04466C11.5511 0.770573 9.75974 0 7.8125 0V3.26087C8.95783 3.26087 10.0099 3.69499 10.8317 4.41709Z" fill="#D93F21"/>
</g>
<defs>
<clipPath id="clip0_212_344">
<rect width="15.625" height="16.6667" fill="white"/>
</clipPath>
</defs>
</svg>
