<svg width="24" height="24" viewBox="0 0 24 24" fill="none" xmlns="http://www.w3.org/2000/svg">
<path d="M15.5042 13.38C17.357 12.1128 18.5762 9.96717 18.5762 7.52637C18.5786 3.57837 15.3602 0.359969 11.4098 0.359969C7.45943 0.359969 4.28903 3.57837 4.28903 7.48077C4.28903 9.91917 5.50823 12.0648 7.36103 13.3344C3.16583 14.9904 0.240234 19.0392 0.240234 23.7696H2.23943C2.23943 19.0872 5.79863 15.1848 10.3346 14.6496C10.3826 14.6496 11.6018 14.5512 12.6266 14.6496H12.725C17.1626 15.2832 20.5778 19.0872 20.5778 23.7216H22.625C22.577 19.0392 19.6514 14.9904 15.5042 13.38ZM11.4098 12.8448C8.43383 12.8448 6.04583 10.4544 6.04583 7.48077C6.04583 4.50477 8.43623 2.11677 11.4098 2.11677C14.3858 2.11677 16.7738 4.50717 16.7738 7.48077C16.7738 10.4544 14.3834 12.8448 11.4098 12.8448ZM16.6394 13.38C18.4922 12.1128 19.7114 9.96717 19.7114 7.52637C19.7114 3.57837 16.493 0.359969 12.5426 0.359969C8.59223 0.359969 5.42183 3.57837 5.42183 7.47837C5.42183 9.91677 6.64103 12.0624 8.49383 13.332C4.30103 14.9904 1.37543 19.0392 1.37543 23.7696H3.37463C3.37463 19.0872 6.93383 15.1848 11.4698 14.6496C11.5178 14.6496 12.737 14.5512 13.7618 14.6496H13.8602C18.2978 15.2832 21.713 19.0872 21.713 23.7216H23.7602C23.7122 19.0392 20.7842 14.9904 16.6394 13.38ZM12.5426 12.8448C9.56663 12.8448 7.17863 10.4544 7.17863 7.48077C7.17863 4.50477 9.56903 2.11677 12.5426 2.11677C15.5186 2.11677 17.9066 4.50717 17.9066 7.48077C17.9066 10.4544 15.5186 12.8448 12.5426 12.8448ZM8.52503 0.967169C8.52503 0.967169 9.99143 0.201569 11.9762 0.379169C11.9762 0.379169 13.697 0.177569 15.4322 0.967169C15.4322 0.967169 12.0698 -0.691231 8.52503 0.967169ZM7.93223 10.2336C7.93223 10.2336 9.19463 12.552 11.9762 12.816C11.9762 12.816 14.4482 12.7464 16.0202 10.2336C16.0202 10.2336 12.461 15.348 7.93223 10.2336ZM16.0202 4.72317C16.0202 4.72317 14.7578 2.40477 11.9762 2.14077C11.9762 2.14077 9.50423 2.21037 7.93223 4.72317C7.93223 4.72317 11.489 -0.391231 16.0202 4.72317Z" fill="#D9D8D8"/>
</svg>
