<svg width="28" height="30" viewBox="0 0 28 30" fill="none" xmlns="http://www.w3.org/2000/svg">
<path d="M6.22222 0V3.15789H3.11111V9.47368C3.11111 12.9632 5.89556 15.7895 9.33333 15.7895C12.7711 15.7895 15.5556 12.9632 15.5556 9.47368V3.15789H12.4444V0H17.1111C17.9698 0 18.6667 0.707368 18.6667 1.57895V9.47368C18.6667 14.1679 15.3036 18.0632 10.8889 18.8163V21.3158C10.8889 24.3679 13.3264 26.8421 16.3333 26.8421C18.662 26.8421 20.65 25.3579 21.4278 23.2689C19.7991 22.5316 18.6667 20.8737 18.6667 18.9474C18.6667 16.3311 20.7558 14.2105 23.3333 14.2105C25.9109 14.2105 28 16.3311 28 18.9474C28 21.1121 26.5689 22.9374 24.6151 23.5026C23.66 27.24 20.314 30 16.3333 30C11.6076 30 7.77778 26.1126 7.77778 21.3158V18.8163C3.36311 18.0647 0 14.1679 0 9.47368V1.57895C0 0.707368 0.696889 0 1.55556 0H6.22222ZM23.3333 17.3684C22.4747 17.3684 21.7778 18.0758 21.7778 18.9474C21.7778 19.8189 22.4747 20.5263 23.3333 20.5263C24.192 20.5263 24.8889 19.8189 24.8889 18.9474C24.8889 18.0758 24.192 17.3684 23.3333 17.3684Z" fill="#D9D8D8"/>
</svg>
