<svg width="24" height="24" viewBox="0 0 24 24" fill="none" xmlns="http://www.w3.org/2000/svg">
<path d="M13.0706 21.6216H10.9322C9.28103 21.6216 7.72343 21.2376 6.32663 20.568L1.31063 23.76L2.00423 16.8072C0.890634 15.12 0.240234 13.1016 0.240234 10.932C0.240234 5.02559 5.02583 0.23999 10.9322 0.23999H13.0706C18.9746 0.23999 23.7602 5.02559 23.7602 10.932C23.7602 16.836 18.9746 21.6216 13.0706 21.6216ZM13.0706 2.37839H10.9322C6.20903 2.37839 2.37863 6.20879 2.37863 10.932C2.37863 15.6552 6.20903 19.4856 10.9322 19.4856H13.0706C17.7938 19.4856 21.6242 15.6552 21.6242 10.932C21.6218 6.20639 17.7938 2.37839 13.0706 2.37839ZM16.277 12C15.6866 12 15.2066 11.52 15.2066 10.9296C15.2066 10.3392 15.6842 9.85919 16.277 9.85919C16.8698 9.85919 17.3474 10.3392 17.3474 10.9296C17.3474 11.52 16.8698 12 16.277 12ZM12.0002 12C11.4098 12 10.9298 11.52 10.9298 10.9296C10.9298 10.3392 11.4098 9.85919 12.0002 9.85919C12.5906 9.85919 13.0706 10.3392 13.0706 10.9296C13.0706 11.52 12.593 12 12.0002 12ZM7.72343 12C7.13303 12 6.65303 11.52 6.65303 10.9296C6.65303 10.3392 7.13303 9.85919 7.72343 9.85919C8.31383 9.85919 8.79383 10.3392 8.79383 10.9296C8.79383 11.52 8.31383 12 7.72343 12Z" fill="#D9D8D8"/>
</svg>
