<svg width="37" height="36" viewBox="0 0 37 36" fill="none" xmlns="http://www.w3.org/2000/svg">
<path d="M23.4296 4.44408V17.4639C23.429 18.5815 23.0632 19.67 22.3853 20.5717C21.7073 21.4735 20.7523 22.1418 19.6585 22.4799C18.5646 22.818 17.3887 22.8084 16.3008 22.4525C15.213 22.0965 14.2696 21.4128 13.6073 20.5001C12.9449 19.5873 12.598 18.4931 12.6166 17.3756C12.6353 16.2581 13.0185 15.1754 13.711 14.2842C14.4034 13.3929 15.3691 12.7393 16.4682 12.418C17.5674 12.0966 18.743 12.1242 19.825 12.4968V0C28.9319 0.879338 36.0455 8.36337 36.0455 17.4639C36.0455 27.1577 27.9767 35.0156 18.0227 35.0156C8.06878 35.0156 0 27.1577 0 17.4639C0 8.36337 7.11358 0.879338 16.2205 0V3.53139C12.5848 3.98191 9.26163 5.76373 6.92648 8.51469C4.59134 11.2657 3.41942 14.7793 3.64892 18.3415C3.87843 21.9037 5.49213 25.2472 8.16204 27.6923C10.832 30.1375 14.3577 31.5008 18.0227 31.5052C21.3702 31.507 24.614 30.3745 27.1977 28.3019C29.7815 26.2292 31.5442 23.3457 32.1836 20.1457C32.8229 16.9458 32.299 13.6289 30.7018 10.764C29.1046 7.89914 26.5335 5.66474 23.4296 4.44408Z" fill="#D9D8D8"/>
</svg>
