<svg width="30" height="26" viewBox="0 0 30 26" fill="none" xmlns="http://www.w3.org/2000/svg">
<path d="M21.4616 3.72017C19.2488 3.72017 17.5078 5.57054 17.5078 7.76192C17.5078 9.95331 19.2488 11.8037 21.4616 11.8037C23.6744 11.8037 25.4154 9.95331 25.4154 7.76192C25.4154 5.57054 23.6744 3.72017 21.4616 3.72017Z" stroke="#D9D8D8" stroke-width="2.36923"/>
<path d="M12.2314 1.81538C9.50913 1.81538 7.35445 4.09252 7.35445 6.80952C7.35445 9.52651 9.50913 11.8037 12.2314 11.8037C14.9536 11.8037 17.1083 9.52651 17.1083 6.80952C17.1083 4.09252 14.9536 1.81538 12.2314 1.81538Z" stroke="#D9D8D8" stroke-width="2.36923"/>
<path d="M25.9012 12.9506L25.9012 12.9506C24.5124 11.9426 22.6042 11.3392 20.5387 11.3392C18.4731 11.3392 16.565 11.9426 15.1762 12.9506L15.1762 12.9506C13.7952 13.9529 12.8925 15.3698 12.8925 16.9573V21.0952V22.2798H14.0771H25.9233C27.1723 22.2798 28.1848 21.2673 28.1848 20.0183V16.9573C28.1848 15.3698 27.2822 13.9529 25.9012 12.9506Z" stroke="#D9D8D8" stroke-width="2.36923"/>
<path d="M19.4797 13.984L19.4797 13.984C17.608 12.9274 15.0312 12.2916 12.2307 12.2916C9.43023 12.2916 6.85344 12.9274 4.98175 13.984L4.98174 13.984C3.15354 15.0161 1.81538 16.5489 1.81538 18.4023V21.9231C1.81538 23.1721 2.82791 24.1846 4.07692 24.1846H20.3846C21.6336 24.1846 22.6461 23.1721 22.6461 21.9231V18.4023C22.6461 16.5489 21.3079 15.0161 19.4797 13.984ZM18.9108 14.9918L18.8979 15.0147L18.9108 14.9918Z" fill="white" stroke="#D9D8D8" stroke-width="2.36923"/>
</svg>
