<svg width="34" height="28" viewBox="0 0 34 28" fill="none" xmlns="http://www.w3.org/2000/svg">
<path d="M24.5384 3.96919C22.1062 3.96919 20.123 5.95241 20.123 8.38458C20.123 10.8167 22.1062 12.8 24.5384 12.8C26.9706 12.8 28.9538 10.8167 28.9538 8.38458C28.9538 5.95241 26.9706 3.96919 24.5384 3.96919Z" stroke="#D9D8D8" stroke-width="2.36923"/>
<path d="M13.7691 1.81538C10.7426 1.81538 8.27681 4.28118 8.27681 7.30769C8.27681 10.3342 10.7426 12.8 13.7691 12.8C16.7956 12.8 19.2614 10.3342 19.2614 7.30769C19.2614 4.28118 16.7956 1.81538 13.7691 1.81538Z" stroke="#D9D8D8" stroke-width="2.36923"/>
<path d="M29.5876 14.367L29.5876 14.367C28.006 13.2545 25.8268 12.5847 23.4616 12.5847C21.0963 12.5847 18.9171 13.2545 17.3355 14.367L17.3355 14.367C15.7639 15.4726 14.7385 17.0332 14.7385 18.7825V23.4616V24.6462H15.9231H29.9231C31.1721 24.6462 32.1846 23.6337 32.1846 22.3847V18.7825C32.1846 17.0332 31.1592 15.4726 29.5876 14.367Z" stroke="#D9D8D8" stroke-width="2.36923"/>
<path d="M22.1156 15.5477L22.1156 15.5477C19.9699 14.3737 17.0036 13.6616 13.7692 13.6616C10.5349 13.6616 7.56855 14.3737 5.42285 15.5477L5.42284 15.5477C3.32842 16.6937 1.81538 18.3828 1.81538 20.4165V24.5385C1.81538 25.7875 2.82791 26.8 4.07692 26.8H23.4615C24.7105 26.8 25.7231 25.7875 25.7231 24.5385V20.4165C25.7231 18.3828 24.21 16.6937 22.1156 15.5477Z" fill="white" stroke="#D9D8D8" stroke-width="2.36923"/>
</svg>
