<svg width="200" height="178" viewBox="0 0 200 178" fill="none" xmlns="http://www.w3.org/2000/svg">
<g clip-path="url(#clip0_9_105)">
<path d="M80.0328 17.1695C77.5961 22.0931 82.1844 30.3891 77.5601 32.1118L77.9411 31.6649C80.7324 27.6378 74.8982 19.1142 77.6895 15.0871C78.1232 14.4963 78.4955 13.8472 78.7986 13.1534" fill="#2F2E41"/>
<path d="M102.853 89.4024C102.933 88.9097 102.92 88.4025 102.814 87.9164C102.709 87.4303 102.514 86.9772 102.243 86.589C101.972 86.2009 101.632 85.887 101.247 85.6697C100.862 85.4523 100.44 85.3367 100.013 85.331L93.9897 64.8059L90.6558 69.7903L97.024 88.9686C97.0635 89.8118 97.3652 90.6086 97.872 91.2083C98.3789 91.8079 99.0557 92.1687 99.7741 92.2221C100.493 92.2756 101.203 92.0181 101.77 91.4984C102.338 90.9787 102.723 90.233 102.853 89.4024L102.853 89.4024Z" fill="#A36666"/>
<path d="M76.3767 39.8469C76.3767 39.8469 76.1893 32.4171 81.8538 36.6733C87.5184 40.9296 99.8515 80.8002 99.8515 80.8002L93.7141 84.6949L79.781 48.2088L76.3767 39.8469Z" fill="#EF873D"/>
<path d="M93.0884 167.189L90.2598 168.607L84.2515 156.485L88.4264 154.392L93.0884 167.189Z" fill="#A36666"/>
<path d="M96.6753 172.189L94.6469 173.205L93.4665 171.141L93.3575 173.852L87.9775 176.548C87.7196 176.677 87.4333 176.707 87.1603 176.631C86.8872 176.556 86.6418 176.381 86.4599 176.13C86.2779 175.88 86.169 175.568 86.1489 175.24C86.1288 174.912 86.1987 174.585 86.3483 174.307L89.3766 168.673L88.5493 166.402L93.1835 164.454L96.6753 172.189Z" fill="#2F2E41"/>
<path d="M48.7478 171.301L45.6756 171.124L44.7925 157.141L49.3272 157.401L48.7478 171.301Z" fill="#A36666"/>
<path d="M50.109 177.637L47.9058 177.511L47.6142 175.049L46.5053 177.431L40.6617 177.096C40.3816 177.08 40.1132 176.959 39.8957 176.751C39.6781 176.544 39.5229 176.26 39.4526 175.942C39.3823 175.623 39.4007 175.287 39.505 174.981C39.6092 174.676 39.794 174.418 40.0323 174.244L44.8563 170.732L44.9591 168.265L49.8531 168.89L50.109 177.637Z" fill="#2F2E41"/>
<path d="M139.271 169.073C139.474 169.081 139.675 169.016 139.846 168.887C140.017 168.757 140.15 168.569 140.227 168.348C140.304 168.126 140.321 167.883 140.275 167.65C140.23 167.417 140.125 167.206 139.974 167.046C139.948 166.929 139.93 166.846 139.904 166.729C140.094 166.147 140.428 165.644 140.862 165.286C141.297 164.928 141.814 164.73 142.345 164.719C142.877 164.707 143.399 164.881 143.845 165.22C144.291 165.559 144.641 166.046 144.85 166.619C146.053 169.837 147.604 173.166 146.875 176.733C151.778 164.238 149.951 148.784 142.469 138.228C140.414 136.93 138.738 134.602 138.285 131.882C139.3 132.273 140.553 131.294 139.782 130.052C139.449 129.578 139.112 129.108 138.778 128.634C142.582 123.791 147.223 131.284 143.045 137.811C144.445 139.83 145.662 142.016 146.675 144.332C146.425 141.863 146.679 139.36 147.415 137.029C148.162 134.856 149.581 133.017 150.829 131.131C152.346 128.834 155.514 129.85 155.745 132.742C154.332 133.304 154.167 135.707 155.791 136.017C155.41 141.405 152.452 146.385 148.341 148.792C149.907 153.794 150.546 159.13 150.215 164.445C150.894 158.231 156.561 156.661 160.511 154.15C160.762 153.957 161.056 153.854 161.356 153.854C161.656 153.853 161.95 153.955 162.201 154.147C162.453 154.339 162.652 154.613 162.773 154.935C162.894 155.257 162.933 155.614 162.884 155.961C162.338 156.228 161.817 156.559 161.327 156.947C161.097 157.132 160.922 157.396 160.825 157.702C160.728 158.008 160.714 158.342 160.785 158.658C160.857 158.974 161.009 159.256 161.223 159.466C161.436 159.676 161.7 159.803 161.977 159.83C160.023 165.662 154.882 169.62 149.568 169.657C149.078 172.266 148.359 174.807 147.422 177.241L139.536 177.329C139.506 177.227 139.48 177.121 139.454 177.018C140.184 177.064 140.917 177.005 141.635 176.841C139.682 174.181 138.177 172.829 139.271 169.073L139.271 169.073Z" fill="#89B031"/>
<path d="M56.5088 80.4047C56.5088 80.4047 50.261 100.375 50.1601 102.61C50.0591 104.845 48.2774 133.106 46.783 134.748C45.2887 136.39 40.7201 161.848 44.2749 163.839C47.8297 165.831 59.0449 162.532 59.0449 162.532L62.9464 132.46L64.2718 109.421C64.2718 109.421 68.3068 163.674 75.6251 163.514C82.9434 163.354 91.8611 160.086 91.8611 160.086L81.618 127.23C81.618 127.23 81.7628 88.3334 79.3885 80.4882C77.0143 72.6429 56.5088 80.4047 56.5088 80.4047Z" fill="#2F2E41"/>
<path d="M75.048 28.9523L66.6808 29.8512L65.3329 34.7044C65.3329 34.7044 58.3307 39.2149 59.8812 41.264C61.4317 43.3132 59.5345 57.1224 59.5345 57.1224L59.963 68.3317C59.963 68.3317 59.5027 76.0977 58.1252 77.887C56.7477 79.6763 53.1439 84.0639 55.6903 81.9648C64.6187 74.6045 80.2248 80.815 80.2248 80.815L77.9954 64.7985C77.9954 64.7985 83.0592 38.5756 81.0608 36.361C79.0624 34.1464 77.1769 33.8665 77.1769 33.8665L75.048 28.9523Z" fill="#EF873D"/>
<path d="M31.0822 79.7566C31.5026 79.6648 31.9007 79.466 32.2485 79.1742C32.5962 78.8824 32.8852 78.5047 33.0951 78.0678C33.305 77.6308 33.4306 77.1452 33.4632 76.6451C33.4957 76.145 33.4344 75.6426 33.2835 75.1734L47.3957 61.1304L42.2249 59.2996L29.3078 73.2301C28.6525 73.5796 28.1292 74.199 27.8372 74.9708C27.5452 75.7426 27.5048 76.6133 27.7235 77.4178C27.9422 78.2222 28.4049 78.9047 29.024 79.3357C29.643 79.7668 30.3753 79.9166 31.0822 79.7566Z" fill="#A36666"/>
<path d="M66.9219 43.0241C66.9219 43.0241 69.7024 36.3447 63.046 37.4856C56.3895 38.6266 31.147 68.9965 31.147 68.9965L35.3713 75.5112L60.8828 48.9983L66.9219 43.0241Z" fill="#EF873D"/>
<path d="M61.02 16.4231C61.0195 18.0187 61.353 19.5901 61.9911 20.9993C62.6293 22.4086 63.5526 23.6125 64.68 24.5054C65.8075 25.3984 67.1046 25.9531 68.4574 26.1208C69.8103 26.2885 71.1776 26.0642 72.4393 25.4674C73.701 24.8706 74.8185 23.9197 75.6937 22.6981C76.569 21.4766 77.1751 20.0216 77.4591 18.4611C77.743 16.9006 77.696 15.2822 77.3221 13.748C76.9483 12.2137 76.2591 10.8106 75.315 9.66173L75.2751 9.61499C75.2086 9.53308 75.1421 9.45121 75.0723 9.37319C75.0718 9.3732 75.0714 9.37311 75.071 9.37292C75.0706 9.37272 75.0702 9.37244 75.0699 9.37207C75.0696 9.37171 75.0694 9.37127 75.0692 9.3708C75.069 9.37032 75.069 9.36981 75.069 9.36929C74.9825 9.27572 74.8961 9.18213 74.8063 9.09246C73.6054 7.85751 72.1265 7.05471 70.5466 6.78016C68.9667 6.50562 67.3528 6.77097 65.8982 7.54444C64.4435 8.31791 63.2098 9.56673 62.3446 11.1414C61.4795 12.716 61.0196 14.5498 61.02 16.4231V16.4231Z" fill="#2F2E41"/>
<path d="M71.3788 26.8527C75.2278 26.8527 78.348 23.193 78.348 18.6785C78.348 14.164 75.2278 10.5043 71.3788 10.5043C67.5299 10.5043 64.4097 14.164 64.4097 18.6785C64.4097 23.193 67.5299 26.8527 71.3788 26.8527Z" fill="#A36666"/>
<path d="M63.9493 20.8568C63.2681 17.2562 64.2527 13.2222 66.3994 10.8184C67.4791 9.63329 68.822 8.82952 70.2737 8.49948C71.7254 8.16943 73.227 8.32651 74.606 8.95265C74.7813 9.03564 74.9566 9.12645 75.1286 9.22125L75.2086 9.26547V9.27919C75.2241 9.2918 75.2396 9.30505 75.2551 9.31846C75.2876 9.35418 75.3272 9.3798 75.3702 9.39298C75.9754 9.37441 76.577 9.50603 77.1357 9.77921C77.6944 10.0524 78.1976 10.461 78.6123 10.9782C79.6925 12.3528 80.2011 14.5744 80.0452 17.2335L80.0403 17.3167L79.9799 17.3609C79.1621 17.9687 78.3135 18.5175 77.4388 19.0041C74.3794 20.6915 71.5863 21.0041 68.9018 19.9587L68.8526 19.9396L67.7259 17.7248C67.4945 19.2523 67.6181 24.3192 66.2908 24.5937L63.9781 21.0096L63.9493 20.8568Z" fill="#2F2E41"/>
<path d="M49.2785 27.9741C51.6501 26.5383 48.6 21.3274 49.2129 18.2807C49.8258 15.2341 54.2394 14.2542 54.5206 11.1412C54.8018 8.0283 55.4632 4.81765 57.2145 2.45554C58.3336 0.946152 59.9826 -0.168131 61.6804 0.0209289C62.2548 0.0848948 62.8107 0.293321 63.3103 0.63201C63.8098 0.9707 64.2413 1.4317 64.5753 1.98361C64.9093 2.53551 65.1379 3.16536 65.2456 3.83025C65.3534 4.49514 65.3377 5.17946 65.1996 5.83659C65.683 5.03322 66.9339 5.20734 67.2436 6.12113C67.5189 6.93349 66.9107 7.91749 66.195 7.98937C65.2585 9.34587 64.1861 10.7855 62.719 11.0591C62.4852 11.1221 62.2423 11.1219 62.0086 11.0587C61.7749 10.9954 61.5566 10.8707 61.37 10.6939C61.0248 10.3051 60.998 9.52783 61.4074 9.2373C59.5636 10.0963 58.4826 12.4346 58.2091 14.7393C57.9355 17.0441 58.314 19.376 58.5634 21.6845C58.8128 23.9931 58.9203 26.4215 58.1486 28.5653C57.2368 31.0981 55.1375 32.9134 52.8466 33.4956C50.5557 34.0778 48.1159 33.5088 46.0422 32.2269C43.9685 30.9449 42.2393 28.9878 40.8267 26.7937C43.26 28.8204 46.6266 29.5796 49.2785 27.9741Z" fill="#2F2E41"/>
<path d="M68.0494 18.1501C65.6127 23.0737 70.201 31.3696 65.5767 33.0924L65.9577 32.6455C68.749 28.6184 62.9148 20.0948 65.7061 16.0676C66.1398 15.4769 66.5121 14.8278 66.8152 14.134" fill="#2F2E41"/>
<path d="M64.2744 20.7824C64.2744 20.7824 66.3389 11.7439 75.1885 9.65778C75.1984 9.65393 75.2317 9.63832 75.2749 9.61495C75.3015 9.59543 75.3347 9.57592 75.368 9.55644C75.2682 9.49013 75.1718 9.43168 75.0721 9.37313C75.0717 9.37314 75.0712 9.37305 75.0708 9.37285C75.0704 9.37266 75.07 9.37237 75.0697 9.37201C75.0694 9.37165 75.0692 9.37121 75.069 9.37073C75.0689 9.37026 75.0688 9.36974 75.0688 9.36923C74.9824 9.27565 74.8959 9.18207 74.8061 9.09239L74.5535 9.10411C74.5535 9.10411 65.674 7.45475 64.2744 20.7824Z" fill="#EF873D"/>
<path d="M1.47603e-06 177.611C-0.000128778 177.662 0.008363 177.713 0.0249838 177.76C0.0416046 177.807 0.0660299 177.85 0.0968522 177.886C0.127674 177.923 0.164284 177.951 0.20458 177.971C0.244876 177.99 0.28806 178 0.331648 178H199.668C199.756 178 199.841 177.959 199.903 177.886C199.965 177.813 200 177.714 200 177.611C200 177.508 199.965 177.409 199.903 177.336C199.841 177.263 199.756 177.222 199.668 177.222H0.331631C0.288045 177.222 0.244865 177.232 0.204572 177.251C0.164279 177.271 0.127668 177.299 0.0968479 177.336C0.0660277 177.372 0.0416042 177.415 0.0249838 177.462C0.00836339 177.509 -0.000126918 177.56 1.47603e-06 177.611Z" fill="#CCCCCC"/>
</g>
<defs>
<clipPath id="clip0_9_105">
<rect width="200" height="178" fill="white"/>
</clipPath>
</defs>
</svg>
