<svg width="190" height="201" viewBox="0 0 190 201" fill="none" xmlns="http://www.w3.org/2000/svg">
<g clip-path="url(#clip0_208_182)">
<path d="M121.185 45.0569H111.075V138.627C111.075 140.095 110.809 141.549 110.292 142.905C109.774 144.262 109.016 145.494 108.059 146.532C107.103 147.57 105.968 148.394 104.719 148.956C103.469 149.517 102.13 149.807 100.778 149.807H23.4871V149.914C23.4871 151.382 23.7534 152.835 24.2709 154.192C24.7884 155.548 25.5469 156.78 26.5031 157.819C27.4593 158.857 28.5945 159.68 29.8438 160.242C31.0932 160.804 32.4322 161.093 33.7845 161.093H121.185C122.537 161.093 123.876 160.804 125.125 160.242C126.375 159.68 127.51 158.857 128.466 157.819C129.422 156.78 130.181 155.548 130.698 154.192C131.216 152.835 131.482 151.382 131.482 149.914V56.2362C131.482 53.2713 130.397 50.4278 128.466 48.3312C126.535 46.2347 123.916 45.0569 121.185 45.0569Z" fill="#D9D9DA"/>
<path d="M169.108 193.755C169.287 193.764 169.465 193.713 169.616 193.608C169.767 193.504 169.886 193.352 169.955 193.173C170.024 192.994 170.04 192.795 170.002 192.605C169.964 192.415 169.873 192.242 169.742 192.11L169.682 191.852C169.69 191.831 169.698 191.811 169.706 191.79C169.886 191.328 170.188 190.933 170.574 190.657C170.96 190.38 171.413 190.234 171.875 190.236C172.338 190.238 172.789 190.388 173.173 190.667C173.557 190.947 173.857 191.344 174.034 191.807C174.742 193.658 175.643 195.513 175.865 197.47C175.963 198.335 175.922 199.212 175.743 200.062C177.406 196.124 178.269 191.844 178.275 187.513C178.275 186.426 178.22 185.34 178.108 184.259C178.016 183.374 177.889 182.494 177.725 181.622C176.834 176.885 174.921 172.445 172.142 168.667C170.797 167.871 169.71 166.646 169.026 165.158C168.778 164.623 168.603 164.052 168.506 163.462C168.658 163.484 169.078 160.976 168.964 160.822C169.175 160.473 169.554 160.3 169.785 159.96C170.933 158.27 172.515 158.565 173.341 160.862C175.105 161.829 175.122 163.432 174.04 164.974C173.351 165.955 173.256 167.282 172.652 168.333C172.714 168.419 172.779 168.503 172.841 168.589C173.978 170.176 174.968 171.879 175.798 173.676C175.597 171.663 175.838 169.628 176.502 167.736C177.175 165.973 178.436 164.488 179.547 162.964C179.841 162.555 180.24 162.249 180.694 162.086C181.148 161.923 181.636 161.909 182.097 162.047C182.558 162.185 182.971 162.469 183.284 162.861C183.596 163.254 183.795 163.738 183.854 164.253C183.856 164.276 183.858 164.298 183.86 164.321C183.695 164.422 183.534 164.529 183.376 164.643C183.177 164.787 183.023 164.992 182.934 165.233C182.845 165.473 182.825 165.738 182.877 165.991C182.929 166.244 183.05 166.474 183.224 166.651C183.398 166.829 183.618 166.945 183.854 166.984L183.878 166.988C183.819 167.634 183.715 168.274 183.567 168.902C184.992 174.887 181.915 177.066 177.521 177.164C177.424 177.218 177.33 177.272 177.233 177.323C178.067 179.89 178.59 182.564 178.79 185.277C178.902 186.878 178.896 188.486 178.77 190.086L178.777 190.029C179.096 188.25 179.97 186.645 181.252 185.485C183.156 183.787 185.846 183.161 187.901 181.796C188.119 181.644 188.373 181.563 188.632 181.562C188.892 181.562 189.146 181.642 189.365 181.793C189.584 181.944 189.759 182.159 189.868 182.415C189.978 182.67 190.018 182.954 189.984 183.233L189.976 183.293C189.669 183.428 189.371 183.584 189.083 183.76C188.918 183.861 188.756 183.968 188.598 184.082C188.4 184.226 188.246 184.431 188.157 184.672C188.068 184.913 188.048 185.177 188.1 185.43C188.151 185.683 188.272 185.913 188.446 186.091C188.621 186.268 188.84 186.384 189.076 186.423L189.1 186.427C189.118 186.43 189.133 186.433 189.15 186.435C188.627 187.792 187.892 189.04 186.979 190.126C186.088 195.35 182.26 195.846 178.165 194.324H178.163C177.714 196.444 177.063 198.507 176.221 200.48H169.282C169.257 200.396 169.235 200.31 169.213 200.226C169.855 200.27 170.5 200.229 171.133 200.102C170.618 199.416 170.103 198.725 169.588 198.04C169.577 198.027 169.566 198.013 169.556 197.999C169.295 197.648 169.031 197.3 168.77 196.949L168.77 196.948C168.756 195.872 168.87 194.799 169.108 193.755L169.108 193.755Z" fill="#89B031"/>
<path d="M92.6874 32.3288C92.9407 32.7454 93.2744 33.0974 93.6653 33.3603C94.0563 33.6232 94.4951 33.7908 94.9516 33.8514C95.408 33.9121 95.8712 33.8644 96.309 33.7116C96.7468 33.5588 97.1488 33.3046 97.4872 32.9666L111.913 40.0321L114.694 36.1809L97.504 27.925C96.9375 27.3489 96.196 27.0184 95.4201 26.9962C94.6442 26.974 93.8877 27.2615 93.294 27.8043C92.7003 28.3471 92.3106 29.1075 92.1988 29.9414C92.087 30.7753 92.2609 31.6247 92.6874 32.3288H92.6874Z" fill="#A36666"/>
<path d="M154.595 36.7345L156.025 45.5362C156.092 45.9469 156.079 46.3681 155.987 46.7729C155.895 47.1777 155.726 47.5572 155.491 47.8869C155.256 48.2166 154.96 48.4893 154.622 48.6874C154.284 48.8856 153.911 49.0048 153.529 49.0375L129.218 51.113L100.642 37.2285L104.055 30.1946L128.861 38.7229L154.595 36.7345Z" fill="#EF873D"/>
<path d="M97.6978 30.4265H10.2974C4.61031 30.4265 0 35.4317 0 41.6058V135.283C0 141.457 4.61031 146.462 10.2974 146.462H97.6978C103.385 146.462 107.995 141.457 107.995 135.283V41.6058C107.995 35.4317 103.385 30.4265 97.6978 30.4265Z" fill="#F2F2F2"/>
<path d="M10.2974 32.7256C9.22324 32.7256 8.15958 32.9553 7.16716 33.4016C6.17475 33.8478 5.27303 34.5019 4.51347 35.3266C3.75391 36.1512 3.15139 37.1301 2.74031 38.2075C2.32924 39.2849 2.11768 40.4397 2.11768 41.6059V135.283C2.11768 137.638 2.97947 139.897 4.51347 141.563C6.04747 143.228 8.12802 144.164 10.2974 144.164H66.0784C71.3049 144.164 76.4802 143.046 81.3088 140.875C86.1375 138.703 90.5249 135.521 94.2205 131.508C97.9162 127.496 100.848 122.733 102.848 117.491C104.848 112.249 105.877 106.63 105.877 100.956V41.6059C105.877 40.4397 105.666 39.2849 105.255 38.2075C104.844 37.1301 104.241 36.1512 103.482 35.3266C102.722 34.5019 101.82 33.8478 100.828 33.4016C99.8355 32.9553 98.7718 32.7256 97.6976 32.7256H10.2974Z" fill="white"/>
<path d="M78.43 61.1551H29.374C28.9239 61.1551 28.4922 60.9609 28.1739 60.6154C27.8556 60.2698 27.6768 59.8011 27.6768 59.3125C27.6768 58.8238 27.8556 58.3551 28.1739 58.0095C28.4922 57.664 28.9239 57.4698 29.374 57.4698H78.43C78.8801 57.4698 79.3118 57.664 79.6301 58.0095C79.9484 58.3551 80.1272 58.8238 80.1272 59.3125C80.1272 59.8011 79.9484 60.2698 79.6301 60.6154C79.3118 60.9609 78.8801 61.1551 78.43 61.1551Z" fill="#D9D9DA"/>
<path d="M78.43 100.448H29.374C28.9239 100.448 28.4922 100.254 28.1739 99.9085C27.8556 99.5629 27.6768 99.0942 27.6768 98.6055C27.6768 98.1169 27.8556 97.6482 28.1739 97.3026C28.4922 96.9571 28.9239 96.7629 29.374 96.7629H78.43C78.8801 96.7629 79.3118 96.9571 79.6301 97.3026C79.9484 97.6482 80.1272 98.1169 80.1272 98.6055C80.1272 99.0942 79.9484 99.5629 79.6301 99.9085C79.3118 100.254 78.8801 100.448 78.43 100.448Z" fill="#D9D9DA"/>
<path d="M98.3507 80.8145H9.45359C9.00345 80.8145 8.57175 80.6204 8.25346 80.2748C7.93516 79.9292 7.75635 79.4606 7.75635 78.9719C7.75635 78.4832 7.93516 78.0145 8.25346 77.669C8.57175 77.3234 9.00345 77.1293 9.45359 77.1293H98.3507C98.8009 77.1293 99.2326 77.3234 99.5509 77.669C99.8692 78.0145 100.048 78.4832 100.048 78.9719C100.048 79.4606 99.8692 79.9292 99.5509 80.2748C99.2326 80.6204 98.8009 80.8145 98.3507 80.8145Z" fill="#D9D9DA"/>
<path d="M151.523 75.5292L142.667 96.0118L176.734 92.266L169.623 72.6031L151.523 75.5292Z" fill="#A36666"/>
<path d="M159.444 193.255L156.214 193.225L154.784 179.385L159.551 179.428L159.444 193.255Z" fill="#A36666"/>
<path d="M149.097 198.831C149.095 199.247 149.244 199.646 149.512 199.943C149.78 200.239 150.146 200.408 150.529 200.412L156.951 200.47L158.075 197.996L158.488 200.483L160.911 200.507L160.299 191.638L159.456 191.577L156.018 191.32L154.908 191.239L154.889 193.749L149.73 197.547C149.537 197.69 149.378 197.881 149.268 198.104C149.158 198.328 149.099 198.577 149.097 198.831Z" fill="#2F2E41"/>
<path d="M123.699 193.271L120.619 192.212L122.999 178.526L127.543 180.088L123.699 193.271Z" fill="#A36666"/>
<path d="M112.3 195.301C112.185 195.697 112.22 196.127 112.396 196.496C112.572 196.865 112.876 197.143 113.241 197.269L119.364 199.373L121.108 197.367L120.83 199.875L123.139 200.671L124.955 191.998L124.165 191.671L120.948 190.329L119.909 189.898L119.212 192.29L113.253 194.275C113.029 194.35 112.826 194.482 112.66 194.661C112.494 194.839 112.371 195.059 112.3 195.301Z" fill="#2F2E41"/>
<path d="M175.183 86.506L144.208 92.6678C144.208 92.6678 139.24 96.7024 140.569 98.1473C141.898 99.5923 142.104 99.3685 141.231 100.316C140.357 101.264 138.469 102.532 138.451 103.361C138.432 104.19 124.571 141.393 124.571 141.393C124.571 141.393 126.111 140.557 124.956 141.811C123.801 143.065 123.801 144.102 123.801 144.102L118.41 183.613L127.165 184.172L135.737 148.151L154.858 114.499C154.858 114.499 156.755 144.508 156.834 146.504C156.914 148.5 158.069 145.992 156.914 148.5C155.759 151.008 154.989 149.336 155.759 151.008C156.529 152.68 152.985 186.72 152.985 186.72H160.975L178.113 116.164C178.113 116.164 184.211 95.9923 175.183 86.506Z" fill="#573926"/>
<path d="M166.058 30.0694L153.65 28.6698L150.436 33.2007L146.691 35.3661C145.106 36.2825 143.798 37.675 142.923 39.3772C142.048 41.0794 141.643 43.0192 141.757 44.9647L146.133 72.6032C146.133 72.6032 142.436 81.6402 144.978 83.8895C147.52 86.1387 143.013 91.7093 148.443 88.9056C153.874 86.1019 177.321 89.3236 177.321 89.3236L172.315 73.8572L176.055 58.6593L176.466 45.9161C176.543 43.5349 175.892 41.1929 174.615 39.2552C173.338 37.3175 171.506 35.8931 169.405 35.2038L168.882 35.0323L166.058 30.0694Z" fill="#EF873D"/>
<path d="M183.14 19.7428C183.221 23.5396 181.914 27.216 180.036 30.4451C179.478 28.56 178.476 26.8443 177.43 25.2087C177.957 28.7469 177.395 32.3751 175.832 35.5318C175.777 35.5746 175.719 35.6143 175.661 35.6509C174.13 36.6503 172.19 37.0552 170.534 36.3333C173.955 32.3301 174.39 25.6975 171.522 21.2073C170.71 19.9332 169.66 18.8063 169.157 17.3564C168.363 15.0429 169.127 12.4957 169.608 10.0836C170.058 7.8387 170.137 5.16726 168.75 3.52204C168.898 3.29212 169.1 3.1091 169.335 2.99175C169.57 2.87439 169.829 2.82691 170.086 2.85417C170.941 2.98533 171.564 3.79246 171.961 4.62374C172.357 5.455 172.619 6.37633 173.171 7.09433C174.195 8.43824 175.937 8.75597 177.406 9.46424C180.963 11.1842 183.054 15.518 183.14 19.7428Z" fill="black"/>
<path d="M91.5039 200.503C91.5037 200.568 91.5154 200.633 91.5384 200.693C91.5614 200.754 91.5951 200.808 91.6377 200.855C91.6803 200.901 91.7309 200.938 91.7866 200.962C91.8422 200.987 91.9019 201 91.9621 201H189.488C189.609 201 189.726 200.948 189.812 200.854C189.898 200.761 189.946 200.634 189.946 200.503C189.946 200.371 189.898 200.244 189.812 200.151C189.726 200.058 189.609 200.005 189.488 200.005H91.9621C91.9019 200.005 91.8422 200.018 91.7866 200.043C91.7309 200.068 91.6803 200.104 91.6377 200.15C91.5951 200.197 91.5614 200.252 91.5384 200.312C91.5155 200.372 91.5037 200.437 91.5039 200.503Z" fill="#CCCCCC"/>
<path d="M153.2 17.5719C153.404 16.7996 152.003 21.5206 152.679 21.6058C155.758 21.9893 159.984 23.9856 162.129 24.9169C162.225 24.9048 162.322 24.8926 162.416 24.8774C162.646 24.85 162.87 24.8104 163.092 24.7648C168.085 23.7391 170.005 15.4117 170.005 15.3356C170.005 14.9613 169.178 4.67927 167.874 4.52711C167.531 4.48677 167.187 4.46645 166.843 4.46624H163.608C162.938 4.30962 162.26 4.20285 161.577 4.14666H161.571C155.058 3.60794 149.923 7.91764 150.403 13.1618C150.406 13.1678 150.411 13.1739 150.414 13.18C150.553 13.4052 150.675 13.6183 150.783 13.8222C150.888 14.014 150.976 14.1966 151.053 14.37C151.647 15.7092 150.121 17.3943 151.133 17.7089C152.478 18.1272 147.593 31.8768 152.92 31.8768C150.329 32.6765 152.64 19.7024 153.2 17.5719Z" fill="black"/>
<path d="M159.014 25.6395C163.245 25.6395 166.674 21.9164 166.674 17.3238C166.674 12.7311 163.245 9.00806 159.014 9.00806C154.784 9.00806 151.355 12.7311 151.355 17.3238C151.355 21.9164 154.784 25.6395 159.014 25.6395Z" fill="#A36666"/>
<path d="M150.403 13.6153C150.531 13.6883 150.656 13.7553 150.783 13.8222C150.917 13.8922 151.05 13.9622 151.184 14.0262C153.749 15.2892 155.836 15.4292 157.103 13.6153C157.137 12.6608 157.335 11.7215 157.686 10.8456C157.624 11.8245 157.861 12.7982 158.362 13.6153H160.912C163.54 15.5084 164.889 15.7062 163.065 21.9212C162.557 23.653 160.535 33.7303 161.331 35.2247C161.561 35.1973 164.008 24.1596 164.23 24.1139C169.223 23.0882 172.396 14.157 171.99 13.6518C171.992 12.2151 171.687 10.7973 171.101 9.50948C170.358 7.8779 169.201 6.51122 167.766 5.57108C166.911 5.12076 166.019 4.75703 165.102 4.48452C165.079 4.47842 165.059 4.47233 165.036 4.46626C164.755 4.38407 164.468 4.30799 164.181 4.24407C163.589 4.10821 162.989 4.00964 162.386 3.94885C162.344 3.9458 162.301 3.94275 162.261 3.94275C162.021 3.94336 161.784 4.01376 161.577 4.14668C161.574 4.14668 161.574 4.14971 161.571 4.14971C161.423 4.24373 161.294 4.36893 161.191 4.51798C161.009 4.76876 160.911 5.07871 160.912 5.39758H158.072C157.967 5.39758 157.862 5.40062 157.757 5.4067C155.861 5.47703 154.058 6.31284 152.7 7.75055C151.342 9.18826 150.527 11.1244 150.414 13.18C150.406 13.3261 150.403 13.4692 150.403 13.6153Z" fill="black"/>
<path d="M167.15 10.9569C169.937 10.9569 172.197 8.50412 172.197 5.47845C172.197 2.45279 169.937 0 167.15 0C164.363 0 162.104 2.45279 162.104 5.47845C162.104 8.50412 164.363 10.9569 167.15 10.9569Z" fill="black"/>
<path d="M183.947 105.531C184.193 105.109 184.352 104.634 184.413 104.14C184.473 103.645 184.434 103.141 184.298 102.665C184.162 102.188 183.932 101.749 183.624 101.378C183.317 101.007 182.938 100.713 182.516 100.516L182.54 83.3353L178.165 82.1594L178.273 102.566C178.021 103.363 178.047 104.232 178.346 105.01C178.646 105.787 179.197 106.419 179.897 106.784C180.596 107.15 181.394 107.224 182.141 106.993C182.887 106.762 183.53 106.242 183.947 105.531V105.531Z" fill="#A36666"/>
<path d="M162.278 42.4185L169.087 37.3947C169.405 37.1604 169.764 37.0007 170.142 36.926C170.52 36.8513 170.908 36.8631 171.282 36.9609C171.655 37.0586 172.005 37.24 172.31 37.4935C172.615 37.7469 172.868 38.0668 173.052 38.4326L184.759 61.6567L184.804 95.6454L177.495 95.1481L174.495 67.0872L162.278 42.4185Z" fill="#EF873D"/>
<path d="M109.984 119.5H37.2119C35.6291 119.5 34.1111 120.183 32.9919 121.398C31.8727 122.613 31.2439 124.261 31.2439 125.979C31.2439 127.698 31.8727 129.346 32.9919 130.561C34.1111 131.776 35.6291 132.458 37.2119 132.458H109.984C111.566 132.458 113.084 131.776 114.204 130.561C115.323 129.346 115.952 127.698 115.952 125.979C115.952 124.261 115.323 122.613 114.204 121.398C113.084 120.183 111.566 119.5 109.984 119.5Z" fill="white"/>
<path d="M109.984 132.876H37.212C35.527 132.876 33.9111 132.15 32.7197 130.856C31.5282 129.563 30.8589 127.808 30.8589 125.979C30.8589 124.15 31.5282 122.396 32.7197 121.102C33.9111 119.809 35.527 119.082 37.212 119.082H109.984C111.669 119.082 113.285 119.809 114.476 121.102C115.667 122.396 116.337 124.15 116.337 125.979C116.337 127.808 115.667 129.563 114.476 130.856C113.285 132.15 111.669 132.876 109.984 132.876ZM37.212 119.918C35.7313 119.918 34.3112 120.557 33.2642 121.693C32.2172 122.83 31.629 124.372 31.629 125.979C31.629 127.587 32.2172 129.128 33.2642 130.265C34.3112 131.402 35.7313 132.04 37.212 132.04H109.984C111.464 132.04 112.884 131.402 113.931 130.265C114.978 129.128 115.567 127.587 115.567 125.979C115.567 124.372 114.978 122.83 113.931 121.693C112.884 120.557 111.464 119.918 109.984 119.918H37.212Z" fill="#EF873D"/>
<path d="M114.275 147.776H82.1604C81.7102 147.776 81.2785 147.581 80.9602 147.236C80.6419 146.89 80.4631 146.422 80.4631 145.933C80.4631 145.444 80.6419 144.976 80.9602 144.63C81.2785 144.284 81.7102 144.09 82.1604 144.09H114.275C114.725 144.09 115.157 144.284 115.475 144.63C115.793 144.976 115.972 145.444 115.972 145.933C115.972 146.422 115.793 146.89 115.475 147.236C115.157 147.581 114.725 147.776 114.275 147.776Z" fill="#FE8235"/>
</g>
<defs>
<clipPath id="clip0_208_182">
<rect width="190" height="201" fill="white"/>
</clipPath>
</defs>
</svg>
