<svg width="237" height="284" viewBox="0 0 237 284" fill="none" xmlns="http://www.w3.org/2000/svg">
<path d="M91.42 232.286C86.7241 227.413 79.9191 224.618 72.7498 224.618L72.4733 224.619C67.7511 224.621 63.1131 223.36 59.0338 220.967L58.6093 220.718L58.9512 220.363C60.8021 218.436 62.3477 216.235 63.5337 213.835C62.6914 214.625 61.6867 215.219 60.5909 215.576C59.495 215.932 58.3347 216.041 57.1922 215.896C55.9859 215.752 54.8279 215.334 53.8049 214.675C52.7819 214.015 51.9206 213.132 51.2856 212.089C48.7799 207.999 45.793 202.194 45.793 197.772C45.7969 194.034 46.5746 190.338 48.0767 186.919C49.5788 183.501 51.7722 180.435 54.5172 177.916C56.255 176.34 57.643 174.412 58.5908 172.259C59.5387 170.107 60.025 167.777 60.018 165.422L60.0166 165.087C60.0162 161.988 60.3926 158.899 61.1376 155.891L61.2133 155.588L61.5238 155.599C63.5266 155.667 65.5304 155.498 67.4939 155.095C65.6521 154.868 63.8504 154.386 62.1398 153.662L61.8057 153.526L61.9191 153.182C69.7352 148.312 87.3784 150.834 97.6191 127.258C105.923 108.141 135.221 144.228 135.221 165.087C135.221 167.216 133.128 170.029 134.695 171.435C151.636 186.643 139.947 196.408 136.262 206.235C135.387 208.566 137.283 211.125 137.283 213.648C137.283 214.076 137.272 214.517 137.251 214.961L137.218 215.642L136.653 215.264C135.536 214.528 134.5 213.673 133.564 212.714C134.535 214.964 134.993 217.404 134.904 219.855C134.814 222.306 134.18 224.706 133.047 226.878C131.271 230.249 129.554 232.663 127.942 234.052C122.778 238.498 116.121 240.792 109.333 240.464C102.544 240.135 96.1364 237.21 91.42 232.286H91.42Z" fill="#89B031"/>
<path d="M119.781 283.01C119.897 283.01 120.008 282.968 120.096 282.892C120.183 282.816 120.24 282.711 120.256 282.596C120.276 282.451 122.273 267.961 120.48 248.703C118.824 230.917 113.505 205.299 97.5732 184.26C97.5351 184.21 97.4874 184.167 97.4329 184.135C97.3784 184.103 97.3182 184.082 97.2557 184.074C97.1933 184.065 97.1297 184.069 97.0688 184.086C97.0078 184.102 96.9506 184.13 96.9004 184.168C96.8503 184.207 96.8081 184.255 96.7764 184.31C96.7447 184.365 96.7241 184.425 96.7157 184.488C96.7073 184.551 96.7113 184.615 96.7275 184.676C96.7436 184.738 96.7717 184.795 96.8099 184.846C112.604 205.703 117.88 231.133 119.524 248.793C121.307 267.939 119.326 282.316 119.306 282.459C119.296 282.528 119.301 282.598 119.321 282.664C119.34 282.73 119.374 282.792 119.419 282.844C119.464 282.896 119.52 282.938 119.582 282.967C119.645 282.996 119.713 283.01 119.781 283.01V283.01Z" fill="#3F3D56"/>
<path d="M106.78 213.937C106.881 213.937 106.98 213.905 107.062 213.845C107.144 213.785 107.205 213.701 107.237 213.604C107.268 213.507 107.268 213.402 107.237 213.305C107.206 213.208 107.145 213.124 107.063 213.064C102.523 209.972 97.6188 207.46 92.4631 205.585C84.4083 202.618 72.1598 199.928 59.5502 203.966C59.49 203.985 59.4342 204.016 59.3859 204.057C59.3376 204.098 59.2978 204.148 59.2687 204.204C59.2397 204.261 59.222 204.322 59.2166 204.386C59.2112 204.449 59.2183 204.513 59.2374 204.573C59.2566 204.634 59.2874 204.69 59.3281 204.738C59.3688 204.787 59.4186 204.827 59.4747 204.856C59.5308 204.885 59.592 204.902 59.6549 204.908C59.7178 204.913 59.7811 204.906 59.8412 204.886C72.1925 200.931 84.2189 203.577 92.1332 206.492C97.206 208.334 102.031 210.804 106.498 213.845C106.58 213.905 106.679 213.937 106.78 213.937Z" fill="#3F3D56"/>
<path d="M128.741 158.9C128.748 158.799 128.723 158.697 128.67 158.611C128.616 158.524 128.537 158.457 128.443 158.418C128.349 158.38 128.246 158.372 128.147 158.396C128.049 158.421 127.961 158.476 127.895 158.554C124.503 162.887 121.66 167.628 119.431 172.668C115.91 180.538 112.361 192.637 115.456 205.584C115.471 205.645 115.497 205.703 115.534 205.755C115.571 205.806 115.618 205.85 115.672 205.883C115.726 205.916 115.785 205.938 115.848 205.948C115.91 205.958 115.974 205.955 116.035 205.941C116.096 205.926 116.154 205.899 116.205 205.862C116.256 205.824 116.299 205.777 116.332 205.723C116.365 205.669 116.387 205.609 116.397 205.546C116.406 205.483 116.404 205.419 116.389 205.358C113.358 192.677 116.846 180.797 120.306 173.064C122.498 168.106 125.293 163.441 128.629 159.176C128.694 159.099 128.733 159.002 128.741 158.9Z" fill="#3F3D56"/>
<path d="M221.291 282.499H183.094L182.93 282.2C182.441 281.308 181.97 280.364 181.529 279.393C177.595 270.918 175.932 261.224 174.464 252.671L173.359 246.224C173.225 245.444 173.326 244.64 173.649 243.918C173.971 243.195 174.501 242.585 175.169 242.167C175.838 241.749 176.616 241.541 177.403 241.57C178.189 241.599 178.95 241.864 179.586 242.33C185.391 246.581 191.198 250.827 197.008 255.069C199.207 256.679 201.72 258.543 204.125 260.558C204.358 259.423 204.6 258.285 204.843 257.163C205.011 256.389 205.404 255.682 205.973 255.134C206.542 254.585 207.26 254.22 208.037 254.085C208.813 253.95 209.612 254.051 210.331 254.375C211.05 254.7 211.656 255.233 212.072 255.906L216.541 263.131C219.801 268.407 222.678 273.606 222.091 279.214C222.094 279.282 222.089 279.35 222.076 279.417C221.959 280.338 221.742 281.244 221.428 282.117L221.291 282.499Z" fill="#89B031"/>
<path d="M203.495 131.396L196.123 103.941C195.807 102.778 195.05 101.788 194.015 101.182C192.98 100.577 191.749 100.405 190.589 100.705C189.989 100.859 189.427 101.136 188.936 101.516C188.446 101.897 188.038 102.374 187.736 102.919C187.435 103.463 187.247 104.064 187.184 104.684C187.121 105.304 187.184 105.931 187.37 106.526L195.896 134.808L200.357 152.214C199.708 152.713 199.226 153.402 198.979 154.185C198.731 154.969 198.73 155.811 198.974 156.596C199.219 157.381 199.698 158.071 200.346 158.573C200.993 159.074 201.779 159.363 202.596 159.4C203.412 159.436 204.22 159.219 204.91 158.778C205.6 158.336 206.138 157.692 206.451 156.932C206.764 156.172 206.837 155.333 206.66 154.53C206.483 153.727 206.064 152.999 205.461 152.443L203.495 131.396Z" fill="#F2A871"/>
<path d="M141.464 125.483L163.862 108.138C164.809 107.4 165.429 106.317 165.59 105.123C165.75 103.929 165.438 102.72 164.72 101.755C164.348 101.257 163.88 100.839 163.342 100.528C162.805 100.218 162.211 100.02 161.596 99.9485C160.981 99.8765 160.357 99.9313 159.764 100.11C159.17 100.288 158.619 100.586 158.143 100.986L135.426 119.721L121.145 130.519C120.439 130.106 119.623 129.921 118.808 129.991C117.994 130.06 117.22 130.381 116.593 130.908C115.965 131.435 115.514 132.144 115.301 132.938C115.088 133.732 115.123 134.573 115.401 135.346C115.68 136.12 116.188 136.788 116.857 137.261C117.526 137.733 118.323 137.987 119.141 137.988C119.958 137.989 120.756 137.736 121.426 137.265C122.096 136.794 122.605 136.126 122.885 135.353L141.464 125.483Z" fill="#F2A871"/>
<path d="M159.719 129.47L158.732 151.657L189.732 144.878C187.093 135.963 185.299 134.442 187.282 128.237L159.719 129.47Z" fill="#F2A974"/>
<path d="M178.78 88.7943H168.451L164.015 96.4323L161.901 96.3149C160.868 96.2574 159.833 96.4127 158.861 96.7713C157.889 97.1298 157 97.6841 156.248 98.4002C155.496 99.1162 154.897 99.9791 154.487 100.936C154.078 101.893 153.867 102.924 153.867 103.966L156.471 108.027C156.471 108.027 151.813 116.195 158.523 120.213C158.523 120.213 157.326 127.784 158.523 127.702C159.719 127.621 162.475 126.08 159.719 127.621C156.963 129.162 157.169 129.369 157.525 129.728L157.882 130.086L186.864 134.983C186.864 134.983 187.711 129.33 187.803 128.321C187.894 127.313 187.282 129.778 187.894 127.313C188.507 124.848 189.425 125.772 188.507 124.848C187.588 123.923 194.459 112.47 191.636 108.027L196.163 103.585C196.163 99.3231 189.361 95.8685 185.126 95.8685H184.583L178.78 88.7943Z" fill="#F17B26"/>
<path d="M153.893 273.945H149.712L147.723 257.719L153.893 257.719L153.893 273.945Z" fill="#F2A871"/>
<path d="M141.274 280.153C141.276 280.624 141.463 281.075 141.794 281.409C142.125 281.742 142.573 281.931 143.041 281.934H150.911L151.155 281.426L152.269 279.114L152.7 281.426L152.795 281.934H155.764L155.721 281.422L154.93 271.871L153.894 271.807L149.42 271.54L148.321 271.472V274.324C147.487 275.217 140.942 278.592 141.274 280.153Z" fill="#2F2E41"/>
<path d="M216.026 262.927L212.51 265.203L202.113 252.639L207.302 249.28L216.026 262.927Z" fill="#F2A871"/>
<path d="M208.751 275.016C209.006 275.411 209.406 275.689 209.864 275.79C210.321 275.89 210.8 275.805 211.195 275.553L217.814 271.268L217.746 270.708L217.439 268.158L219.044 269.867L219.398 270.243L221.895 268.627L221.584 268.219L215.782 260.617L214.877 261.127L210.971 263.338L210.01 263.88L211.544 266.278C211.322 267.483 207.633 273.884 208.751 275.016Z" fill="#2F2E41"/>
<path d="M235.529 282.796L106.073 282.923C105.944 282.922 105.82 282.87 105.729 282.778C105.638 282.686 105.587 282.561 105.587 282.431C105.587 282.301 105.638 282.176 105.729 282.084C105.82 281.992 105.944 281.94 106.073 281.939L235.529 281.812C235.658 281.813 235.782 281.865 235.873 281.957C235.964 282.049 236.015 282.174 236.015 282.304C236.015 282.434 235.964 282.559 235.873 282.651C235.782 282.743 235.658 282.795 235.529 282.796Z" fill="#CACACA"/>
<path d="M189.246 142.372C189.246 142.372 169.43 152.919 158.949 145.723C158.949 145.723 156.657 156.896 155.738 157.821C154.819 158.745 153.356 159.148 154.394 160.179C155.432 161.21 156.01 162.603 154.036 164.372C152.063 166.141 150.095 165.58 151.998 167.401C153.901 169.223 146.244 213.906 146.244 213.906C146.244 213.906 147.469 255.459 146.244 256.716C145.019 257.972 143.382 258.254 144.966 259.808C146.551 261.362 146.551 260.157 146.551 262.3V264.444L147.275 266.574H157.219C157.219 266.574 159.619 263.769 157.219 261.333C154.819 258.897 157.949 258.23 158.681 255.944C159.413 253.658 160.638 256.123 159.413 253.658C158.188 251.193 157.6 251.662 157.588 250.041C157.576 248.419 175.644 184.939 175.644 184.939L177.833 220.074L204.156 258.554L211.904 252.706C211.904 252.706 206.263 244.716 207.582 243.617C208.902 242.518 203.694 241.141 205.336 239.901C206.978 238.662 203.026 237.414 204.515 235.771C206.005 234.128 202.463 229.988 200.41 229.988C198.358 229.988 195.477 223.086 195.477 223.086L199.777 168.565L189.246 142.372Z" fill="#573926"/>
<path d="M168.243 66.3672C168.103 66.5524 166.986 66.4527 165.642 66.2553C162.986 65.865 162.624 66.3288 160.638 68.1464C157.761 70.7794 159.397 86.8387 157.983 90.3184L157.526 90.657C158.432 90.4829 159.322 90.2324 160.186 89.9081C160.674 88.3585 161.163 86.8039 161.656 85.2555C162.121 86.4602 162.414 87.7254 162.525 89.013C163.208 88.7418 163.888 88.0784 166.745 87.1887C168.184 86.2066 178.593 85.2191 179.931 84.787C183.328 73.1598 177.855 68.4577 168.243 66.3672Z" fill="black"/>
<path d="M171.758 84.2967C177.251 84.2967 181.705 79.8155 181.705 74.2876C181.705 68.7598 177.251 64.2786 171.758 64.2786C166.264 64.2786 161.811 68.7598 161.811 74.2876C161.811 79.8155 166.264 84.2967 171.758 84.2967Z" fill="#F2A871"/>
<path d="M178.02 65.4851C177.459 65.4019 176.92 65.2115 176.43 64.9243C176.188 64.7769 175.991 64.5637 175.863 64.3092C175.735 64.0547 175.681 63.7691 175.706 63.485C175.829 62.7738 176.628 62.3492 177.344 62.3925C178.057 62.4959 178.734 62.7717 179.318 63.1963C179.254 62.509 178.962 61.8633 178.489 61.363C178.017 60.8627 177.391 60.5367 176.712 60.4375C177.654 60.3864 178.632 60.3414 179.503 60.7058C180.374 61.0703 181.1 61.9727 180.943 62.9084C182.407 62.7187 183.85 63.7451 184.455 65.1002C185.059 66.4553 184.939 68.0466 184.457 69.4502C184.409 69.6651 184.316 69.8673 184.184 70.0429C184.052 70.2185 183.884 70.3635 183.691 70.4681C183.198 70.6562 182.668 70.3407 182.241 70.0297C180.011 68.405 177.982 66.5187 176.195 64.4107" fill="#2F2E41"/>
<path d="M182.357 84.9288C181.935 85.1286 182.155 85.8718 181.827 86.2046C181.685 86.3455 181.513 86.4529 181.325 86.5189C181.276 85.8986 181.132 85.2896 180.899 84.7131C180.856 84.6083 180.786 84.4912 180.676 84.5005C180.547 84.5159 180.513 84.6854 180.51 84.8117C180.484 85.4385 180.346 86.0554 180.103 86.6329C180.1 86.6391 180.097 86.6483 180.094 86.6545C179.999 86.6514 179.901 86.6483 179.809 86.6453C179.098 86.6175 177.524 84.7809 177.175 85.4034C178.406 83.2062 179.907 79.9027 180.137 77.3913C180.216 76.8655 180.177 76.3284 180.023 75.8196C179.943 75.5665 179.792 75.342 179.588 75.1727C179.385 75.0034 179.137 74.8963 178.875 74.8644C178.745 74.8584 178.616 74.8813 178.497 74.9314C178.377 74.9815 178.27 75.0576 178.183 75.1542C178.097 75.2507 178.032 75.3655 177.994 75.4901C177.956 75.6147 177.947 75.7462 177.965 75.8751L177.788 75.8505C176.14 74.5008 177.561 72.1556 175.644 71.2281C174.995 70.9138 171.02 71.9646 170.318 71.7797C170.303 71.0363 170.153 70.302 169.874 69.6134C169.831 69.5086 169.761 69.3915 169.651 69.4007C169.522 69.4161 169.488 69.5856 169.485 69.7119C169.459 70.3387 169.321 70.9556 169.078 71.5332C168.106 71.3945 167.117 71.4468 166.165 71.6872C165.326 71.9091 164.53 72.2913 163.688 72.4946C163.272 72.623 162.834 72.6646 162.401 72.6169C161.968 72.5692 161.549 72.4332 161.171 72.2173C160.102 71.4962 159.915 69.8999 160.448 68.7227C160.833 67.9674 161.355 67.2904 161.985 66.7259C162.466 66.2575 162.965 65.8076 163.464 65.3577C163.911 64.954 164.359 64.5503 164.806 64.1466C165.369 63.6135 165.968 63.1213 166.6 62.6736C167.609 62.008 168.743 61.557 169.932 61.3482C171.12 61.1394 172.339 61.1773 173.512 61.4594C174.921 61.7984 176.805 61.3208 178.094 61.9833C178.768 62.3315 180.259 63.6659 180.85 64.1404C182.363 65.3515 181.339 64.3647 182.994 65.0649C186.939 66.7345 185.195 83.5845 182.357 84.9288Z" fill="black"/>
<path d="M72.2211 157.984C106.29 157.984 133.908 130.193 133.908 95.9115C133.908 61.63 106.29 33.8394 72.2211 33.8394C38.1521 33.8394 10.5337 61.63 10.5337 95.9115C10.5337 130.193 38.1521 157.984 72.2211 157.984Z" fill="white"/>
<path d="M72.2211 157.984C106.29 157.984 133.908 130.193 133.908 95.9115C133.908 61.63 106.29 33.8394 72.2211 33.8394C38.1521 33.8394 10.5337 61.63 10.5337 95.9115C10.5337 130.193 38.1521 157.984 72.2211 157.984Z" fill="white"/>
<path d="M72.2211 158.603C37.8671 158.603 9.91797 130.48 9.91797 95.9115C9.91797 61.3432 37.8671 33.2197 72.2211 33.2197C106.575 33.2197 134.524 61.3432 134.524 95.9115C134.524 130.48 106.575 158.603 72.2211 158.603ZM72.2211 34.4589C38.5462 34.4589 11.1495 62.0265 11.1495 95.9115C11.1495 129.796 38.5462 157.364 72.2211 157.364C105.896 157.364 133.293 129.796 133.293 95.9115C133.293 62.0265 105.896 34.4589 72.2211 34.4589Z" fill="#D9D9DA"/>
<path d="M63.8057 128.217C62.7404 128.217 61.6898 127.968 60.7371 127.488C59.7843 127.009 58.9557 126.313 58.3167 125.455L41.4874 102.875C40.9468 102.15 40.5535 101.325 40.3299 100.446C40.1063 99.5679 40.0568 98.6539 40.1842 97.7563C40.3117 96.8587 40.6136 95.9951 41.0727 95.2149C41.5319 94.4347 42.1392 93.7532 42.8601 93.2092C43.581 92.6652 44.4013 92.2694 45.2742 92.0444C46.1471 91.8194 47.0555 91.7696 47.9476 91.8978C48.8396 92.0261 49.6978 92.3299 50.4732 92.7919C51.2485 93.2539 51.9258 93.865 52.4665 94.5904L63.4768 109.361L91.7553 66.6795C92.7653 65.157 94.3348 64.1004 96.1188 63.742C97.9027 63.3835 99.7551 63.7526 101.269 64.768C102.782 65.7834 103.833 67.362 104.191 69.1569C104.548 70.9518 104.182 72.8159 103.174 74.3397L69.5158 125.142C68.9069 126.061 68.088 126.82 67.1277 127.354C66.1674 127.889 65.0937 128.184 63.9967 128.215C63.933 128.216 63.8693 128.217 63.8057 128.217Z" fill="#D9D9DA"/>
<path d="M135.777 37.7176C135.949 36.5308 134.714 35.3676 133.018 35.1194C131.323 34.8712 129.809 35.632 129.638 36.8187C129.466 38.0055 130.702 39.1687 132.397 39.4169C134.092 39.6652 135.606 38.9043 135.777 37.7176Z" fill="#FE8235"/>
<path d="M155.962 35.7358C156.133 34.5491 154.898 33.3858 153.203 33.1376C151.507 32.8894 149.994 33.6502 149.822 34.837C149.651 36.0237 150.886 37.1869 152.581 37.4351C154.277 37.6833 155.79 36.9225 155.962 35.7358Z" fill="#3F3D56"/>
<path d="M130.25 21.2743C130.422 20.0876 129.186 18.9244 127.491 18.6762C125.796 18.428 124.282 19.1888 124.111 20.3755C123.939 21.5622 125.174 22.7255 126.87 22.9737C128.565 23.2219 130.078 22.4611 130.25 21.2743Z" fill="#FE8235"/>
<path d="M121.479 14.5388C121.487 13.4493 120.883 12.5615 120.13 12.5558C119.377 12.55 118.76 13.4286 118.752 14.5181C118.743 15.6075 119.347 16.4954 120.101 16.5011C120.854 16.5068 121.471 15.6283 121.479 14.5388Z" fill="#D9D8D8"/>
<path d="M118.505 1.9934C118.513 0.903933 117.909 0.0160942 117.156 0.0103632C116.402 0.00463221 115.785 0.883179 115.777 1.97265C115.769 3.06212 116.373 3.94996 117.126 3.95569C117.879 3.96142 118.496 3.08287 118.505 1.9934Z" fill="#3F3D56"/>
<path d="M141.635 24.0725C141.643 22.983 141.039 22.0952 140.286 22.0895C139.532 22.0837 138.915 22.9623 138.907 24.0518C138.899 25.1412 139.503 26.0291 140.256 26.0348C141.009 26.0405 141.626 25.162 141.635 24.0725Z" fill="#D9D8D8"/>
<path d="M131.88 28.973C131.888 27.8836 131.284 26.9957 130.531 26.99C129.778 26.9843 129.161 27.8628 129.153 28.9523C129.144 30.0418 129.748 30.9296 130.501 30.9353C131.255 30.941 131.872 30.0625 131.88 28.973Z" fill="#FE8235"/>
<path d="M145.459 38.0307C145.467 36.9412 144.863 36.0533 144.11 36.0476C143.357 36.0419 142.739 36.9204 142.731 38.0099C142.723 39.0994 143.327 39.9872 144.08 39.9929C144.833 39.9987 145.451 39.1201 145.459 38.0307Z" fill="#3F3D56"/>
<path d="M20.0151 184.768C20.1867 183.582 18.9514 182.418 17.2561 182.17C15.5607 181.922 14.0472 182.683 13.8756 183.87C13.704 185.056 14.9393 186.22 16.6346 186.468C18.33 186.716 19.8435 185.955 20.0151 184.768Z" fill="#FE8235"/>
<path d="M40.2001 182.787C40.3717 181.6 39.1365 180.437 37.4411 180.188C35.7458 179.94 34.2323 180.701 34.0607 181.888C33.8891 183.074 35.1244 184.238 36.8197 184.486C38.5151 184.734 40.0285 183.973 40.2001 182.787Z" fill="#3F3D56"/>
<path d="M14.4877 168.325C14.6593 167.138 13.4241 165.975 11.7287 165.727C10.0334 165.479 8.5199 166.239 8.3483 167.426C8.1767 168.613 9.41196 169.776 11.1073 170.024C12.8027 170.273 14.3161 169.512 14.4877 168.325Z" fill="#FE8235"/>
<path d="M5.717 161.59C5.72519 160.5 5.12124 159.612 4.36805 159.607C3.61485 159.601 2.99762 160.479 2.98943 161.569C2.98125 162.658 3.5852 163.546 4.3384 163.552C5.09159 163.558 5.70881 162.679 5.717 161.59Z" fill="#D9D8D8"/>
<path d="M2.74257 149.044C2.75086 147.954 2.147 147.067 1.3938 147.061C0.640608 147.055 0.0233042 147.934 0.0150128 149.023C0.00672148 150.113 0.610583 151.001 1.36378 151.006C2.11697 151.012 2.73428 150.133 2.74257 149.044Z" fill="#3F3D56"/>
<path d="M25.8723 171.123C25.8804 170.034 25.2765 169.146 24.5233 169.14C23.7701 169.135 23.1529 170.013 23.1447 171.103C23.1365 172.192 23.7405 173.08 24.4936 173.086C25.2468 173.091 25.8641 172.213 25.8723 171.123Z" fill="#D9D8D8"/>
<path d="M16.1184 176.024C16.1266 174.934 15.5226 174.047 14.7694 174.041C14.0162 174.035 13.399 174.914 13.3908 176.003C13.3826 177.093 13.9866 177.98 14.7398 177.986C15.493 177.992 16.1102 177.113 16.1184 176.024Z" fill="#D9D8D8"/>
<path d="M29.6965 185.082C29.7047 183.992 29.1007 183.104 28.3475 183.098C27.5943 183.093 26.9771 183.971 26.9689 185.061C26.9607 186.15 27.5647 187.038 28.3179 187.044C29.0711 187.05 29.6883 186.171 29.6965 185.082Z" fill="#3F3D56"/>
</svg>
