<svg width="186" height="150" viewBox="0 0 186 150" fill="none" xmlns="http://www.w3.org/2000/svg">
<g clip-path="url(#clip0_513_585)">
<path d="M165.691 92.7339L173.263 112.022L176.417 106.959L180.787 112.658L186.001 107.738L181.033 102.987L185.622 99.91L165.691 92.7339Z" fill="#EF873D"/>
<path d="M162.842 95.5831C162.885 95.6467 161.647 96.4993 160.083 97.4844C158.52 98.4695 157.218 99.2162 157.175 99.1527C157.132 99.0891 158.37 98.2364 159.934 97.2514C161.502 96.2663 162.804 95.5196 162.842 95.5831Z" fill="#393938"/>
<path d="M163.434 91.7011C163.423 91.7382 162.959 91.6164 162.218 91.3834C161.481 91.1503 160.467 90.7902 159.373 90.3506C158.274 89.9111 157.298 89.4768 156.599 89.1484C155.9 88.8201 155.473 88.5976 155.489 88.5659C155.505 88.5288 155.958 88.6877 156.679 88.9737C157.495 89.302 158.44 89.678 159.48 90.1017C160.526 90.5148 161.47 90.8855 162.287 91.2086C163.002 91.4787 163.445 91.6641 163.434 91.7011Z" fill="#393938"/>
<path d="M165.712 82.9415C165.75 82.9362 165.856 83.3387 165.99 84.006C166.123 84.668 166.273 85.5948 166.401 86.6169C166.529 87.6444 166.609 88.5765 166.651 89.2491C166.689 89.9269 166.689 90.3453 166.646 90.3453C166.566 90.3506 166.385 88.693 166.123 86.6487C165.872 84.6097 165.638 82.9573 165.712 82.9415Z" fill="#393938"/>
<path d="M176.193 87.2578C176.225 87.3372 174.822 87.9357 173.247 88.9366C171.668 89.9376 170.419 90.8167 170.371 90.7479C170.35 90.7161 170.638 90.4672 171.124 90.0859C171.615 89.7098 172.298 89.2014 173.103 88.7036C174.699 87.6868 176.172 87.1942 176.193 87.2578Z" fill="#393938"/>
<path d="M138.152 127.073C138.088 127.116 131.386 116.826 123.184 104.094C114.977 91.3569 108.382 81.0084 108.446 80.9661C108.51 80.9237 115.212 91.2139 123.419 103.946C131.615 116.677 138.216 127.031 138.152 127.073Z" fill="#393938"/>
<path d="M141.061 149.539C149.651 149.539 156.615 142.627 156.615 134.101C156.615 125.575 149.651 118.663 141.061 118.663C132.47 118.663 125.506 125.575 125.506 134.101C125.506 142.627 132.47 149.539 141.061 149.539Z" fill="white"/>
<path d="M125.505 134.101C125.505 134.101 125.5 134.017 125.505 133.852C125.511 133.672 125.521 133.429 125.527 133.116C125.532 132.952 125.537 132.772 125.548 132.576C125.564 132.375 125.607 132.163 125.633 131.925C125.703 131.453 125.761 130.913 125.938 130.32C126.199 129.118 126.754 127.693 127.634 126.178C128.526 124.674 129.817 123.096 131.588 121.751C133.349 120.422 135.585 119.288 138.168 118.822C138.813 118.727 139.47 118.594 140.148 118.589C140.484 118.579 140.825 118.541 141.167 118.547C141.508 118.563 141.855 118.579 142.202 118.594C142.554 118.6 142.901 118.647 143.248 118.706C143.595 118.764 143.952 118.801 144.304 118.875C144.998 119.061 145.713 119.198 146.396 119.479C147.1 119.701 147.762 120.046 148.445 120.369C148.776 120.549 149.096 120.755 149.422 120.946C149.758 121.131 150.062 121.359 150.371 121.592C151.012 122.026 151.567 122.566 152.154 123.091C152.682 123.668 153.237 124.235 153.696 124.891C154.63 126.178 155.446 127.608 155.942 129.181C156.455 130.744 156.732 132.407 156.753 134.096C156.732 135.785 156.455 137.448 155.942 139.011C155.446 140.584 154.63 142.014 153.696 143.301C153.242 143.957 152.687 144.524 152.154 145.106C151.567 145.631 151.012 146.171 150.371 146.605C150.062 146.838 149.758 147.066 149.422 147.251C149.091 147.442 148.776 147.649 148.445 147.829C147.762 148.152 147.1 148.496 146.396 148.718C145.713 148.999 144.998 149.137 144.304 149.322C143.952 149.391 143.6 149.433 143.248 149.492C142.901 149.55 142.549 149.598 142.202 149.603C141.855 149.619 141.508 149.635 141.167 149.65C140.825 149.656 140.484 149.624 140.148 149.608C139.47 149.603 138.813 149.47 138.168 149.375C135.585 148.909 133.355 147.776 131.588 146.446C129.822 145.106 128.526 143.528 127.634 142.019C126.754 140.504 126.199 139.08 125.938 137.877C125.767 137.284 125.703 136.739 125.633 136.273C125.601 136.04 125.564 135.822 125.548 135.627C125.543 135.431 125.532 135.245 125.527 135.086C125.516 134.774 125.511 134.53 125.505 134.35C125.5 134.186 125.505 134.101 125.505 134.101C125.505 134.101 125.521 134.186 125.532 134.35C125.543 134.525 125.559 134.769 125.585 135.081C125.596 135.245 125.607 135.425 125.617 135.621C125.639 135.817 125.681 136.034 125.719 136.267C125.793 136.733 125.863 137.274 126.044 137.856C126.322 139.048 126.882 140.451 127.768 141.945C128.664 143.428 129.95 144.979 131.706 146.293C133.456 147.596 135.66 148.702 138.205 149.153C138.846 149.243 139.491 149.375 140.158 149.375C140.489 149.386 140.825 149.417 141.167 149.412C141.503 149.396 141.844 149.375 142.186 149.359C142.533 149.354 142.874 149.306 143.216 149.248C143.557 149.19 143.909 149.153 144.256 149.078C144.939 148.893 145.644 148.755 146.316 148.48C147.01 148.258 147.661 147.919 148.328 147.601C148.653 147.426 148.968 147.22 149.288 147.029C149.619 146.849 149.918 146.621 150.217 146.393C150.841 145.964 151.391 145.43 151.967 144.916C152.485 144.344 153.029 143.788 153.477 143.142C154.395 141.876 155.195 140.472 155.681 138.926C156.182 137.39 156.455 135.759 156.476 134.096C156.455 132.438 156.182 130.807 155.681 129.271C155.195 127.725 154.395 126.321 153.477 125.056C153.029 124.41 152.485 123.853 151.967 123.281C151.391 122.768 150.846 122.233 150.217 121.804C149.918 121.576 149.614 121.348 149.288 121.168C148.968 120.978 148.653 120.776 148.328 120.596C147.661 120.279 147.01 119.94 146.316 119.717C145.644 119.437 144.939 119.304 144.262 119.119C143.915 119.05 143.568 119.008 143.221 118.949C142.88 118.891 142.533 118.843 142.191 118.838C141.85 118.822 141.508 118.801 141.172 118.785C140.836 118.78 140.5 118.812 140.164 118.822C139.497 118.827 138.851 118.955 138.211 119.045C135.665 119.489 133.456 120.602 131.711 121.904C129.956 123.218 128.67 124.77 127.773 126.253C126.887 127.741 126.322 129.149 126.044 130.341C125.863 130.929 125.793 131.469 125.719 131.93C125.681 132.163 125.639 132.375 125.617 132.576C125.607 132.772 125.596 132.952 125.585 133.116C125.564 133.429 125.548 133.672 125.532 133.847C125.521 134.017 125.505 134.101 125.505 134.101Z" fill="#393938"/>
<path d="M78.9903 128.106C78.9156 128.106 78.8516 117.477 78.8516 104.364C78.8516 91.251 78.9156 80.6218 78.9903 80.6218C79.065 80.6218 79.129 91.251 79.129 104.364C79.129 117.477 79.0703 128.106 78.9903 128.106Z" fill="#393938"/>
<path d="M78.6758 149.884C87.2664 149.884 94.2305 142.972 94.2305 134.446C94.2305 125.919 87.2664 119.008 78.6758 119.008C70.0852 119.008 63.1211 125.919 63.1211 134.446C63.1211 142.972 70.0852 149.884 78.6758 149.884Z" fill="white"/>
<path d="M63.1205 134.446C63.1205 134.446 63.1152 134.361 63.1205 134.197C63.1259 134.017 63.1365 133.773 63.1419 133.46C63.1472 133.296 63.1526 133.116 63.1632 132.92C63.1792 132.719 63.2219 132.507 63.2486 132.269C63.318 131.797 63.3767 131.257 63.5528 130.664C63.8142 129.462 64.3692 128.037 65.2496 126.523C66.1408 125.019 67.4321 123.44 69.2037 122.095C70.9646 120.766 73.2004 119.632 75.7831 119.166C76.4287 119.071 77.0851 118.939 77.7627 118.933C78.0989 118.923 78.4404 118.886 78.7819 118.891C79.1235 118.907 79.4703 118.923 79.8171 118.939C80.1693 118.944 80.5162 118.992 80.863 119.05C81.2099 119.108 81.5674 119.145 81.9196 119.219C82.6133 119.405 83.3283 119.542 84.0113 119.823C84.7157 120.046 85.3773 120.39 86.0604 120.713C86.3912 120.893 86.7114 121.099 87.0369 121.29C87.373 121.475 87.6772 121.703 87.9867 121.936C88.627 122.371 89.182 122.911 89.7689 123.435C90.2972 124.012 90.8522 124.579 91.3111 125.236C92.2449 126.523 93.0613 127.953 93.5576 129.525C94.0698 131.088 94.3473 132.751 94.3687 134.44C94.3473 136.13 94.0698 137.793 93.5576 139.355C93.0613 140.928 92.2449 142.358 91.3111 143.645C90.8575 144.301 90.3025 144.868 89.7689 145.451C89.182 145.975 88.627 146.515 87.9867 146.949C87.6772 147.183 87.373 147.41 87.0369 147.596C86.706 147.786 86.3912 147.993 86.0604 148.173C85.3773 148.496 84.7157 148.84 84.0113 149.063C83.3283 149.343 82.6133 149.481 81.9196 149.666C81.5674 149.735 81.2152 149.778 80.863 149.836C80.5162 149.894 80.164 149.942 79.8171 149.947C79.4703 149.963 79.1235 149.979 78.7819 150C78.4404 150.005 78.0989 149.968 77.7627 149.958C77.0851 149.952 76.4287 149.82 75.7831 149.725C73.2004 149.259 70.9699 148.125 69.2037 146.796C67.4374 145.456 66.1408 143.878 65.2496 142.368C64.3692 140.854 63.8142 139.429 63.5528 138.227C63.382 137.634 63.318 137.088 63.2486 136.622C63.2166 136.389 63.1792 136.172 63.1632 135.976C63.1579 135.78 63.1472 135.595 63.1419 135.436C63.1312 135.123 63.1259 134.88 63.1205 134.7C63.1152 134.53 63.1205 134.446 63.1205 134.446C63.1205 134.446 63.1365 134.53 63.1472 134.694C63.1579 134.869 63.1739 135.113 63.2006 135.425C63.2112 135.589 63.2219 135.77 63.2326 135.965C63.2539 136.161 63.2966 136.379 63.334 136.612C63.4087 137.078 63.4781 137.618 63.6595 138.2C63.937 139.392 64.4972 140.795 65.383 142.289C66.2795 143.772 67.5655 145.324 69.3211 146.637C71.0713 147.94 73.2751 149.047 75.8204 149.497C76.4607 149.587 77.1064 149.719 77.7734 149.719C78.1043 149.73 78.4404 149.762 78.7819 149.756C79.1181 149.741 79.4596 149.719 79.8011 149.703C80.148 149.698 80.4895 149.65 80.831 149.592C81.1725 149.534 81.5247 149.497 81.8715 149.423C82.5546 149.237 83.2589 149.1 83.9259 148.824C84.6196 148.602 85.2706 148.263 85.9376 147.945C86.2631 147.77 86.578 147.564 86.8981 147.373C87.229 147.193 87.5278 146.965 87.8266 146.738C88.4563 146.309 89.0005 145.774 89.5768 145.26C90.0944 144.688 90.6387 144.132 91.087 143.486C92.0048 142.22 92.8052 140.817 93.2908 139.27C93.7924 137.734 94.0645 136.103 94.0858 134.44C94.0645 132.783 93.7924 131.151 93.2908 129.616C92.8052 128.069 92.0048 126.666 91.087 125.4C90.6387 124.754 90.0944 124.198 89.5768 123.626C89.0005 123.112 88.4563 122.577 87.8266 122.148C87.5278 121.92 87.2236 121.693 86.8981 121.513C86.578 121.322 86.2631 121.121 85.9376 120.941C85.2706 120.623 84.6196 120.284 83.9259 120.061C83.2536 119.781 82.5492 119.648 81.8715 119.463C81.5247 119.394 81.1778 119.352 80.831 119.294C80.4895 119.235 80.1426 119.188 79.8011 119.182C79.4596 119.166 79.1181 119.145 78.7819 119.129C78.4458 119.124 78.1096 119.156 77.7734 119.166C77.1064 119.172 76.4607 119.299 75.8204 119.389C73.2751 119.834 71.066 120.946 69.3211 122.249C67.5655 123.562 66.2795 125.114 65.383 126.597C64.4972 128.085 63.9316 129.494 63.6541 130.685C63.4727 131.273 63.4033 131.813 63.3286 132.274C63.2913 132.507 63.2486 132.719 63.2273 132.92C63.2166 133.116 63.2059 133.296 63.1952 133.46C63.1739 133.773 63.1579 134.017 63.1419 134.191C63.1312 134.361 63.1205 134.446 63.1205 134.446Z" fill="#393938"/>
<path d="M18.7788 127.614C18.7147 127.571 25.4115 117.064 33.7358 104.142C42.0655 91.2192 48.8636 80.7754 48.9277 80.8178C48.9917 80.8601 42.2949 91.3675 33.9706 104.29C25.6463 117.212 18.8481 127.651 18.7788 127.614Z" fill="#393938"/>
<path d="M16.2598 149.688C24.8504 149.688 31.8145 142.776 31.8145 134.25C31.8145 125.723 24.8504 118.812 16.2598 118.812C7.66915 118.812 0.705078 125.723 0.705078 134.25C0.705078 142.776 7.66915 149.688 16.2598 149.688Z" fill="white"/>
<path d="M31.8145 134.25C31.8145 134.25 31.7985 134.165 31.7879 134.001C31.7772 133.826 31.7612 133.582 31.7345 133.27C31.7238 133.106 31.7131 132.926 31.7025 132.73C31.6811 132.534 31.6384 132.317 31.6011 132.083C31.5264 131.617 31.457 131.077 31.2756 130.495C30.9981 129.303 30.4378 127.9 29.5467 126.406C28.6502 124.923 27.3642 123.372 25.6087 122.058C23.8584 120.755 21.6546 119.648 19.1093 119.198C18.469 119.108 17.8233 118.981 17.1563 118.976C16.8255 118.965 16.4893 118.933 16.1478 118.939C15.8116 118.955 15.4701 118.976 15.1286 118.992C14.7817 118.997 14.4402 119.045 14.0987 119.103C13.7572 119.161 13.405 119.198 13.0635 119.272C12.3805 119.458 11.6761 119.595 11.0091 119.871C10.3154 120.093 9.66444 120.432 8.99743 120.75C8.67192 120.925 8.35709 121.131 8.03693 121.322C7.70609 121.502 7.40727 121.73 7.10845 121.957C6.48413 122.386 5.93451 122.921 5.35821 123.435C4.84061 124.007 4.29633 124.563 3.8481 125.209C2.93029 126.475 2.12988 127.878 1.6443 129.425C1.1427 130.961 0.870563 132.592 0.849219 134.25C0.870563 135.913 1.1427 137.544 1.6443 139.08C2.12988 140.626 2.93029 142.029 3.8481 143.295C4.29633 143.941 4.84061 144.497 5.35821 145.069C5.93451 145.583 6.47879 146.118 7.10845 146.547C7.40727 146.775 7.71143 147.002 8.03693 147.183C8.35709 147.373 8.67192 147.574 8.99743 147.754C9.66444 148.072 10.3154 148.411 11.0091 148.634C11.6815 148.914 12.3858 149.052 13.0635 149.232C13.4104 149.301 13.7572 149.343 14.1041 149.402C14.4456 149.46 14.7924 149.507 15.1339 149.513C15.4754 149.529 15.8169 149.55 16.1531 149.566C16.4893 149.571 16.8255 149.539 17.1616 149.529C17.8286 149.523 18.4743 149.396 19.1146 149.306C21.66 148.856 23.8691 147.749 25.614 146.446C27.3696 145.133 28.6556 143.581 29.552 142.098C30.4378 140.61 31.0034 139.201 31.2756 138.01C31.457 137.422 31.5264 136.882 31.6011 136.421C31.6384 136.188 31.6811 135.976 31.7025 135.775C31.7131 135.579 31.7238 135.399 31.7345 135.235C31.7558 134.922 31.7718 134.679 31.7879 134.504C31.8039 134.334 31.8145 134.25 31.8145 134.25C31.8145 134.25 31.8199 134.334 31.8145 134.498C31.8092 134.679 31.7985 134.922 31.7932 135.235C31.7879 135.399 31.7825 135.579 31.7718 135.775C31.7558 135.976 31.7131 136.188 31.6865 136.421C31.6171 136.892 31.5584 137.432 31.3823 138.026C31.1208 139.228 30.5659 140.652 29.6854 142.167C28.7943 143.671 27.503 145.249 25.7314 146.595C23.9705 147.924 21.7347 149.057 19.152 149.523C18.5063 149.619 17.85 149.751 17.1723 149.756C16.8361 149.767 16.4946 149.804 16.1531 149.799C15.8116 149.783 15.4648 149.767 15.1179 149.746C14.7657 149.741 14.4189 149.693 14.072 149.635C13.7252 149.576 13.3677 149.539 13.0155 149.465C12.3218 149.28 11.6068 149.142 10.9238 148.861C10.2194 148.639 9.55771 148.295 8.87469 147.972C8.54386 147.792 8.22369 147.585 7.89819 147.394C7.56202 147.209 7.25786 146.981 6.94837 146.748C6.30804 146.314 5.75308 145.774 5.16611 145.249C4.63784 144.672 4.08289 144.106 3.62398 143.444C2.69017 142.157 1.87375 140.727 1.37749 139.154C0.865227 137.591 0.587751 135.928 0.566406 134.239C0.587751 132.55 0.865227 130.887 1.37749 129.324C1.87375 127.751 2.69017 126.321 3.62398 125.034C4.07755 124.378 4.63251 123.811 5.16611 123.234C5.75308 122.709 6.30804 122.169 6.94837 121.735C7.25786 121.502 7.56202 121.274 7.89819 121.089C8.22903 120.898 8.54386 120.692 8.87469 120.512C9.55771 120.189 10.2194 119.844 10.9238 119.622C11.6068 119.341 12.3218 119.204 13.0155 119.018C13.3677 118.949 13.7199 118.907 14.072 118.849C14.4189 118.79 14.7711 118.743 15.1179 118.737C15.4648 118.722 15.8116 118.706 16.1531 118.69C16.4946 118.685 16.8361 118.716 17.1723 118.732C17.85 118.737 18.5063 118.87 19.152 118.965C21.7347 119.431 23.9651 120.565 25.7314 121.894C27.4976 123.234 28.7943 124.812 29.6854 126.321C30.5712 127.836 31.1208 129.261 31.3823 130.463C31.5531 131.056 31.6171 131.602 31.6865 132.068C31.7185 132.301 31.7558 132.518 31.7718 132.719C31.7772 132.915 31.7879 133.1 31.7932 133.259C31.8039 133.572 31.8092 133.815 31.8145 133.995C31.8199 134.165 31.8145 134.25 31.8145 134.25Z" fill="#393938"/>
<path d="M22.2788 126.215H10.0645V142.289H22.2788V126.215Z" fill="#393938"/>
<path d="M16.7666 128.784C16.7666 128.858 15.8702 128.922 14.7603 128.922C13.6504 128.922 12.7539 128.858 12.7539 128.784C12.7539 128.71 13.6504 128.646 14.7603 128.646C15.8702 128.646 16.7666 128.705 16.7666 128.784Z" fill="#393938"/>
<path d="M20.2989 131.04C20.2989 131.114 18.5007 131.178 16.2862 131.178C14.0717 131.178 12.2734 131.114 12.2734 131.04C12.2734 130.966 14.0664 130.902 16.2862 130.902C18.506 130.902 20.2989 130.966 20.2989 131.04Z" fill="#393938"/>
<path d="M20.2989 132.417C20.2989 132.491 18.5007 132.555 16.2862 132.555C14.0717 132.555 12.2734 132.491 12.2734 132.417C12.2734 132.343 14.0664 132.279 16.2862 132.279C18.506 132.279 20.2989 132.343 20.2989 132.417Z" fill="#393938"/>
<path d="M20.2989 133.789C20.2989 133.863 18.5007 133.927 16.2862 133.927C14.0717 133.927 12.2734 133.863 12.2734 133.789C12.2734 133.715 14.0664 133.651 16.2862 133.651C18.506 133.651 20.2989 133.715 20.2989 133.789Z" fill="#393938"/>
<path d="M20.2989 135.166C20.2989 135.24 18.5007 135.303 16.2862 135.303C14.0717 135.303 12.2734 135.24 12.2734 135.166C12.2734 135.092 14.0664 135.028 16.2862 135.028C18.506 135.028 20.2989 135.092 20.2989 135.166Z" fill="#393938"/>
<path d="M20.2989 136.537C20.2989 136.612 18.5007 136.675 16.2862 136.675C14.0717 136.675 12.2734 136.612 12.2734 136.537C12.2734 136.463 14.0664 136.4 16.2862 136.4C18.506 136.4 20.2989 136.463 20.2989 136.537Z" fill="#393938"/>
<path d="M20.2989 137.914C20.2989 137.989 18.5007 138.052 16.2862 138.052C14.0717 138.052 12.2734 137.989 12.2734 137.914C12.2734 137.84 14.0664 137.777 16.2862 137.777C18.506 137.777 20.2989 137.84 20.2989 137.914Z" fill="#393938"/>
<path d="M20.2989 139.286C20.2989 139.36 18.5007 139.424 16.2862 139.424C14.0717 139.424 12.2734 139.36 12.2734 139.286C12.2734 139.212 14.0664 139.148 16.2862 139.148C18.506 139.148 20.2989 139.212 20.2989 139.286Z" fill="#393938"/>
<path d="M150.542 81.2097H12.8332C5.8216 81.2097 0.138672 75.5694 0.138672 68.6104V67.2281C0.138672 60.2691 5.8216 54.6288 12.8332 54.6288H150.542C157.553 54.6288 163.236 60.2691 163.236 67.2281V68.6104C163.236 75.5694 157.553 81.2097 150.542 81.2097Z" fill="white"/>
<path d="M127.105 54.3905V81.2097H149.891C157.356 81.2097 163.402 75.204 163.402 67.8001C163.402 60.3909 157.35 54.3905 149.891 54.3905H127.105Z" fill="#EF873D"/>
<path d="M148.306 67.0586C148.268 67.0639 148.3 66.5555 148.076 65.687C147.852 64.8396 147.281 63.595 145.995 62.6311C145.36 62.1598 144.56 61.7626 143.636 61.6037C142.719 61.4501 141.689 61.4819 140.707 61.8526C140.211 62.0221 139.736 62.2816 139.298 62.61C138.855 62.9277 138.455 63.3249 138.124 63.7857C137.441 64.6913 137.052 65.8511 137.041 67.0533C137.052 68.2503 137.436 69.4154 138.124 70.321C138.455 70.7818 138.855 71.179 139.298 71.4967C139.736 71.8251 140.211 72.0793 140.707 72.2541C141.689 72.6248 142.724 72.6566 143.636 72.503C144.56 72.3441 145.36 71.9469 145.995 71.4756C147.281 70.517 147.852 69.2671 148.076 68.4197C148.3 67.5618 148.274 67.0534 148.306 67.0586C148.306 67.0586 148.375 67.5671 148.178 68.4515C147.98 69.3254 147.425 70.6176 146.112 71.6344C145.461 72.1323 144.634 72.5559 143.674 72.7307C142.724 72.9002 141.641 72.879 140.611 72.4924C140.093 72.3176 139.592 72.0475 139.133 71.7086C138.669 71.3749 138.242 70.9618 137.895 70.4799C137.174 69.5319 136.764 68.3085 136.753 67.0533C136.764 65.7982 137.174 64.5748 137.895 63.6268C138.242 63.1449 138.669 62.7318 139.133 62.3981C139.592 62.0592 140.093 61.7891 140.611 61.6143C141.641 61.233 142.719 61.2065 143.674 61.376C144.634 61.5507 145.461 61.9744 146.112 62.4723C147.425 63.4891 147.985 64.7813 148.183 65.6552C148.38 66.5502 148.306 67.0586 148.306 67.0586Z" fill="white"/>
<path d="M153.604 74.9762C153.562 75.0397 152.089 74.0653 150.317 72.8101C148.546 71.5496 147.148 70.4798 147.19 70.4163C147.233 70.3527 148.706 71.3219 150.477 72.5824C152.249 73.8428 153.652 74.9126 153.604 74.9762Z" fill="white"/>
<path d="M115.355 65.4327H15.6504V71.1207H115.355V65.4327Z" fill="#F9F6F4"/>
<path d="M150.542 81.2097C150.542 81.2097 150.857 81.1832 151.465 81.1514C151.769 81.1514 152.148 81.0826 152.591 81.0137C153.039 80.966 153.546 80.8178 154.122 80.6695C155.254 80.3199 156.636 79.7532 158.034 78.7205C158.21 78.5934 158.386 78.461 158.562 78.3233C158.733 78.1803 158.898 78.0214 159.074 77.8626C159.432 77.5607 159.752 77.2006 160.088 76.8298C160.435 76.4697 160.707 76.0301 161.038 75.617C161.177 75.3893 161.315 75.1616 161.459 74.9285L161.673 74.579L161.854 74.203C162.383 73.2126 162.729 72.0687 162.975 70.8559C163.023 70.5487 163.071 70.2362 163.119 69.9238C163.135 69.606 163.151 69.283 163.172 68.9599C163.199 68.3085 163.194 67.6359 163.172 66.958C163.135 64.2464 162.105 61.2806 159.965 58.908C157.858 56.5354 154.587 54.83 150.947 54.74C147.308 54.7029 143.445 54.7347 139.4 54.7294C107.01 54.74 62.2722 54.7559 12.8547 54.7718C9.79178 54.7771 6.78223 55.921 4.52506 57.9176C2.26256 59.8984 0.752447 62.6894 0.405601 65.6287C0.330896 65.9941 0.341568 66.3648 0.314888 66.7303C0.288207 67.0957 0.282871 67.4664 0.288207 67.8424C0.277535 68.5892 0.309552 69.32 0.378921 70.0509C0.528331 71.5126 0.987235 72.9266 1.64357 74.2242C2.96692 76.8192 5.19741 78.9165 7.84944 80.0498C9.17279 80.6165 10.5869 80.9449 12.0116 81.0402C12.7213 81.0931 13.4417 81.0826 14.162 81.0826C14.8824 81.0826 15.5974 81.0826 16.3125 81.0826C19.1726 81.0826 22.0061 81.0826 24.8075 81.0826C30.4104 81.0826 35.9013 81.0878 41.2533 81.0878C62.6671 81.0984 81.9517 81.109 98.1414 81.1196C114.331 81.1355 127.437 81.1514 136.497 81.162C141.022 81.1726 144.539 81.1832 146.924 81.1885C148.114 81.1938 149.021 81.1991 149.635 81.2044C150.232 81.2044 150.542 81.2097 150.542 81.2097C150.542 81.2097 150.227 81.2202 149.619 81.2255C149.005 81.2308 148.098 81.2308 146.908 81.2414C144.523 81.2467 141.006 81.2573 136.481 81.2679C127.42 81.2785 114.32 81.2944 98.1254 81.3103C81.9303 81.3209 62.6457 81.3262 41.2373 81.3421C35.8852 81.3421 30.3997 81.3474 24.7915 81.3474C21.9901 81.3474 19.1566 81.3474 16.2965 81.3474C15.5814 81.3474 14.8664 81.3474 14.146 81.3474C13.4257 81.3474 12.7106 81.3579 11.9796 81.305C10.5282 81.2097 9.08208 80.8707 7.72671 80.2934C5.01598 79.1336 2.73747 76.9887 1.38211 74.3407C0.709758 73.0167 0.245518 71.5709 0.0907719 70.0774C0.0214028 69.3306 -0.0106137 68.5786 5.84535e-05 67.8371C-0.00527763 67.4664 5.84533e-05 67.0904 0.0267389 66.7144C0.0534193 66.3384 0.0427472 65.9623 0.117452 65.5863C0.47497 62.5835 2.0171 59.7289 4.32763 57.7058C6.62748 55.6668 9.71174 54.4964 12.8387 54.4911C62.2509 54.507 106.989 54.5229 139.384 54.5335C143.434 54.5441 147.287 54.5176 150.937 54.5652C154.629 54.6659 157.938 56.403 160.067 58.8074C162.222 61.2118 163.258 64.2199 163.29 66.958C163.311 67.6465 163.311 68.3085 163.284 68.9652C163.268 69.2935 163.247 69.6166 163.231 69.9397C163.183 70.2574 163.135 70.5699 163.087 70.8824C162.841 72.1057 162.484 73.2603 161.945 74.2559C161.881 74.3831 161.822 74.5102 161.758 74.632L161.539 74.9868C161.395 75.2198 161.251 75.4528 161.113 75.6806C160.782 76.099 160.504 76.5385 160.152 76.8987C159.816 77.2694 159.49 77.6295 159.128 77.9314C158.951 78.085 158.786 78.2439 158.61 78.3922C158.428 78.5246 158.247 78.657 158.071 78.7894C156.657 79.8168 155.27 80.3835 154.128 80.7224C153.546 80.8654 153.039 81.0137 152.591 81.0561C152.143 81.1249 151.769 81.1832 151.46 81.1832C150.857 81.2044 150.542 81.2097 150.542 81.2097Z" fill="#393938"/>
<path d="M79.8813 64.686C79.3957 64.1246 79.3477 63.648 80.4362 63.5526C82.8428 63.3355 84.6197 62.2922 84.8972 61.6884C85.1747 61.0847 84.4116 60.4968 83.7606 60.8569C83.2324 61.1482 82.1972 61.376 81.4181 61.5136C80.7724 61.6302 80.1107 61.6408 79.4651 61.5401C78.9048 61.4554 78.4139 61.3601 77.971 61.2647C77.971 61.2647 75.4257 60.7192 74.3211 59.8666L68.9316 65.581L71.4609 68.4144C71.4609 68.4144 72.6669 70.2045 74.8334 69.9926C76.9998 69.7808 79.9186 68.2343 79.9186 68.2343C80.3135 67.6359 83.8033 69.7702 84.9292 70.5699C86.0391 71.3643 86.8822 71.1683 86.8396 70.4004C86.8129 69.8761 83.4298 67.3393 82.2985 66.5767C81.6849 66.1689 80.4629 65.3639 79.8813 64.686Z" fill="#FFBE9D"/>
<path d="M76.7113 69.6537C76.7166 69.6854 76.5565 69.7543 76.2791 69.749C76.0016 69.7437 75.6174 69.6378 75.2759 69.3783C74.9344 69.1241 74.7263 68.7798 74.6462 68.5203C74.5609 68.2555 74.5875 68.086 74.6195 68.0807C74.6943 68.0648 74.8277 68.711 75.4466 69.1558C76.0443 69.6272 76.706 69.5742 76.7113 69.6537Z" fill="#EF873D"/>
<path d="M78.8461 68.8169C78.8514 68.8487 78.6913 68.907 78.4245 68.8911C78.1631 68.8752 77.7949 68.764 77.4747 68.5151C77.1545 68.2661 76.9518 67.9431 76.8717 67.6889C76.7917 67.44 76.8077 67.2705 76.8397 67.2652C76.9144 67.2493 77.0585 67.8584 77.6401 68.2926C78.2164 68.7534 78.8461 68.7375 78.8461 68.8169Z" fill="#EF873D"/>
<path d="M84.6579 9.3634C84.882 14.0557 90.6503 20.4851 94.9405 21.5231C97.1977 22.0686 99.791 21.8144 101.579 23.3185C104.642 25.8977 102.849 31.2414 104.919 34.705C106.189 36.834 108.713 37.8773 110.143 39.8951C112.518 43.2528 110.922 48.3264 107.683 50.8262C104.444 53.3259 100.122 53.8026 96.0611 53.7019C87.1231 53.4742 77.9717 50.6514 71.5151 44.365C68.4788 41.4098 56.6061 32.2953 60.7469 10.6821" fill="#393938"/>
<path d="M116.909 42.9465L82.934 32.9369C80.1165 31.7506 77.9874 31.4594 77.9874 31.4594L66.5149 31.5335C64.9567 31.5335 63.4893 31.8671 62.1126 32.4444L31.19 42.6393C28.9008 43.3596 27.3213 45.6898 27.3213 48.3432C27.3213 51.6161 29.6958 54.2641 32.6254 54.2641H46.9047C46.862 54.3965 46.8407 54.4707 46.8407 54.4707L96.509 54.656C96.509 54.6507 96.509 54.6455 96.509 54.6349L115.468 54.6772C118.398 54.6772 120.772 51.9974 120.772 48.698C120.783 46.0235 119.198 43.672 116.909 42.9465Z" fill="#EF873D"/>
<path d="M110.1 46.5894C110.1 46.6 109.993 46.5947 109.79 46.5735C109.561 46.547 109.273 46.5152 108.915 46.4729C108.158 46.3775 107.058 46.2557 105.698 46.1286C102.976 45.8638 99.209 45.6308 95.0415 45.6838C90.874 45.742 87.1068 46.0704 84.396 46.404C83.0407 46.5682 81.9468 46.7218 81.189 46.833C80.8369 46.8807 80.5487 46.923 80.3193 46.9548C80.1218 46.9813 80.0151 46.9866 80.0098 46.976C80.0098 46.9654 80.1111 46.9389 80.3086 46.8966C80.538 46.8489 80.8208 46.7959 81.173 46.7218C81.9254 46.5735 83.0193 46.3934 84.3747 46.2028C87.0854 45.8215 90.858 45.456 95.0415 45.3978C99.2197 45.3448 103.003 45.6096 105.724 45.9221C107.085 46.0757 108.184 46.2293 108.937 46.3564C109.289 46.4146 109.577 46.4676 109.806 46.5046C109.999 46.5576 110.105 46.5788 110.1 46.5894Z" fill="#393938"/>
<g opacity="0.6">
<g opacity="0.6">
<path opacity="0.6" d="M102.128 38.3963C102.133 38.4016 102.101 38.4387 102.032 38.5076C101.952 38.5923 101.856 38.6929 101.733 38.82C101.466 39.0901 101.071 39.4873 100.532 39.9746C99.9933 40.4618 99.3209 41.0391 98.4672 41.6269C97.6134 42.1989 96.5675 42.7974 95.2922 43.1257C94.0275 43.4806 92.5334 43.4435 91.0447 43.041C89.5506 42.6438 88.0778 41.897 86.573 41.0814C85.0629 40.287 83.5048 39.3602 81.7332 38.8306C79.983 38.2533 77.9766 38.2745 76.1997 39.1113C74.4121 39.911 72.8913 41.1291 71.2264 42.0082C70.8156 42.236 70.378 42.4107 69.9565 42.6014C69.5189 42.755 69.092 42.9245 68.6545 43.0304C67.7847 43.2846 66.8989 43.4117 66.0398 43.4805C62.566 43.7295 59.4604 42.6067 57.3473 41.1079C56.2801 40.3506 55.469 39.4926 54.7219 38.7935C53.9802 38.0839 53.3025 37.5225 52.6889 37.1465C51.4509 36.3891 50.5865 36.4209 50.6078 36.3733C50.6078 36.3733 50.8106 36.368 51.1894 36.4421C51.5683 36.5109 52.1179 36.6857 52.7476 37.0564C53.3772 37.4272 54.0763 37.9833 54.8287 38.6876C55.5864 39.3814 56.4028 40.2235 57.4593 40.9543C59.5564 42.4107 62.6087 43.4911 66.0184 43.2316C66.8615 43.1628 67.7313 43.0357 68.5798 42.7815C69.012 42.6755 69.4282 42.5061 69.8551 42.3578C70.266 42.1724 70.6928 41.9977 71.093 41.7752C72.7259 40.912 74.2467 39.6833 76.0823 38.8624C77.9072 37.9938 80.0257 37.978 81.8079 38.5711C83.6222 39.1219 85.1857 40.0593 86.6904 40.859C88.1899 41.6799 89.6413 42.4213 91.098 42.8238C92.5495 43.2263 93.9902 43.2687 95.2335 42.9404C96.4821 42.6332 97.5173 42.0559 98.3658 41.4998C99.2196 40.9332 99.8972 40.3665 100.447 39.8951C100.991 39.4238 101.402 39.0372 101.679 38.7777C101.808 38.6558 101.914 38.5605 102 38.4864C102.085 38.4228 102.128 38.391 102.128 38.3963Z" fill="white"/>
</g>
</g>
<g opacity="0.2">
<path opacity="0.2" d="M49.333 46.5205L70.8108 50.5402L68.3295 54.5493L67.6785 54.5599L49.333 46.5205Z" fill="#393938"/>
</g>
<g opacity="0.6">
<g opacity="0.6">
<path opacity="0.6" d="M114.342 42.3102C114.353 42.3102 114.353 42.4214 114.353 42.6385C114.348 42.8504 114.326 43.1681 114.257 43.5706C114.124 44.3703 113.793 45.5408 112.966 46.7589C112.149 47.9717 110.773 49.2056 108.91 49.8465C107.987 50.1695 106.957 50.3496 105.89 50.3178C104.823 50.2754 103.74 50.0371 102.667 49.7352C101.589 49.4334 100.559 49.0997 99.5401 48.8985C98.5209 48.6813 97.5177 48.639 96.5732 48.7449C94.6789 48.9726 93.0781 49.7511 91.9415 50.625C90.7782 51.4882 90.0739 52.4468 89.6416 53.1194C89.5403 53.2889 89.4495 53.4425 89.3642 53.5802C89.3001 53.7126 89.2414 53.8291 89.1881 53.9297C89.092 54.1204 89.0333 54.2157 89.028 54.2157C89.0173 54.2104 89.06 54.1045 89.14 53.9085C89.1881 53.8026 89.2361 53.6808 89.2948 53.5431C89.3748 53.4001 89.4602 53.2412 89.5509 53.0665C89.9565 52.3674 90.6555 51.3717 91.8241 50.4714C92.966 49.5605 94.5935 48.7396 96.5465 48.4907C97.5177 48.3689 98.5636 48.4112 99.5988 48.6337C100.639 48.8402 101.68 49.1739 102.747 49.4704C103.814 49.7723 104.871 50.0106 105.906 50.053C106.936 50.0901 107.939 49.9206 108.836 49.6134C110.644 49.0044 112 47.8234 112.811 46.6529C113.643 45.4772 113.996 44.3386 114.161 43.5548C114.316 42.7603 114.316 42.3102 114.342 42.3102Z" fill="white"/>
</g>
</g>
<path d="M31.2217 53.5802C31.2217 53.5802 70.0471 70.5805 69.8443 70.1992C69.6415 69.8125 76.0075 58.6644 76.0075 58.6644L44.5512 43.2317L31.2217 53.5802Z" fill="#EF873D"/>
<path d="M49.0443 45.4349C49.0549 45.419 49.3377 45.5355 49.8447 45.7686C50.3943 46.0228 51.1147 46.3617 51.9791 46.7695C53.7774 47.6222 56.2533 48.8191 58.9801 50.159C61.7068 51.4989 64.1721 52.7223 65.949 53.6226C66.8028 54.0622 67.5071 54.4223 68.0461 54.703C68.537 54.9625 68.8091 55.1161 68.7985 55.132C68.7878 55.1479 68.505 55.0313 67.998 54.7983C67.4484 54.5441 66.7281 54.2052 65.8636 53.7974C64.0653 52.9447 61.5894 51.7425 58.8573 50.4079C56.1306 49.068 53.6653 47.8446 51.8884 46.9443C51.0346 46.5047 50.3302 46.1446 49.7913 45.8639C49.3004 45.6044 49.0336 45.4508 49.0443 45.4349Z" fill="#393938"/>
<g opacity="0.6">
<g opacity="0.6">
<path opacity="0.6" d="M57.566 50.5932C57.566 50.5932 57.5446 51.0328 57.2031 51.7371C56.8723 52.4362 56.1253 53.3577 54.8873 54.0356C54.2736 54.3693 53.5479 54.65 52.7315 54.7983C51.9151 54.9466 51.024 54.9519 50.1061 54.83C48.2599 54.597 46.3549 53.8291 44.4446 52.9446C42.5342 52.0549 40.7093 51.2022 38.9377 50.7892C38.0573 50.5773 37.1982 50.4767 36.3924 50.4979C35.592 50.5191 34.8449 50.662 34.1993 50.8686C32.8919 51.2817 31.9848 51.9755 31.4885 52.5527C30.987 53.1247 30.8162 53.5272 30.7842 53.5113C30.7842 53.5113 30.9176 53.0929 31.4032 52.4839C31.8834 51.8748 32.8012 51.1334 34.1352 50.6832C34.7969 50.4608 35.56 50.3019 36.3871 50.2701C37.2142 50.2384 38.0946 50.3337 38.9964 50.5455C40.8054 50.9533 42.6516 51.8113 44.562 52.701C46.4669 53.5855 48.3399 54.3428 50.1435 54.5864C51.04 54.7135 51.9044 54.7135 52.6941 54.5811C53.4839 54.4487 54.1936 54.1839 54.7966 53.8715C56.0079 53.2359 56.7602 52.3674 57.1071 51.6948C57.4699 51.0116 57.534 50.5826 57.566 50.5932Z" fill="white"/>
</g>
</g>
<g opacity="0.6">
<g opacity="0.6">
<path opacity="0.6" d="M74.0493 62.2445C74.044 62.2975 73.1902 62.1545 71.8028 62.1333C71.1091 62.1174 70.282 62.1598 69.3749 62.2551C68.4678 62.3663 67.4753 62.5464 66.4561 62.8271C65.4422 63.1184 64.5031 63.4785 63.6706 63.8545C62.8435 64.2464 62.1178 64.6384 61.5362 65.0144C60.3676 65.7558 59.7166 66.3172 59.6792 66.2801C59.6686 66.2642 59.8233 66.1159 60.1115 65.8564C60.3996 65.5916 60.8478 65.2474 61.4241 64.8502C62.0004 64.453 62.7208 64.0293 63.5532 63.6215C64.391 63.2243 65.3408 62.8536 66.376 62.557C67.4112 62.271 68.4197 62.0962 69.3376 61.9956C70.2607 61.9109 71.0985 61.8897 71.7975 61.9321C72.4965 61.9691 73.0621 62.0327 73.4463 62.1068C73.8412 62.181 74.0547 62.2287 74.0493 62.2445Z" fill="white"/>
</g>
</g>
<g opacity="0.2">
<path opacity="0.2" d="M78.8414 31.3844C78.201 33.1692 79.1615 35.0863 80.1007 36.7387C80.7517 37.8879 81.4134 39.0478 82.3525 39.9799C83.2917 40.912 84.5563 41.5952 85.885 41.5528C87.6299 41.4946 89.188 40.2182 90.9276 40.3188C92.1122 40.3877 93.1528 41.0815 94.1346 41.7382C95.8368 42.8821 97.587 43.9943 99.5187 44.6987C101.45 45.3977 103.601 45.6625 105.57 45.0747C107.539 44.4868 109.278 42.9457 109.759 40.9597" fill="#393938"/>
</g>
<path d="M78.9847 30.8919C79.0754 28.8158 79.1875 26.941 79.1875 26.941C79.1875 26.941 83.8565 26.3584 84.0593 21.6238C84.2621 16.8891 83.7872 5.99514 83.7872 5.99514L75.1854 1.896L65.9326 9.29458L67.384 31.0296C67.5921 34.1595 70.2869 36.5533 73.4458 36.405C76.4554 36.2674 78.8566 33.8735 78.9847 30.8919Z" fill="#FFBE9D"/>
<path d="M82.9816 14.5535C82.9869 14.8872 82.7254 15.1626 82.3999 15.1679C82.0744 15.1732 81.8023 14.9084 81.797 14.5747C81.7916 14.2411 82.0531 13.9657 82.3786 13.9604C82.7041 13.9498 82.9762 14.2199 82.9816 14.5535Z" fill="#393938"/>
<path d="M83.5577 13.2878C83.483 13.3673 83.0401 12.9965 82.3997 12.9701C81.7594 12.9383 81.2845 13.2666 81.2151 13.1819C81.1831 13.1448 81.2578 12.9965 81.4659 12.8482C81.6687 12.7 82.0155 12.557 82.4157 12.5781C82.8159 12.594 83.1468 12.7635 83.3389 12.933C83.531 13.1025 83.595 13.2507 83.5577 13.2878Z" fill="#393938"/>
<path d="M75.8898 14.5535C75.8951 14.8872 75.6336 15.1626 75.3081 15.1679C74.9826 15.1732 74.7105 14.9084 74.7052 14.5747C74.6998 14.2411 74.9613 13.9657 75.2868 13.9604C75.6123 13.9498 75.8844 14.2199 75.8898 14.5535Z" fill="#393938"/>
<path d="M76.4663 13.4096C76.3916 13.4891 75.9434 13.1184 75.3031 13.0919C74.6627 13.0601 74.1878 13.3885 74.1184 13.3037C74.0864 13.2667 74.1611 13.1184 74.3692 12.9701C74.572 12.8218 74.9189 12.6788 75.3191 12.7C75.7193 12.7159 76.0501 12.8853 76.2422 13.0548C76.4397 13.2243 76.5037 13.3726 76.4663 13.4096Z" fill="#393938"/>
<path d="M78.8732 18.8699C78.8732 18.8328 79.2681 18.7746 79.9138 18.711C80.0792 18.7004 80.2339 18.6686 80.2606 18.5521C80.3033 18.4303 80.2339 18.2397 80.1592 18.0331C80.0098 17.6041 79.8604 17.1593 79.695 16.6932C79.0547 14.7813 78.5904 13.2137 78.6651 13.1872C78.7398 13.1607 79.3161 14.6913 79.9565 16.5979C80.1112 17.0692 80.2606 17.5194 80.3994 17.9484C80.4581 18.1496 80.5594 18.3774 80.4741 18.6316C80.426 18.7587 80.3086 18.8487 80.2019 18.8752C80.0952 18.907 80.0045 18.9017 79.9244 18.907C79.2788 18.9229 78.8732 18.9123 78.8732 18.8699Z" fill="#393938"/>
<path d="M76.7704 19.5265C76.1141 19.0976 78.574 20.5805 79.8814 20.5593C79.8814 20.5593 79.097 21.7509 77.7736 21.2107C76.3969 20.644 76.7704 19.5265 76.7704 19.5265Z" fill="white"/>
<path d="M79.1875 26.941C79.1875 26.941 76.0605 27.0311 73.0029 24.9338C73.0029 24.9338 74.4543 28.3816 79.1074 28.1062L79.1875 26.941Z" fill="#EF873D"/>
<path d="M60.9222 13.9554C60.9062 18.0492 59.823 28.8796 67.3468 30.3837L67.0747 15.47C67.0747 15.47 74.3584 12.0594 75.5857 4.96266L75.6284 5.00503C76.0927 6.07483 76.9251 8.37861 76.4235 10.2534L83.243 11.9164L84.0274 12.6313C84.0274 12.6313 86.4554 7.35118 81.7703 2.55826C77.0852 -2.23467 73.0778 1.23954 70.5698 0.937664C68.8996 0.736414 63.1046 0.778782 60.7461 10.6771L60.9222 13.9554Z" fill="#393938"/>
<path d="M67.2615 15.634C66.6265 15.2421 65.7567 15.5651 65.2551 16.1106C64.46 16.9686 64.3213 18.3614 64.9296 19.3571C65.5379 20.3528 66.8453 20.8771 67.9819 20.5752" fill="#FFBE9D"/>
<path d="M67.1125 19.1611C67.1125 19.1929 66.899 19.23 66.5682 19.14C66.2533 19.0552 65.7571 18.8063 65.5703 18.2608C65.4796 17.996 65.4956 17.71 65.597 17.4876C65.6984 17.2652 65.8585 17.1116 66.0026 17.0162C66.3014 16.8256 66.5308 16.8362 66.5362 16.868C66.5468 16.9103 66.3494 16.9686 66.1253 17.1698C65.8958 17.3605 65.6824 17.7524 65.8318 18.1708C65.9705 18.5892 66.3547 18.8328 66.6322 18.9546C66.915 19.0817 67.1178 19.1188 67.1125 19.1611Z" fill="#EF873D"/>
<path d="M66.4882 20.0932C66.1413 20.1727 65.9652 20.6493 66.1733 20.93C66.3814 21.216 66.8884 21.1948 67.0751 20.8929C67.2619 20.5911 67.0431 20.1356 66.6963 20.0826" fill="#EF873D"/>
<path d="M80.3143 54.6818V46.9019C80.3143 46.9019 68.6763 49.2957 68.4629 54.5864L80.3143 54.6818Z" fill="#FFBE9D"/>
<path d="M79.1025 30.0763C79.2946 32.4437 80.3992 34.7315 82.1441 36.3574C83.889 37.9833 86.2582 38.9419 88.6488 38.979C90.367 39.0108 92.1759 38.603 93.7448 39.302C95.1108 39.9058 95.9859 41.2192 97.0585 42.2519C99.5771 44.6722 103.494 45.5514 106.818 44.4392C108.227 43.9679 110.468 42.9669 110.73 41.5105C110.927 40.4036 109.566 39.302 108.766 38.5129C107.96 37.7185 106.925 37.2101 105.9 36.7335C97.6081 32.8673 88.7128 30.0604 79.5668 29.5785" fill="#393938"/>
<path d="M75.8721 138.167C75.6299 138.167 75.4336 138.362 75.4336 138.603C75.4336 138.843 75.6298 139.038 75.8721 139.038C76.1142 139.038 76.3105 138.843 76.3105 138.603C76.3104 138.362 76.1142 138.167 75.8721 138.167Z" fill="#393938"/>
<path d="M82.8356 137.802C82.3191 137.617 81.9051 137.427 81.5697 137.221C81.5108 137.181 81.4899 137.177 81.4384 137.149C81.2493 137.045 81.068 137.13 81.0159 137.196C81.0015 137.214 80.9868 137.233 80.9718 137.251C80.5789 137.707 79.2852 138.259 79.2847 138.259C79.1835 138.287 79.1089 138.378 79.1089 138.488C79.1089 138.488 79.1089 138.488 79.1089 138.488L79.1089 138.488L79.1134 140.066C79.1134 141.039 78.3227 141.83 77.3519 141.83C76.3792 141.83 75.5878 141.039 75.5878 140.066V139.406C75.2525 139.29 75.0113 138.975 75.0113 138.603C75.0113 138.133 75.3952 137.752 75.8688 137.752C76.3424 137.752 76.7263 138.133 76.7263 138.603C76.7263 138.967 76.4955 139.277 76.1715 139.398V140.037C76.1715 140.726 76.7003 141.287 77.3512 141.287C78.0011 141.287 78.5306 140.726 78.5306 140.037L78.5336 138.498L78.5337 138.498C78.5337 138.498 78.5336 138.498 78.5336 138.498L78.5337 138.488C78.5337 138.488 78.5333 138.487 78.533 138.486C78.5281 138.388 78.4547 138.315 78.3737 138.274C78.3727 138.274 76.9952 137.592 76.5912 137.082C76.5391 137.016 76.3578 136.93 76.1687 137.034C75.8161 137.227 75.3368 137.386 74.7309 137.603C72.8627 138.271 72.3242 138.953 72.3242 139.418C72.3242 139.882 72.3242 142.464 72.3242 142.464H78.7786H78.788H85.2425C85.2425 142.464 85.2425 139.882 85.2425 139.418C85.2424 138.953 84.704 138.471 82.8356 137.802Z" fill="#393938"/>
<path d="M75.7363 132.107C75.8324 133.361 76.3347 132.82 76.4383 133.369C76.6421 134.45 77.0583 134.491 77.2045 134.863C77.2373 134.947 77.2565 135.347 77.2565 135.479C77.2565 135.924 77.232 136.16 77.0566 136.385C77.0168 136.437 76.9497 136.604 77.0355 136.731C77.4234 137.305 78.1722 137.788 78.8758 137.797C79.5795 137.788 80.3282 137.305 80.7162 136.731C80.8019 136.604 80.7348 136.437 80.695 136.385C80.5197 136.16 80.4951 135.924 80.4951 135.479C80.4951 135.347 80.5143 134.947 80.5471 134.863C80.6933 134.491 81.1095 134.45 81.3133 133.369C81.4169 132.82 81.9192 133.361 82.0153 132.107C82.0153 131.608 81.7411 131.483 81.7411 131.483C81.7411 131.483 81.8805 130.744 81.9351 130.175C82.0028 129.466 81.5181 127.635 78.9331 127.635C78.9237 127.635 78.8925 127.635 78.8759 127.635C78.8592 127.635 78.8279 127.635 78.8185 127.635C76.2336 127.635 75.7489 129.466 75.8165 130.175C75.8711 130.744 76.0105 131.483 76.0105 131.483C76.0105 131.483 75.7363 131.608 75.7363 132.107Z" fill="#393938"/>
<path d="M148.232 129.815C148.033 129.366 147.609 129.086 147.126 129.086H145.854C145.814 128.863 145.624 128.694 145.394 128.694C145.135 128.694 144.925 128.908 144.925 129.173V129.958C144.925 130.222 145.135 130.436 145.394 130.436C145.624 130.436 145.814 130.267 145.854 130.044H147.126C147.288 130.044 147.357 130.161 147.379 130.211C147.402 130.261 147.442 130.392 147.335 130.516C147.335 130.516 145.972 132.33 145.387 132.793C145.104 133.016 144.107 133.447 144.107 133.447C143.326 133.846 142.394 133.846 141.614 133.447C141.614 133.447 140.617 133.016 140.333 132.793C139.748 132.33 138.385 130.516 138.385 130.516C138.278 130.392 138.319 130.261 138.341 130.211C138.363 130.161 138.433 130.044 138.595 130.044H139.866C139.906 130.267 140.097 130.436 140.326 130.436C140.585 130.436 140.795 130.222 140.795 129.958V129.173C140.795 128.908 140.585 128.694 140.326 128.694C140.097 128.694 139.906 128.863 139.866 129.086H138.595C138.112 129.086 137.687 129.366 137.488 129.815C137.288 130.265 137.362 130.775 137.68 131.147L142.392 136.651V139.925C142.392 141.089 141.465 142.036 140.326 142.036C139.188 142.036 138.261 141.089 138.261 139.925V138.375C138.984 138.166 139.515 137.486 139.515 136.681C139.515 135.71 138.743 134.92 137.793 134.92C136.843 134.92 136.07 135.71 136.07 136.681C136.07 137.486 136.602 138.166 137.324 138.375V139.925C137.324 141.617 138.671 142.993 140.326 142.993C141.982 142.993 143.328 141.617 143.328 139.925V136.651L148.04 131.147C148.358 130.775 148.432 130.265 148.232 129.815ZM137.007 136.681C137.007 136.238 137.36 135.878 137.793 135.878C138.226 135.878 138.578 136.238 138.578 136.681C138.578 137.124 138.226 137.484 137.793 137.484C137.36 137.484 137.007 137.124 137.007 136.681ZM142.86 134.703C143.202 134.703 143.543 134.655 143.874 134.56L142.86 135.744L141.847 134.56C142.177 134.655 142.519 134.703 142.86 134.703Z" fill="#393938"/>
</g>
<defs>
<clipPath id="clip0_513_585">
<rect width="186" height="150" fill="white"/>
</clipPath>
</defs>
</svg>
