<svg width="143" height="113" viewBox="0 0 143 113" fill="none" xmlns="http://www.w3.org/2000/svg">
<g filter="url(#filter0_i_239_246)">
<path d="M0 75C0 60.0268 0 52.5402 3.49242 47.1059C5.19742 44.4529 7.45287 42.1974 10.1059 40.4924C15.5402 37 23.0268 37 38 37H105C119.973 37 127.46 37 132.894 40.4924C135.547 42.1974 137.803 44.4529 139.508 47.1059C143 52.5402 143 60.0268 143 75V75C143 89.9732 143 97.4598 139.508 102.894C137.803 105.547 135.547 107.803 132.894 109.508C127.46 113 119.973 113 105 113H38C23.0268 113 15.5402 113 10.1059 109.508C7.45287 107.803 5.19742 105.547 3.49242 102.894C0 97.4598 0 89.9732 0 75V75Z" fill="url(#paint0_linear_239_246)"/>
</g>
<path d="M78.076 14.9781C73.8963 13.0852 69.1037 13.0852 64.924 14.9781L4.41488 42.3815C1.72687 43.5989 0 46.2767 0 49.2275V49.2275C0 52.3331 1.91028 55.1189 4.80728 56.2379L66.1274 79.9247C69.5846 81.2601 73.4154 81.2601 76.8726 79.9247L138.193 56.2379C141.09 55.1189 143 52.3331 143 49.2275V49.2275C143 46.2767 141.273 43.5989 138.585 42.3815L78.076 14.9781Z" fill="url(#paint1_linear_239_246)"/>
<path opacity="0.8" d="M30.7033 0C25.8966 0 22 3.48926 22 7.79347V62.6935L65.1335 79.7944C69.188 81.4019 73.812 81.4019 77.8665 79.7944L121 62.6935V7.79347C121 3.48926 117.103 0 112.297 0H30.7033Z" fill="white"/>
<path d="M34.9517 19.9343C34.9517 17.2214 37.1509 15.0222 39.8637 15.0222H65.3306C67.8244 15.0222 69.8461 17.0439 69.8461 19.5377V19.8549C69.8461 22.3487 67.8244 24.3703 65.3306 24.3703H39.3877C36.9378 24.3703 34.9517 22.3842 34.9517 19.9343V19.9343Z" fill="#D9D9D9"/>
<path opacity="0.9" d="M34.9517 37.1952C34.9517 34.7013 36.9733 32.6797 39.4671 32.6797H103.496C105.99 32.6797 108.012 34.7013 108.012 37.1952V37.5123C108.012 40.0062 105.99 42.0278 103.496 42.0278H39.4671C36.9733 42.0278 34.9517 40.0062 34.9517 37.5123V37.1952Z" fill="#D9D9D9"/>
<path opacity="0.8" d="M34.9517 54.8527C34.9517 52.3589 36.9733 50.3373 39.4671 50.3373H88.7753C91.2691 50.3373 93.2908 52.3589 93.2908 54.8527V55.1699C93.2908 57.6638 91.2691 59.6854 88.7753 59.6854H39.4671C36.9733 59.6854 34.9517 57.6638 34.9517 55.1699V54.8527Z" fill="#D9D9D9"/>
<path opacity="0.6" d="M50.438 75.3481H81.3467C82.5512 75.3481 83.5276 74.4181 83.5276 73.2708V68.0774C83.5276 66.9301 82.5512 66 81.3467 66H43.1809C41.9764 66 41 66.9301 41 68.0774V71.3678L50.438 75.3481Z" fill="#D9D9D9"/>
<defs>
<filter id="filter0_i_239_246" x="0" y="14.4227" width="143" height="98.5773" filterUnits="userSpaceOnUse" color-interpolation-filters="sRGB">
<feFlood flood-opacity="0" result="BackgroundImageFix"/>
<feBlend mode="normal" in="SourceGraphic" in2="BackgroundImageFix" result="shape"/>
<feColorMatrix in="SourceAlpha" type="matrix" values="0 0 0 0 0 0 0 0 0 0 0 0 0 0 0 0 0 0 127 0" result="hardAlpha"/>
<feOffset dy="-22.5773"/>
<feGaussianBlur stdDeviation="16.933"/>
<feComposite in2="hardAlpha" operator="arithmetic" k2="-1" k3="1"/>
<feColorMatrix type="matrix" values="0 0 0 0 0.616667 0 0 0 0 0.596111 0 0 0 0 0.596111 0 0 0 0.7 0"/>
<feBlend mode="normal" in2="shape" result="effect1_innerShadow_239_246"/>
</filter>
<linearGradient id="paint0_linear_239_246" x1="71.5" y1="37" x2="71.5" y2="113" gradientUnits="userSpaceOnUse">
<stop offset="0.078125" stop-color="#B0AEAE"/>
<stop offset="0.442708" stop-color="#D9D8D8"/>
</linearGradient>
<linearGradient id="paint1_linear_239_246" x1="71.5" y1="12" x2="71.5" y2="82" gradientUnits="userSpaceOnUse">
<stop offset="0.34375" stop-color="#B0AEAE"/>
<stop offset="0.859375" stop-color="#FEFEFE"/>
</linearGradient>
</defs>
</svg>
