<svg width="19" height="18" viewBox="0 0 19 18" fill="none" xmlns="http://www.w3.org/2000/svg">
<path d="M11.2592 14.1851C14.0526 14.1851 15.4496 14.1851 16.317 13.317C17.1852 12.4495 17.1852 11.0525 17.1852 8.25918C17.1852 5.46584 17.1852 4.06881 16.317 3.2014C15.4496 2.33325 14.0526 2.33325 11.2592 2.33325H8.29629C5.50295 2.33325 4.10592 2.33325 3.23851 3.2014C2.37036 4.06881 2.37036 5.46584 2.37036 8.25918C2.37036 11.0525 2.37036 12.4495 3.23851 13.317C3.72221 13.8014 4.37036 14.0155 5.33332 14.1095" stroke="#D9D8D8" stroke-width="1.48148" stroke-linecap="round" stroke-linejoin="round"/>
<path d="M11.2593 14.1851C10.3437 14.1851 9.33483 14.5555 8.41409 15.0332C6.93409 15.8014 6.19409 16.1858 5.82965 15.9406C5.4652 15.6962 5.53409 14.9369 5.67261 13.4192L5.70372 13.074" stroke="#D9D8D8" stroke-width="1.48148" stroke-linecap="round"/>
</svg>
