<svg width="256" height="212" viewBox="0 0 256 212" fill="none" xmlns="http://www.w3.org/2000/svg">
<path fill-rule="evenodd" clip-rule="evenodd" d="M130.123 12.3717C152.538 13.863 179.905 -3.79861 195.869 11.8076C212.458 28.0259 189.271 58.0378 198.493 79.2125C209.499 104.485 255.647 112.923 251.769 140.164C248.16 165.521 207.643 163.314 184.797 175.435C166.077 185.367 150.836 200.012 130.123 204.705C104.626 210.481 76.5467 217.507 53.568 205.166C29.6949 192.345 18.0081 165.316 9.39679 139.869C0.7251 114.243 -4.20658 86.4578 4.75929 60.9308C13.6324 35.668 32.3936 12.3751 57.6067 2.60887C80.8866 -6.40852 105.171 10.7117 130.123 12.3717Z" fill="#FCE7D8" fill-opacity="0.44"/>
<path d="M120.89 197.094C119.772 197.451 87.8734 197.046 86.6693 196.265C86.1895 195.979 85.9976 191.356 85.9017 185.78V185.604C85.8793 184.451 85.8665 183.27 85.8633 182.063C85.8633 181.896 85.8633 181.734 85.8633 181.586L87.4081 165.15L108.747 165.355L106.646 181.639V182.287L106.516 185.656V186.004C106.516 186.004 118.611 191.547 119.839 192.547C121.067 193.548 122.012 196.736 120.89 197.094Z" fill="#D9A5A0"/>
<path d="M120.89 197.094C119.772 197.451 87.8734 197.046 86.6693 196.265C86.1895 195.979 85.9976 191.356 85.9017 185.78V185.604C85.8793 184.451 85.8665 183.271 85.8633 182.063C85.8633 181.896 85.8633 181.734 85.8633 181.587L106.646 181.639V182.287L106.516 185.656V186.004C106.516 186.004 118.611 191.547 119.839 192.548C121.067 193.548 122.012 196.737 120.89 197.094Z" fill="#EBEBEB"/>
<path d="M120.897 197.089C120.321 197.275 111.657 197.256 103.185 197.089C101.482 197.056 99.788 197.017 98.1713 196.975C92.1313 196.812 87.1371 196.565 86.6573 196.264C86.1776 195.964 85.9857 191.499 85.8945 185.999C85.8945 185.918 85.8945 185.842 85.8945 185.766C85.8945 185.69 85.8945 185.642 85.8945 185.585H85.9185L106.476 185.618V185.971C106.476 185.971 118.618 191.546 119.842 192.542C121.065 193.539 122.015 196.736 120.897 197.089Z" fill="#EF873D"/>
<path d="M120.548 195.86C115.175 195.659 93.4757 195.359 88.1457 195.569C88.1025 195.569 88.1025 195.602 88.1457 195.602C93.4709 195.917 115.17 196.041 120.548 195.945C120.663 195.945 120.663 195.864 120.548 195.86Z" fill="#263238"/>
<path d="M108.773 185.709C106.662 185.289 104.071 185.58 102.435 187.058C102.373 187.116 102.435 187.206 102.522 187.182C104.552 186.562 106.642 186.157 108.758 185.976C108.794 185.978 108.829 185.965 108.856 185.942C108.882 185.918 108.898 185.885 108.9 185.849C108.902 185.814 108.89 185.779 108.866 185.753C108.842 185.727 108.809 185.711 108.773 185.709Z" fill="#263238"/>
<path d="M110.289 186.643C108.178 186.223 105.587 186.514 103.951 187.992C103.889 188.05 103.951 188.14 104.037 188.116C106.067 187.496 108.158 187.091 110.274 186.91C110.31 186.912 110.345 186.9 110.371 186.876C110.398 186.852 110.414 186.819 110.416 186.784C110.418 186.748 110.405 186.713 110.381 186.687C110.358 186.661 110.324 186.645 110.289 186.643Z" fill="#263238"/>
<path d="M111.804 187.577C109.693 187.157 107.103 187.448 105.467 188.926C105.404 188.984 105.467 189.074 105.553 189.05C107.583 188.43 109.674 188.025 111.79 187.844C111.825 187.846 111.86 187.834 111.887 187.81C111.913 187.786 111.929 187.753 111.931 187.718C111.933 187.682 111.921 187.647 111.897 187.621C111.873 187.595 111.84 187.579 111.804 187.577Z" fill="#263238"/>
<path d="M103.185 197.089C101.482 197.056 99.788 197.017 98.1713 196.975C92.1313 196.812 87.1371 196.565 86.6573 196.264C86.1776 195.964 85.9857 191.499 85.8945 185.999C85.8945 185.918 85.8945 185.842 85.8945 185.766C85.8945 185.69 85.8945 185.642 85.8945 185.585H85.9185C88.7442 187.548 98.6702 194.11 103.185 197.089Z" fill="#263238"/>
<path d="M107.716 185.694H84.7404C84.7404 185.694 89.3556 132.391 89.1781 131.462C88.9478 130.27 87.5901 124.876 85.7815 117.827C85.2154 115.621 84.6061 113.257 83.968 110.803C82.2553 104.174 80.3651 96.9254 78.7196 90.6205C76.2489 81.1751 74.3203 73.8361 74.3203 73.8361H93.7885C93.7885 73.8361 96.0577 80.9845 98.9218 90.2774C103.585 105.384 109.817 126.177 110.436 131.233C111.429 139.396 107.716 185.694 107.716 185.694Z" fill="#37474F"/>
<path d="M106.694 181.801C103.183 181.729 104.195 181.701 100.683 181.667C98.9657 181.667 87.6821 181.553 86.0797 181.82C86.0724 181.823 86.066 181.828 86.0616 181.834C86.0571 181.84 86.0547 181.848 86.0547 181.856C86.0547 181.864 86.0571 181.871 86.0616 181.878C86.066 181.884 86.0724 181.889 86.0797 181.892C87.6821 182.154 98.9657 182.054 100.683 182.039C104.195 182.001 103.188 181.973 106.694 181.901C106.705 181.898 106.715 181.891 106.721 181.882C106.728 181.873 106.732 181.862 106.732 181.851C106.732 181.84 106.728 181.829 106.721 181.82C106.715 181.811 106.705 181.804 106.694 181.801Z" fill="#263238"/>
<path d="M93.4928 128.207C92.7395 124.909 91.6121 121.678 90.6143 118.437C88.6217 111.861 86.618 105.286 84.603 98.7127C83.5955 95.4244 82.5833 92.1393 81.5662 88.8574C81.0545 87.199 80.538 85.5421 80.0166 83.8869C79.5081 82.2666 78.9228 80.6606 78.4622 79.026C78.2751 78.3635 78.1744 78.7305 78.4143 79.574C78.894 81.2753 79.3738 82.9767 79.8775 84.678C80.8658 88.0393 81.8621 91.3991 82.8663 94.7572C84.8557 101.429 86.8658 108.101 88.8968 114.773C89.9106 118.125 90.9245 121.472 91.9384 124.814C92.4525 126.407 92.8675 128.031 93.1809 129.675C93.4533 131.392 93.5225 133.136 93.3872 134.869C93.1665 138.362 92.7635 141.851 92.4277 145.33C92.0919 148.809 91.7801 152.311 91.4682 155.814C90.8286 162.762 90.1889 169.709 89.5492 176.654C89.4693 177.537 89.3941 178.419 89.3237 179.299C89.3237 179.594 89.7507 179.571 89.8035 179.299C90.5615 172.427 91.1372 165.536 91.7848 158.654C92.4325 151.773 93.0754 144.963 93.7038 138.119C93.867 136.399 94.0493 134.679 94.0493 132.949C94.0436 131.352 93.857 129.762 93.4928 128.207Z" fill="#263238"/>
<path d="M91.5769 73.8361C90.2288 84.2251 87.6573 103.702 85.7815 117.832C81.387 100.714 74.3203 73.8361 74.3203 73.8361H91.5769Z" fill="#263238"/>
<path d="M96.1456 197.404C95.0278 197.766 63.1293 197.48 61.9204 196.698C61.4406 196.412 61.2295 191.795 61.1144 186.214V186.038C61.0856 184.884 61.0664 183.698 61.0616 182.497C61.0616 182.33 61.0616 182.168 61.0616 182.02C60.9849 173.952 61.5702 165.584 61.5702 165.584L82.42 165.712L81.8443 181.996L81.8203 182.645L81.7052 186.014V186.362C81.7052 186.362 93.862 191.895 95.0998 192.891C96.3375 193.887 97.2634 197.046 96.1456 197.404Z" fill="#D9A5A0"/>
<path d="M96.1426 197.403C95.0248 197.766 63.1263 197.48 61.9173 196.698C61.4376 196.412 61.2265 191.794 61.1114 186.214V186.037C61.0826 184.884 61.0634 183.698 61.0586 182.497C61.0586 182.33 61.0586 182.168 61.0586 182.02L81.8413 181.996L81.8173 182.644L81.7022 186.014V186.362C81.7022 186.362 93.859 191.894 95.0967 192.89C96.3345 193.886 97.2604 197.046 96.1426 197.403Z" fill="#EBEBEB"/>
<path d="M96.1484 197.404C95.0306 197.766 63.1321 197.48 61.9232 196.698C61.4434 196.412 61.2323 191.794 61.1172 186.214V186.038L81.6984 185.995V186.343C81.6984 186.343 93.8552 191.875 95.0929 192.872C96.3307 193.868 97.2662 197.046 96.1484 197.404Z" fill="#EF873D"/>
<path d="M95.7958 196.169C90.4226 195.993 68.7188 195.769 63.3936 195.998C63.3504 195.998 63.3456 196.031 63.3936 196.031C68.714 196.327 90.4178 196.374 95.7958 196.26C95.9109 196.255 95.9109 196.174 95.7958 196.169Z" fill="#263238"/>
<path d="M83.979 186.066C81.8681 185.651 79.2775 185.952 77.6464 187.435C77.584 187.492 77.6464 187.583 77.7327 187.564C79.7611 186.931 81.852 186.517 83.9694 186.328C84.0004 186.324 84.0288 186.309 84.0496 186.285C84.0705 186.262 84.0825 186.232 84.0837 186.201C84.0848 186.17 84.075 186.14 84.0559 186.115C84.0368 186.09 84.0096 186.073 83.979 186.066Z" fill="#263238"/>
<path d="M85.5046 186.991C83.3937 186.581 80.7982 186.881 79.1719 188.364C79.1047 188.421 79.1719 188.512 79.2582 188.488C81.2874 187.859 83.3781 187.447 85.495 187.258C85.5306 187.259 85.5653 187.246 85.5914 187.222C85.6175 187.198 85.6328 187.164 85.6341 187.129C85.6354 187.094 85.6224 187.059 85.5981 187.033C85.5739 187.007 85.5402 186.992 85.5046 186.991Z" fill="#263238"/>
<path d="M87.0228 187.92C84.9071 187.51 82.3165 187.811 80.6853 189.294C80.6229 189.351 80.6853 189.437 80.7765 189.418C82.8049 188.786 84.8958 188.373 87.0132 188.187C87.0488 188.189 87.0835 188.176 87.1096 188.152C87.1357 188.127 87.151 188.094 87.1523 188.059C87.1536 188.023 87.1407 187.989 87.1164 187.963C87.0921 187.937 87.0584 187.922 87.0228 187.92Z" fill="#263238"/>
<path d="M93.1577 73.8362C93.1577 73.8362 92.7115 83.091 90.5814 90.4205C90.4087 91.0257 90.2216 91.6214 90.0249 92.1933C88.0701 92.9745 86.1912 93.9316 84.4119 95.0527C84.4119 95.0527 84.1912 102.497 83.9657 110.779C83.721 120.063 83.462 130.418 83.5195 132.61C83.7162 140.826 82.4977 185.985 82.4977 185.985L59.5273 186.08C59.5273 186.08 63.6676 135.632 63.6388 132.62C63.5956 127.783 64.747 106.409 65.6345 90.8113C66.1815 81.2038 66.6276 73.7981 66.6276 73.7981L93.1577 73.8362Z" fill="#37474F"/>
<path d="M81.7025 181.972C78.1955 181.915 79.203 181.887 75.696 181.868C73.9785 181.868 62.69 181.81 61.0877 182.082C61.0541 182.082 61.0541 182.149 61.0877 182.154C62.6948 182.411 73.9785 182.263 75.696 182.24C79.203 182.187 78.1955 182.163 81.7025 182.077C81.7165 182.077 81.7299 182.072 81.7398 182.062C81.7497 182.052 81.7552 182.039 81.7552 182.025C81.7552 182.011 81.7497 181.998 81.7398 181.988C81.7299 181.978 81.7165 181.972 81.7025 181.972Z" fill="#263238"/>
<path d="M68.5539 77.1721C68.1365 89.901 67.6903 102.635 67.1146 115.354C66.5389 128.073 65.7713 140.888 64.7159 153.622C64.1162 160.737 63.5549 170.749 62.7969 177.845C62.7969 177.893 62.864 177.912 62.8736 177.845C64.5432 165.217 65.4691 149.604 66.2894 136.895C67.1098 124.185 67.6615 111.465 68.0981 98.7412C68.3428 91.5451 68.5299 84.3443 68.7458 77.1435C68.717 77.0386 68.5586 77.0482 68.5539 77.1721Z" fill="#263238"/>
<path d="M90.9753 91.6454C88.6902 92.5926 86.4926 93.736 84.4076 95.0628C84.3923 95.0735 84.3814 95.0894 84.3771 95.1075C84.3727 95.1257 84.3752 95.1447 84.3841 95.1611C84.3929 95.1776 84.4075 95.1902 84.4251 95.1967C84.4427 95.2031 84.4621 95.203 84.4796 95.1962C86.6912 94.1238 88.9556 93.0943 91.1097 91.9076C91.1409 91.8878 91.1636 91.8573 91.1733 91.8218C91.1831 91.7864 91.1792 91.7486 91.1624 91.7159C91.1456 91.6831 91.1172 91.6577 91.0826 91.6447C91.048 91.6317 91.0097 91.6319 90.9753 91.6454Z" fill="#263238"/>
<path d="M91.1008 83.7914C90.9521 84.6015 90.7506 85.4069 90.5778 86.2123C90.4051 87.0177 90.29 87.742 90.0981 88.4855C89.9338 89.209 89.5642 89.8705 89.0331 90.3917C88.7308 90.6681 88.4046 90.9112 88.0736 91.1637C87.9057 91.2972 87.7186 91.4306 87.541 91.5688C87.541 91.4592 87.5842 91.3496 87.6034 91.24L87.7617 90.3202C87.8769 89.634 87.9872 88.9525 88.0928 88.2663C88.299 86.9224 88.4862 85.5594 88.7692 84.2298C88.7692 84.1726 88.6972 84.1535 88.6876 84.2298C88.347 85.5499 87.9776 86.8604 87.6802 88.19C87.5362 88.8429 87.0229 92.0644 87.0037 92.2932C86.9845 92.5219 86.9606 92.7698 86.951 93.0033C86.9174 93.2436 86.9174 93.4873 86.951 93.7276C86.951 93.7848 87.0373 93.7753 87.0613 93.7276C87.1574 93.5029 87.2266 93.2678 87.2676 93.0271C87.3252 92.7983 87.3779 92.5505 87.4163 92.3313C87.4163 92.2455 87.4451 92.1598 87.4595 92.074C87.7761 91.8786 88.0736 91.626 88.371 91.4116C88.6685 91.1971 89.0235 90.935 89.3305 90.6967C89.8945 90.226 90.3011 89.5961 90.4963 88.8906C90.6932 88.1314 90.8217 87.3563 90.8801 86.5745C90.9808 85.6547 91.0576 84.735 91.1871 83.8247C91.1919 83.758 91.1104 83.7389 91.1008 83.7914Z" fill="#263238"/>
<path d="M85.1893 49.6411C86.4654 53.1724 90.9463 61.0786 97.8307 67.312C100.493 69.7186 120.302 68.1364 122.264 67.3787C123.636 66.8449 126.198 56.9277 124.754 56.0318C122.048 54.3495 104.341 58.2287 103.588 57.8332C102.436 57.2232 94.8082 52.1478 89.9004 47.3489C86.3167 43.8128 83.0784 43.7747 85.1893 49.6411Z" fill="#D9A5A0"/>
<path d="M90.2745 60.0684L101.51 55.6363C101.51 55.6363 91.4355 47.0249 87.7414 45.3236C83.5916 43.4173 83.5148 45.9336 84.9733 49.9986C86.4317 54.0637 90.2745 60.0684 90.2745 60.0684Z" fill="#EF873D"/>
<path opacity="0.1" d="M90.2745 60.0684L101.51 55.6363C101.51 55.6363 91.4355 47.0249 87.7414 45.3236C83.5916 43.4173 83.5148 45.9336 84.9733 49.9986C86.4317 54.0637 90.2745 60.0684 90.2745 60.0684Z" fill="black"/>
<path d="M99.1372 54.2974C98.7247 54.3879 95.2033 55.7272 94.4405 56.0227C93.6777 56.3182 90.5641 57.5431 89.8061 57.9292C89.7985 57.9292 89.7912 57.9322 89.7858 57.9376C89.7804 57.9429 89.7773 57.9502 89.7773 57.9578C89.7773 57.9654 89.7804 57.9726 89.7858 57.978C89.7912 57.9834 89.7985 57.9864 89.8061 57.9864C90.6217 57.7528 93.7688 56.5565 94.546 56.242C95.3232 55.9274 98.787 54.5547 99.1468 54.3355C99.2092 54.2974 99.166 54.2974 99.1372 54.2974Z" fill="#263238"/>
<path d="M94.6139 58.3574L90.2961 60.0683C90.2961 60.0683 86.4582 54.0684 85.0189 50.0033C83.9539 47.0296 83.7092 44.8756 85.2732 44.6849L94.6139 58.3574Z" fill="#263238"/>
<path d="M64.0597 83.9107C64.1317 83.9917 95.9102 84.1966 96.2028 83.8773C96.6106 83.4008 89.5535 49.1981 86.3056 44.9614C85.6148 44.056 81.2299 42.8217 78.6872 44.8804C73.2853 49.2505 68.6125 64.2526 67.5091 68.7799C65.7053 76.219 63.7959 83.6152 64.0597 83.9107Z" fill="#EF873D"/>
<path opacity="0.1" d="M86.4849 45.2429H78.2812C78.4156 45.119 78.5499 45.0045 78.6842 44.8948C78.7658 44.8286 78.8507 44.7666 78.9385 44.7089H86.0052C86.1168 44.7832 86.2169 44.8731 86.3026 44.9759C86.3689 45.0611 86.4298 45.1502 86.4849 45.2429Z" fill="black"/>
<path opacity="0.1" d="M87.2537 46.7632H76.8672C77.0159 46.5772 77.1646 46.396 77.3182 46.2244H87.0187C87.0954 46.3913 87.1722 46.5725 87.2537 46.7632Z" fill="black"/>
<path opacity="0.1" d="M87.8484 48.2978H75.7539C75.8786 48.1118 75.9986 47.9353 76.1233 47.7589H87.6373L87.8484 48.2978Z" fill="black"/>
<path opacity="0.1" d="M88.3672 49.8274H74.8047C74.9102 49.6462 75.0158 49.465 75.1261 49.2886H88.1753C88.252 49.465 88.3096 49.6462 88.3672 49.8274Z" fill="black"/>
<path opacity="0.1" d="M88.8566 51.362H73.9844C74.0803 51.1808 74.1715 50.9996 74.2722 50.8231H88.7126C88.7414 50.9996 88.799 51.1808 88.8566 51.362Z" fill="black"/>
<path opacity="0.1" d="M89.3157 52.8965H73.1914C73.2778 52.7153 73.3641 52.5341 73.4553 52.3577H89.1382L89.3157 52.8965Z" fill="black"/>
<path opacity="0.1" d="M89.7553 54.4262H72.4844L72.729 53.8873H89.621C89.6546 54.0638 89.7025 54.245 89.7553 54.4262Z" fill="black"/>
<path opacity="0.1" d="M90.1638 55.9607H71.8086L72.0389 55.4219H90.0198L90.1638 55.9607Z" fill="black"/>
<path opacity="0.1" d="M90.5702 57.4953H71.1836C71.2508 57.3141 71.3227 57.1376 71.3995 56.9564H90.4311C90.4743 57.1567 90.5222 57.3141 90.5702 57.4953Z" fill="black"/>
<path opacity="0.1" d="M90.9687 59.0252H70.5938C70.6609 58.844 70.7281 58.6675 70.8 58.4863H90.8343C90.8775 58.6675 90.9255 58.844 90.9687 59.0252Z" fill="black"/>
<path opacity="0.1" d="M91.36 60.5594H70.0352C70.0975 60.3781 70.1647 60.2017 70.2319 60.0205H91.2256C91.2688 60.2017 91.312 60.3781 91.36 60.5594Z" fill="black"/>
<path opacity="0.1" d="M91.7276 62.0894H69.4961C69.5537 61.9129 69.616 61.7317 69.6832 61.5553H91.5981L91.7276 62.0894Z" fill="black"/>
<path opacity="0.1" d="M92.1025 63.6239H68.9883L69.161 63.0851H91.9682L92.1025 63.6239Z" fill="black"/>
<path opacity="0.1" d="M92.4616 65.1583H68.5078C68.5606 64.9819 68.6134 64.8007 68.6709 64.6195H92.3369C92.3801 64.7816 92.4232 64.9819 92.4616 65.1583Z" fill="black"/>
<path opacity="0.1" d="M92.8184 66.688H68.0586L68.2121 66.1539H92.6793C92.732 66.3351 92.7752 66.5116 92.8184 66.688Z" fill="black"/>
<path opacity="0.1" d="M93.1671 68.2226H67.6445C67.6877 68.0557 67.7357 67.8745 67.7837 67.6837H93.0472C93.0856 67.8649 93.1287 68.0414 93.1671 68.2226Z" fill="black"/>
<path opacity="0.1" d="M93.5117 69.7572H67.2695L67.3991 69.2184H93.3918C93.4542 69.3996 93.4542 69.5808 93.5117 69.7572Z" fill="black"/>
<path opacity="0.1" d="M93.8507 71.2869H66.8984L67.028 70.7528H93.7355L93.8507 71.2869Z" fill="black"/>
<path opacity="0.1" d="M94.1761 72.8214H66.5234L66.653 72.2826H94.061C94.1041 72.4638 94.1425 72.6402 94.1761 72.8214Z" fill="black"/>
<path opacity="0.1" d="M94.4976 74.3559H66.1445L66.2741 73.817H94.4113C94.4113 73.9982 94.4641 74.1794 94.4976 74.3559Z" fill="black"/>
<path opacity="0.1" d="M94.8174 75.8856H65.7734L65.903 75.3468H94.6879C94.7454 75.528 94.7838 75.7092 94.8174 75.8856Z" fill="black"/>
<path opacity="0.1" d="M95.1272 77.4202H65.3828C65.4308 77.2438 65.474 77.0626 65.5171 76.8813H95.0073C95.0552 77.0626 95.0936 77.2438 95.1272 77.4202Z" fill="black"/>
<path opacity="0.1" d="M95.4329 78.9549H65.0312C65.0744 78.7784 65.1128 78.602 65.1608 78.416H95.3273C95.3753 78.602 95.3993 78.7784 95.4329 78.9549Z" fill="black"/>
<path opacity="0.1" d="M95.7212 80.5083H64.6719C64.7103 80.3319 64.7534 80.1555 64.7966 79.9695H95.6204C95.654 80.1316 95.6876 80.308 95.7212 80.5083Z" fill="black"/>
<path opacity="0.1" d="M95.9876 82.0191H64.3242C64.3578 81.8522 64.3962 81.671 64.4442 81.4802H95.8916C95.93 81.671 95.9588 81.8474 95.9876 82.0191Z" fill="black"/>
<path opacity="0.1" d="M96.2056 83.5536H64.0625C64.0625 83.4106 64.1057 83.2294 64.1441 83.0148H96.1385C96.172 83.2341 96.1912 83.4153 96.2056 83.5536Z" fill="black"/>
<path d="M84.9128 49.5314C83.819 49.6935 80.5951 47.7062 79.3909 45.5617C79.3094 45.414 79.8707 39.4808 79.8419 38.2942C79.8419 38.0511 87.3547 40.0145 87.3547 40.0145C86.946 41.5037 86.7221 43.0369 86.6879 44.58C86.6923 44.7403 86.7116 44.8998 86.7455 45.0565C86.7455 45.0804 86.7455 45.1042 86.7455 45.1376C86.9182 46.0907 86.5152 49.3122 84.9128 49.5314Z" fill="#D9A5A0"/>
<path d="M80.3242 38.3469C80.6265 40.1436 81.8402 45.1713 85.9852 45.2189C86.2421 45.2219 86.4988 45.2044 86.7528 45.1665V45.0855C86.7229 44.9282 86.7052 44.7689 86.7001 44.6089C86.7342 43.0658 86.9582 41.5326 87.3669 40.0435C87.3669 40.0435 81.9889 38.6329 80.3242 38.3469Z" fill="#263238"/>
<path d="M80.5753 28.2865C79.232 30.6979 79.0162 38.4468 80.513 40.496C82.6766 43.4697 87.0184 44.623 89.7625 41.8589C92.4203 39.1759 92.5211 29.0728 90.7796 27.1285C88.2129 24.2739 82.5615 24.7171 80.5753 28.2865Z" fill="#D9A5A0"/>
<path d="M86.9374 34.4484C86.9374 34.4484 86.899 34.4722 86.899 34.496C86.899 35.0158 86.8079 35.6166 86.3281 35.774V35.8026C86.9134 35.7406 87.0238 34.9443 86.9374 34.4484Z" fill="#263238"/>
<path d="M86.4879 33.8907C85.6483 33.8001 85.5284 35.4787 86.3056 35.5645C87.0828 35.6503 87.2171 33.967 86.4879 33.8907Z" fill="#263238"/>
<path d="M89.8331 34.62C89.8331 34.62 89.8714 34.6438 89.8714 34.6677C89.8139 35.1874 89.8427 35.793 90.3032 35.9981C90.3032 35.9981 90.3032 36.0315 90.3032 36.0267C89.7227 35.9027 89.6987 35.1016 89.8331 34.62Z" fill="#263238"/>
<path d="M90.3383 34.1099C91.1827 34.1099 91.1299 35.7884 90.3383 35.7931C89.5467 35.7979 89.6139 34.1099 90.3383 34.1099Z" fill="#263238"/>
<path d="M85.7779 33.329C86.0053 33.2819 86.2295 33.2214 86.4496 33.1478C86.6941 33.1155 86.9214 33.005 87.0972 32.833C87.1419 32.7679 87.1633 32.6898 87.1581 32.6111C87.1529 32.5325 87.1213 32.4578 87.0685 32.3991C86.9484 32.296 86.8026 32.227 86.6464 32.1993C86.4902 32.1716 86.3294 32.1863 86.1809 32.2417C85.8628 32.309 85.5809 32.4907 85.3893 32.752C85.3506 32.8142 85.3308 32.8863 85.3321 32.9594C85.3334 33.0326 85.3559 33.1039 85.3969 33.1647C85.4379 33.2255 85.4956 33.2734 85.5631 33.3025C85.6307 33.3316 85.7053 33.3408 85.7779 33.329Z" fill="#263238"/>
<path d="M91.0537 32.9386C90.8307 32.8776 90.6113 32.8044 90.3964 32.7192C90.1528 32.6719 89.9309 32.5482 89.7632 32.3663C89.724 32.2979 89.708 32.2188 89.7175 32.1407C89.727 32.0626 89.7615 31.9896 89.8159 31.9324C89.9428 31.8376 90.0926 31.778 90.2502 31.7595C90.4079 31.7411 90.5676 31.7645 90.7131 31.8275C91.0251 31.9139 91.2947 32.1106 91.4711 32.3806C91.5092 32.4445 91.5276 32.5182 91.5237 32.5925C91.5198 32.6667 91.494 32.7381 91.4493 32.7978C91.4047 32.8574 91.3433 32.9026 91.2729 32.9277C91.2025 32.9527 91.1263 32.9565 91.0537 32.9386Z" fill="#263238"/>
<path d="M88.1817 38.3234C87.9408 38.5939 87.6333 38.7977 87.2894 38.9147C87.1009 38.9766 86.8974 38.9766 86.7089 38.9147C86.2963 38.7765 86.3155 38.395 86.4163 38.0755C86.4709 37.9085 86.545 37.7485 86.6369 37.5986C87.0614 37.9972 87.6024 38.251 88.1817 38.3234Z" fill="#263238"/>
<path d="M87.2894 38.9143C87.1009 38.9762 86.8974 38.9762 86.7089 38.9143C86.2963 38.776 86.3155 38.3946 86.4163 38.0751C86.6369 38.0934 86.8443 38.1869 87.0034 38.3399C87.1626 38.4929 87.2636 38.6958 87.2894 38.9143Z" fill="#FF9CBD"/>
<path d="M79.66 35.349C81.0993 35.1632 82.481 30.693 82.481 30.693C82.481 30.693 82.1739 32.6326 82.5481 32.6374C82.9223 32.6422 84.8221 30.2546 85.2731 28.3484C86.2478 29.2193 87.3333 29.9595 88.5018 30.5501C90.1617 31.3268 92.1047 31.5032 92.1527 31.2029C92.2822 30.3261 91.8265 27.9242 90.747 26.9139C89.9723 26.129 89.0028 25.561 87.9364 25.2673C86.87 24.9736 85.7444 24.9646 84.6734 25.2412C81.6702 25.9036 80.6531 27.624 80.0199 28.9488C79.3866 30.2737 79.1323 35.4157 79.66 35.349Z" fill="#263238"/>
<path d="M85.5121 37.2224C85.0809 37.1565 84.6771 36.9713 84.3469 36.6879C84.0168 36.4046 83.7737 36.0345 83.6455 35.6202C83.5173 35.2059 83.5092 34.7641 83.622 34.3454C83.7349 33.9267 83.9643 33.5481 84.2838 33.253C84.6033 32.9578 85 32.7581 85.4285 32.6766C85.8571 32.5951 86.3 32.6353 86.7066 32.7924C87.1132 32.9495 87.4671 33.2172 87.7276 33.5649C87.9881 33.9126 88.1447 34.3262 88.1795 34.7583C88.2101 35.108 88.1601 35.46 88.0333 35.7876C87.9066 36.1153 87.7063 36.4099 87.4479 36.6493C87.1894 36.8886 86.8795 37.0663 86.5416 37.1689C86.2037 37.2715 85.8467 37.2963 85.4977 37.2414L85.5121 37.2224ZM86.2078 32.9709C86.0483 32.9535 85.8874 32.9535 85.728 32.9709C85.2181 33.0317 84.7507 33.2836 84.4215 33.6752C84.0922 34.0668 83.9259 34.5685 83.9565 35.0779C83.9872 35.5872 84.2124 36.0657 84.5862 36.4156C84.9601 36.7655 85.4543 36.9603 85.9679 36.9603C86.4815 36.9603 86.9757 36.7655 87.3495 36.4156C87.7234 36.0657 87.9486 35.5872 87.9792 35.0779C88.0099 34.5685 87.8436 34.0668 87.5143 33.6752C87.1851 33.2836 86.7177 33.0317 86.2078 32.9709Z" fill="#EF873D"/>
<path d="M90.8283 37.4274C89.9503 37.2844 89.2979 36.2644 89.3506 35.0443C89.368 34.4681 89.5658 33.9116 89.9167 33.4524C90.0538 33.2454 90.2425 33.0774 90.4646 32.9647C90.6866 32.852 90.9344 32.7986 91.1835 32.8097C91.4325 32.8207 91.6745 32.8959 91.8855 33.0277C92.0966 33.1596 92.2695 33.3437 92.3874 33.562C92.6954 34.0483 92.8414 34.6187 92.8048 35.1921C92.7521 36.4646 91.9317 37.4655 90.977 37.4226C90.9277 37.4291 90.8779 37.4307 90.8283 37.4274ZM91.308 33.1378H91.1929C90.994 33.1369 90.7978 33.1841 90.6214 33.2755C90.445 33.3668 90.2937 33.4995 90.1806 33.6621C89.8737 34.077 89.7059 34.5772 89.7009 35.092C89.6529 36.193 90.2478 37.1128 91.0298 37.1462C91.8118 37.1796 92.469 36.3169 92.5362 35.2397C92.5659 34.7365 92.4367 34.2367 92.1668 33.8099C92.0783 33.6418 91.9531 33.4955 91.8003 33.3817C91.6476 33.2679 91.4712 33.1895 91.284 33.1521L91.308 33.1378Z" fill="#EF873D"/>
<path d="M88.1099 35.0063L87.918 34.7584C88.2826 34.4818 89.1173 34.1242 89.6547 34.7584L89.4196 34.9587C88.935 34.3864 88.1435 34.9777 88.1099 35.0063Z" fill="#EF873D"/>
<path d="M78.1983 35.2357L77.9297 35.0831C78.0016 34.9591 78.6541 33.8623 79.3689 33.7813C80.0838 33.7002 83.6867 34.1675 83.8834 34.1961L83.8402 34.5013C82.3716 34.2804 80.8916 34.1419 79.4073 34.0865C78.9276 34.1532 78.3711 34.9496 78.1983 35.2357Z" fill="#EF873D"/>
<path d="M80.8876 34.7015C80.8876 34.7015 79.6499 31.9561 78.4265 32.3517C77.2032 32.7473 77.8124 36.4983 79.0166 37.2228C79.1648 37.3297 79.3336 37.4053 79.5124 37.4448C79.6912 37.4844 79.8763 37.487 80.0562 37.4526C80.2361 37.4182 80.4069 37.3475 80.5582 37.2448C80.7095 37.1422 80.8379 37.0098 80.9356 36.8558L80.8876 34.7015Z" fill="#D9A5A0"/>
<path d="M78.6289 33.4192V33.4526C79.4685 33.9911 79.7851 34.9253 79.9578 35.8356C79.9222 35.7348 79.865 35.6428 79.7901 35.5661C79.7152 35.4894 79.6245 35.4297 79.5242 35.3912C79.4238 35.3527 79.3163 35.3362 79.2089 35.343C79.1016 35.3498 78.997 35.3797 78.9024 35.4305C78.8974 35.4335 78.8933 35.4377 78.8904 35.4427C78.8876 35.4477 78.8861 35.4534 78.8861 35.4591C78.8861 35.4649 78.8876 35.4705 78.8904 35.4755C78.8933 35.4806 78.8974 35.4847 78.9024 35.4877C79.0718 35.4662 79.2438 35.4979 79.3943 35.5782C79.5448 35.6585 79.6664 35.7835 79.7419 35.9357C79.8685 36.1913 79.9666 36.4598 80.0346 36.7364C80.0634 36.827 80.2169 36.8079 80.2025 36.7364C80.4424 35.5592 79.8523 33.7719 78.6289 33.4192Z" fill="#263238"/>
<path d="M88.3787 25.3509C87.4811 24.764 86.5015 24.3112 85.4715 24.007C84.3153 23.6877 80.5588 23.4304 79.561 24.0403C78.5631 24.6503 77.8147 28.0911 77.7139 28.5963C77.6132 29.1014 77.3925 32.2086 78.4 33.1141C79.4075 34.0195 80.2902 28.825 82.3147 27.3381C84.3393 25.8513 88.3787 25.3509 88.3787 25.3509Z" fill="#EF873D"/>
<path opacity="0.1" d="M88.3736 25.351C88.3736 25.351 84.3341 25.8657 82.3096 27.3383C80.2851 28.8108 79.4071 34.0101 78.3949 33.1142C77.9487 32.7139 77.7808 32.1944 77.6992 31.3509C78.179 29.8593 79.1385 27.5813 80.6497 26.1087C82.0889 24.7458 84.2574 24.274 86.4978 24.3455C87.1504 24.6276 87.7779 24.964 88.3736 25.351Z" fill="black"/>
<path d="M78.2513 36.2595C78.5583 34.8822 80.5301 31.3652 82.3387 29.4447C84.1474 27.5241 88.7242 26.9237 89.3335 27.0619C90.8111 27.3621 91.2525 27.8863 91.5067 27.7862C91.761 27.6862 90.3889 26.3566 90.0099 26.042C89.6309 25.7275 88.5707 24.9793 87.9326 24.8983C87.2945 24.8173 83.2311 24.6314 81.528 26.1135C79.8249 27.5956 77.0711 32.0419 77.2678 33.3096C77.3158 33.6146 77.6756 33.8576 77.7475 34.2913C77.8339 34.8584 77.8531 35.5017 77.9634 35.9021C78.0402 36.2166 78.2225 36.3786 78.2513 36.2595Z" fill="#EF873D"/>
<path d="M78.4446 34.8683C78.4206 34.7587 78.3678 34.6634 78.3343 34.5585C78.293 34.4413 78.2656 34.3198 78.2527 34.1963C78.2584 33.9612 78.2375 33.7261 78.1903 33.4957C78.1244 33.3162 78.0374 33.145 77.9313 32.9857C77.7996 32.8116 77.7319 32.598 77.7394 32.3804C77.7394 32.3518 77.6962 32.3422 77.6914 32.3804C77.6959 32.7833 77.8032 33.1785 78.0032 33.529C78.0587 33.7767 78.0924 34.0286 78.104 34.2821C78.1265 34.5183 78.2258 34.7409 78.387 34.916C78.3942 34.9186 78.4019 34.9193 78.4094 34.9181C78.4169 34.9168 78.4239 34.9136 78.4297 34.9087C78.4356 34.9039 78.44 34.8976 78.4426 34.8905C78.4453 34.8834 78.4459 34.8758 78.4446 34.8683Z" fill="#263238"/>
<path d="M79.1514 33.4346C78.905 33.1036 78.7183 32.7324 78.5997 32.3378C78.5374 32.1519 78.4942 31.9564 78.4366 31.7656C78.3791 31.5749 78.2687 31.3221 78.2111 31.0933H78.168C78.2255 31.3317 78.2447 31.5701 78.2975 31.8181C78.3459 32.0234 78.4068 32.2257 78.4798 32.4237C78.5485 32.6142 78.6353 32.7978 78.7389 32.9721C78.8363 33.1557 78.9701 33.3179 79.1323 33.4489L79.1514 33.4346Z" fill="#263238"/>
<path d="M79.8594 32.1478C79.6012 31.8624 79.3863 31.5411 79.2214 31.1941C79.063 30.8507 78.9287 30.4979 78.7944 30.145C78.7944 30.1212 78.7416 30.145 78.7464 30.145C78.8104 30.5336 78.9216 30.9131 79.0774 31.2751C79.1572 31.4442 79.2553 31.6041 79.3701 31.752C79.5037 31.9086 79.655 32.0494 79.821 32.1716C79.821 32.1716 79.8786 32.1716 79.8594 32.1478Z" fill="#263238"/>
<path d="M80.6015 30.9469C80.4706 30.8242 80.3633 30.6788 80.2849 30.5177C80.189 30.3461 80.093 30.1696 80.0066 29.9884C79.9203 29.8072 79.8291 29.6499 79.7476 29.4782C79.6507 29.3097 79.5903 29.1229 79.5701 28.9298C79.5701 28.9298 79.5269 28.9012 79.5221 28.9298C79.5105 29.1225 79.5382 29.3155 79.6037 29.4973C79.6653 29.7013 79.7456 29.8992 79.8435 30.0886C79.9369 30.275 80.0427 30.455 80.1602 30.6274C80.2535 30.7908 80.3962 30.9209 80.568 30.9994C80.6015 30.9946 80.6351 30.9469 80.6015 30.9469Z" fill="#263238"/>
<path d="M81.2409 29.3309C81.1305 29.1879 81.0202 29.04 80.9242 28.8874C80.8283 28.7348 80.7323 28.5775 80.6412 28.4106C80.55 28.2437 80.4541 28.0816 80.3677 27.9337C80.3677 27.9051 80.3198 27.9337 80.3246 27.9337C80.3725 28.1195 80.435 28.3013 80.5117 28.4773C80.5907 28.6419 80.6805 28.8012 80.7803 28.9542C80.8783 29.1202 80.9873 29.2795 81.1065 29.431C81.2179 29.5832 81.3561 29.7141 81.5143 29.8173C81.5431 29.8173 81.5719 29.8173 81.5623 29.7744C81.4701 29.6164 81.3624 29.4679 81.2409 29.3309Z" fill="#263238"/>
<path d="M84.0121 27.9064C83.9056 27.7143 83.7887 27.528 83.6619 27.3485C83.5271 27.1664 83.383 26.9914 83.2301 26.824C82.9418 26.4963 82.6203 26.1991 82.2706 25.937C82.2466 25.937 82.2131 25.937 82.2322 25.9704C82.8127 26.6284 83.422 27.2674 83.9929 27.9302L84.0121 27.9064Z" fill="#263238"/>
<path d="M85.0334 26.8385C84.9195 26.6492 84.7826 26.4746 84.6256 26.3187C84.2911 25.9982 83.9209 25.7166 83.5222 25.4795C83.4982 25.4795 83.4694 25.4795 83.4934 25.5176C83.8196 25.8085 84.1555 26.0994 84.4529 26.4094C84.6069 26.5604 84.7526 26.7196 84.8895 26.8862C85.0286 27.0531 85.1245 27.2486 85.2493 27.425H85.2829C85.2395 27.2151 85.1547 27.0157 85.0334 26.8385Z" fill="#263238"/>
<path d="M86.2821 26.4621C86.1772 26.2797 86.0534 26.1087 85.9127 25.9519C85.6429 25.6609 85.3269 25.4161 84.9772 25.2271C84.9532 25.2271 84.9292 25.2271 84.9484 25.2652C85.2617 25.5178 85.5508 25.7988 85.8119 26.1045C85.9463 26.257 86.0662 26.4144 86.1957 26.5813C86.3253 26.7482 86.4164 26.9246 86.5555 27.0582C86.4848 26.8508 86.3932 26.6511 86.2821 26.4621Z" fill="#263238"/>
<path d="M87.2169 25.8896C87.0874 25.7514 86.9531 25.6178 86.8139 25.4843C86.6837 25.3479 86.5333 25.2321 86.3678 25.141C86.3438 25.141 86.3246 25.141 86.3438 25.1791C86.598 25.4509 86.8235 25.7227 87.0922 25.9946C87.3006 26.2641 87.4822 26.5532 87.6343 26.8577H87.6631C87.615 26.4979 87.4596 26.1608 87.2169 25.8896Z" fill="#263238"/>
<path d="M88.3041 25.8184C88.0698 25.5281 87.7815 25.2853 87.4549 25.1031C87.4549 25.1031 87.4069 25.127 87.4549 25.1413C87.7436 25.3575 87.999 25.6146 88.2129 25.9043C88.429 26.1899 88.6124 26.4986 88.7598 26.8246H88.7934C88.7128 26.4554 88.5451 26.1105 88.3041 25.8184Z" fill="#263238"/>
<path d="M89.613 26.6575C89.5885 26.5797 89.5596 26.5033 89.5267 26.4286C89.4535 26.2796 89.3668 26.1375 89.2676 26.0042C89.0563 25.7409 88.8201 25.4982 88.5624 25.2794C88.5624 25.2794 88.5096 25.2794 88.5336 25.3176C88.7807 25.5347 88.9998 25.7813 89.1861 26.0519C89.2778 26.1824 89.3595 26.3195 89.4307 26.462C89.4643 26.5335 89.4979 26.6051 89.5267 26.6766C89.5496 26.7503 89.5785 26.8221 89.613 26.8912H89.6562C89.6549 26.8114 89.6403 26.7325 89.613 26.6575Z" fill="#263238"/>
<path d="M90.4267 26.8383C90.3644 26.7186 90.2955 26.6024 90.2204 26.4902C90.1422 26.3787 90.0572 26.272 89.9661 26.1707C89.875 26.0658 89.779 25.9656 89.6879 25.856C89.6879 25.856 89.6303 25.856 89.6543 25.8893C89.7484 25.9932 89.8335 26.1049 89.9086 26.2231L90.1292 26.5522L90.3451 26.8812C90.4219 26.9956 90.4794 27.1196 90.5658 27.2245H90.5994C90.557 27.0896 90.499 26.96 90.4267 26.8383Z" fill="#263238"/>
<path d="M75.5982 48.4498C71.3381 55.5982 63.8588 73.2881 66.7421 77.0434C70.6184 82.0616 83.0535 88.2902 87.0642 88.9002C88.7961 89.1671 93.0754 76.1618 91.3819 75.3945C89.3382 74.4747 77.9826 69.4327 77.949 68.756C77.9154 68.0793 79.4986 59.8634 79.868 52.8341C80.247 44.6516 77.9394 44.5325 75.5982 48.4498Z" fill="#D9A5A0"/>
<path d="M88.5418 75.4946C88.5418 75.4946 93.819 74.6225 97.2588 74.2127C99.1778 73.9839 102.536 73.8838 104.038 74.3604C106.278 75.0705 115.187 79.4739 114.156 81.6422C113.225 83.6057 106.057 78.8591 106.057 78.8591C106.057 78.8591 113.733 83.01 112.16 85.1688C110.586 87.3276 103.222 80.8797 103.222 80.8797C103.222 80.8797 110.994 85.326 109.037 87.299C107.554 88.7906 100.535 83.3388 100.535 83.3388C100.535 83.3388 107.19 87.2037 105.736 88.8049C104.124 90.573 97.3308 85.9456 97.3308 85.9456C92.9363 89.3911 89.4245 89.2481 86.9394 88.8478C86.3398 88.762 88.5418 75.4946 88.5418 75.4946Z" fill="#D9A5A0"/>
<path d="M103.503 77.2532C104.419 77.7298 105.355 78.1636 106.228 78.6831C107.101 79.2026 107.955 79.7841 108.775 80.3989C109.862 81.1801 110.855 82.082 111.735 83.087C110.042 81.4141 106.938 79.4504 106.07 78.9166C105.201 78.3828 104.352 77.8061 103.484 77.2675C103.46 77.2723 103.479 77.2389 103.503 77.2532Z" fill="#263238"/>
<path d="M101.504 80.3507C102.65 80.9846 103.811 81.5708 104.929 82.2572C106.047 82.9435 107.04 83.687 108.1 84.4305C108.182 84.4877 108.1 84.5116 108.038 84.4591C106.949 83.749 105.884 83.1723 104.78 82.4764C103.677 81.7806 102.607 81.0466 101.485 80.3793C101.465 80.365 101.485 80.3412 101.504 80.3507Z" fill="#263238"/>
<path d="M99.2987 82.7049C101.081 83.6322 102.762 84.739 104.317 86.0079C104.394 86.0698 104.317 86.0936 104.23 86.0365C102.585 84.9069 101.299 84.0061 99.2699 82.7669C99.2363 82.7478 99.2603 82.6858 99.2987 82.7049Z" fill="#263238"/>
<path d="M79.2771 61.4123H67.1875C67.1875 61.4123 73.3379 49.6985 76.1252 46.7628C79.258 43.4555 80.275 45.7716 80.4429 50.0988C80.6109 54.4259 79.2771 61.4123 79.2771 61.4123Z" fill="#EF873D"/>
<path opacity="0.1" d="M79.2771 61.4123H67.1875C67.1875 61.4123 73.3379 49.6985 76.1252 46.7628C79.258 43.4555 80.275 45.7716 80.4429 50.0988C80.6109 54.4259 79.2771 61.4123 79.2771 61.4123Z" fill="black"/>
<path d="M78.9804 59.3776C78.5582 59.3153 74.7922 59.2913 73.9718 59.3057C73.1515 59.3201 69.8028 59.3345 68.9585 59.4208C68.9508 59.4208 68.9435 59.4239 68.9381 59.4293C68.9327 59.4347 68.9297 59.442 68.9297 59.4496C68.9297 59.4572 68.9327 59.4646 68.9381 59.47C68.9435 59.4754 68.9508 59.4784 68.9585 59.4784C69.8028 59.5552 73.1803 59.5456 74.015 59.5504C74.8498 59.5552 78.5774 59.4976 78.99 59.4304C79.0188 59.4256 79.0092 59.3824 78.9804 59.3776Z" fill="#263238"/>
<path d="M127.597 56.2034C128.077 58.2335 129.742 61.0071 129.583 62.5416C129.559 62.9222 129.411 63.2847 129.162 63.575C128.913 63.8653 128.576 64.0678 128.202 64.1524C128.202 64.1524 129.535 65.2342 129.161 66.6067C128.969 67.312 127.66 67.6265 127.66 67.6265C127.66 67.6265 128.691 68.5415 128.283 69.7377C127.952 70.6908 126.695 70.8624 126.695 70.8624C126.695 70.8624 127.271 72.1967 126.623 73.0641C125.309 74.8226 116.803 72.9116 116.198 69.5042C115.915 67.9172 117.969 68.4939 117.969 68.4939C117.969 68.4939 115.22 66.9546 115.57 65.2008C115.92 63.4471 118.54 64.3621 118.54 64.3621C118.54 64.3621 115.891 62.8466 116.438 61.0643C116.985 59.2819 119.475 60.5877 119.475 60.5877C119.475 60.5877 117.873 58.8912 118.611 57.6235C119.825 55.5314 123.471 59.3153 125.443 59.2962L126.287 56.3177L127.597 56.2034Z" fill="#D9A5A0"/>
<path d="M128.513 59.2162C128.244 57.2525 129.736 56.7711 130.014 54.8837C130.326 52.7818 127.745 52.7675 126.311 56.2087L125.438 59.2924L128.513 59.2162Z" fill="#D9A5A0"/>
<path d="M126.491 70.9342C126.497 70.9342 126.503 70.9367 126.508 70.9412C126.512 70.9457 126.515 70.9517 126.515 70.958C126.515 70.9644 126.512 70.9704 126.508 70.9749C126.503 70.9794 126.497 70.9819 126.491 70.9819C123.424 71.0393 120.413 70.17 117.855 68.4892C117.774 68.4367 117.831 68.2795 117.932 68.3271C120.643 69.6029 123.526 70.4811 126.491 70.9342Z" fill="#263238"/>
<path d="M127.687 67.6652C127.72 67.6652 127.716 67.7272 127.687 67.7272C124.645 67.7606 120.999 66.7072 118.428 64.429C118.337 64.3527 118.337 64.1955 118.428 64.2765C120.265 65.6634 124.895 67.2839 127.687 67.6652Z" fill="#263238"/>
<path d="M119.359 60.3589C121.912 62.4512 124.886 63.5141 128.096 64.1718C128.134 64.1718 128.12 64.2385 128.096 64.2385C126.436 64.3434 124.435 63.7095 122.919 63.0851C121.503 62.5326 120.256 61.6225 119.302 60.4446C119.225 60.4018 119.283 60.316 119.359 60.3589Z" fill="#263238"/>
<path d="M115.414 45.2804L137.003 44.9087C138.101 44.8952 139.19 45.1094 140.201 45.5378C141.211 45.9661 142.12 46.5991 142.87 47.3963C146.094 50.799 149.016 56.389 151.798 64.4858L130.209 64.8575C127.427 56.756 124.505 51.1754 121.281 47.7728C120.532 46.975 119.623 46.3412 118.612 45.9121C117.602 45.4829 116.513 45.2678 115.414 45.2804Z" fill="#EBEBEB"/>
<path d="M131.324 61.4473C133.857 61.3514 136.395 61.3178 138.928 61.2554C141.461 61.1931 143.994 61.1739 146.527 61.1787C143.994 61.2746 141.461 61.3082 138.928 61.3754C136.395 61.4425 133.862 61.4473 131.324 61.4473Z" fill="#A6A6A6"/>
<path d="M147.662 61.5798C147.547 61.2842 147.427 60.979 147.316 60.6643V60.607H147.374L148.415 60.5498H148.463V60.5927L148.756 61.5464V61.6084H148.693C148.319 61.5989 147.969 61.5893 147.662 61.5798ZM147.662 61.5798C148.022 61.5512 148.362 61.5226 148.703 61.5083L148.655 61.5655L148.343 60.6118L148.401 60.6499C148.055 60.6499 147.71 60.6499 147.36 60.6786L147.403 60.6213C147.47 60.9361 147.547 61.2508 147.662 61.5798Z" fill="#A6A6A6"/>
<path d="M148.253 61.2029C148.131 61.1139 148.014 61.0184 147.903 60.9168H147.98C147.875 61.244 147.728 61.5565 147.543 61.8466C147.622 61.5162 147.739 61.1961 147.893 60.8929L147.927 60.8262L147.97 60.8786C148.071 60.9692 148.147 61.0789 148.253 61.2029Z" fill="#EF873D"/>
<path d="M130.527 59.3269C133.06 59.2309 135.598 59.2021 138.131 59.1349C140.664 59.0678 143.197 59.063 145.745 59.063C143.212 59.1589 140.679 59.1925 138.146 59.2549C135.613 59.3173 133.065 59.3364 130.527 59.3269Z" fill="#A6A6A6"/>
<path d="M146.857 59.4779C146.742 59.187 146.622 58.8818 146.512 58.5623V58.5099H146.569L147.61 58.4526H147.658V58.5003L147.951 59.454V59.516H147.889C147.543 59.5017 147.188 59.4922 146.857 59.4779ZM146.857 59.4779L147.898 59.4063L147.85 59.4683L147.538 58.5146L147.596 58.5575C147.251 58.5575 146.905 58.5575 146.555 58.5862L146.598 58.5289C146.708 58.8389 146.766 59.1536 146.857 59.4779Z" fill="#A6A6A6"/>
<path d="M147.468 59.1009C147.345 59.0151 147.228 58.9211 147.118 58.8196H147.194C147.088 59.1464 146.942 59.4588 146.758 59.7495C146.836 59.4188 146.953 59.0987 147.108 58.7958L147.142 58.729L147.185 58.7815C147.286 58.8625 147.377 58.9817 147.468 59.1009Z" fill="#EF873D"/>
<path d="M129.738 57.2298C132.271 57.1338 134.809 57.1051 137.342 57.0379C139.875 56.9707 142.408 56.9563 144.941 56.9659C142.408 57.0619 139.875 57.0907 137.342 57.1578C134.809 57.225 132.276 57.2394 129.738 57.2298Z" fill="#A6A6A6"/>
<path d="M146.068 57.3813C145.953 57.0904 145.833 56.7805 145.723 56.4658V56.4133H145.747C146.097 56.3847 146.442 56.3752 146.788 56.3561H146.836V56.399L147.128 57.3527V57.4147H147.066C146.749 57.4051 146.399 57.3908 146.068 57.3813ZM146.068 57.3813C146.428 57.3527 146.768 57.3241 147.109 57.3098L147.061 57.3718L146.749 56.4181L146.807 56.461C146.461 56.461 146.116 56.4848 145.766 56.4848L145.809 56.4276C145.9 56.7423 145.977 57.0523 146.068 57.3813Z" fill="#A6A6A6"/>
<path d="M146.683 57.0042C146.561 56.9153 146.444 56.8198 146.332 56.7181H146.409C146.305 57.0531 146.158 57.3735 145.973 57.6718C146.051 57.3412 146.168 57.021 146.323 56.7181L146.356 56.6514L146.4 56.7038C146.5 56.7658 146.592 56.885 146.683 57.0042Z" fill="#EF873D"/>
<path d="M128.754 55.1329C131.287 55.0369 133.82 55.0034 136.353 54.941C138.886 54.8786 141.424 54.8594 143.957 54.8642C141.424 54.9602 138.891 54.9938 136.358 55.0609C133.825 55.1281 131.292 55.1377 128.754 55.1329Z" fill="#A6A6A6"/>
<path d="M145.08 55.2843C144.965 54.9886 144.845 54.6834 144.734 54.3687V54.3115H144.787C145.133 54.2876 145.483 54.2733 145.828 54.2543H145.871V54.2972L146.164 55.2509V55.3081H146.102C145.747 55.3033 145.411 55.2938 145.08 55.2843ZM145.08 55.2843C145.44 55.2557 145.78 55.227 146.116 55.2127L146.073 55.27L145.756 54.3163L145.819 54.3544C145.473 54.3544 145.123 54.383 144.778 54.383L144.816 54.3258C144.907 54.6405 144.989 54.9552 145.08 55.2843Z" fill="#A6A6A6"/>
<path d="M145.691 54.9073C145.569 54.8184 145.452 54.7229 145.34 54.6212H145.417C145.308 54.9468 145.161 55.2589 144.98 55.5511C145.059 55.2207 145.177 54.9006 145.331 54.5974L145.364 54.5306L145.407 54.5831C145.508 54.6689 145.599 54.7738 145.691 54.9073Z" fill="#EF873D"/>
<path d="M127.652 53.0313C130.185 52.9353 132.718 52.9065 135.252 52.8394C137.785 52.7722 140.318 52.7626 142.856 52.7674C140.322 52.8634 137.785 52.8969 135.252 52.9593C132.718 53.0217 130.185 53.0409 127.652 53.0313Z" fill="#A6A6A6"/>
<path d="M143.978 53.1825C143.868 52.8916 143.743 52.5864 143.633 52.2669V52.2145H143.695C144.041 52.1906 144.386 52.1763 144.731 52.1572H144.779V52.2049L145.067 53.1586V53.2206H145.005C144.664 53.2063 144.314 53.1968 143.978 53.1825ZM143.978 53.1825L145.019 53.1109L144.976 53.1729L144.659 52.2192L144.717 52.2621C144.372 52.2621 144.026 52.286 143.676 52.2907L143.719 52.2335C143.834 52.5435 143.892 52.8677 143.978 53.1825Z" fill="#A6A6A6"/>
<path d="M144.581 52.8104C144.463 52.7214 144.348 52.626 144.236 52.5243H144.312C144.204 52.8509 144.056 53.1631 143.871 53.4542C143.949 53.1235 144.067 52.8034 144.221 52.5005L144.255 52.4337L144.303 52.4862C144.401 52.5894 144.494 52.6976 144.581 52.8104Z" fill="#EF873D"/>
<path d="M126.223 50.8248C128.756 50.7288 131.289 50.7 133.827 50.6329C136.365 50.5657 138.893 50.5513 141.426 50.5609C138.893 50.6569 136.36 50.6856 133.827 50.7528C131.294 50.82 128.761 50.8344 126.223 50.8248Z" fill="#A6A6A6"/>
<path d="M142.552 50.9619C142.437 50.671 142.317 50.361 142.207 50.0463V49.9939H142.265C142.61 49.9653 142.96 49.9557 143.306 49.9366H143.354V49.9796L143.646 50.9333V50.9953H143.584C143.234 51 142.869 50.9857 142.552 50.9619ZM142.552 50.9619C142.912 50.9333 143.253 50.9047 143.589 50.8903L143.546 50.9523L143.234 49.9986L143.291 50.0368C142.946 50.0368 142.596 50.0654 142.25 50.0654L142.293 50.0082C142.389 50.3372 142.461 50.6471 142.552 50.9619Z" fill="#A6A6A6"/>
<path d="M143.167 50.5993C143.045 50.5103 142.928 50.4148 142.817 50.3131H142.894C142.789 50.6403 142.642 50.9528 142.457 51.243C142.535 50.9123 142.652 50.592 142.807 50.2893L142.841 50.2225L142.884 50.275C142.984 50.3781 143.078 50.4863 143.167 50.5993Z" fill="#EF873D"/>
<path d="M124.543 48.6183C127.076 48.5224 129.609 48.4888 132.142 48.4216C134.675 48.3545 137.213 48.3449 139.746 48.3497C137.213 48.4456 134.68 48.4792 132.147 48.5416C129.614 48.6039 127.076 48.6231 124.543 48.6183Z" fill="#A6A6A6"/>
<path d="M140.873 48.7648C140.758 48.474 140.638 48.1688 140.527 47.8541V47.7968H140.585C140.93 47.7968 141.281 47.7587 141.626 47.7396H141.669V47.7825L141.962 48.7362V48.7982H141.909C141.554 48.7887 141.204 48.7792 140.873 48.7648ZM140.873 48.7648C141.233 48.7648 141.573 48.7124 141.909 48.6981L141.866 48.7553L141.549 47.8016L141.612 47.8445L140.571 47.8731L140.609 47.8159C140.7 48.1259 140.782 48.4406 140.873 48.7648Z" fill="#A6A6A6"/>
<path d="M141.483 48.3928C141.364 48.3006 141.249 48.2052 141.137 48.1067H141.214C141.107 48.4405 140.96 48.7606 140.777 49.0604C140.856 48.73 140.974 48.4099 141.128 48.1067L141.161 48.0399L141.204 48.0924C141.302 48.1876 141.395 48.2879 141.483 48.3928Z" fill="#EF873D"/>
<path d="M121.949 46.4074C124.482 46.3115 127.015 46.2827 129.548 46.2155C132.081 46.1483 134.619 46.134 137.152 46.1436C134.619 46.2395 132.086 46.2683 129.553 46.3354C127.02 46.4026 124.482 46.417 121.949 46.4074Z" fill="#A6A6A6"/>
<path d="M138.271 46.5584C138.156 46.2675 138.036 45.9624 137.926 45.6429V45.5904H137.983C138.329 45.5666 138.679 45.5523 139.024 45.5332H139.034V45.5761L139.327 46.5298V46.5918H139.264C138.952 46.5823 138.602 46.568 138.271 46.5584ZM138.271 46.5584C138.631 46.5298 138.972 46.5012 139.307 46.4869L139.264 46.5489L138.948 45.5952L139.01 45.6381L137.969 45.6667L138.007 45.6047C138.098 45.9194 138.18 46.2294 138.271 46.5584Z" fill="#A6A6A6"/>
<path d="M138.873 46.1956C138.755 46.1066 138.64 46.0113 138.528 45.9095H138.605C138.496 46.2429 138.349 46.5628 138.168 46.8632C138.246 46.5326 138.364 46.2124 138.518 45.9095L138.552 45.8428L138.595 45.8952C138.693 45.9904 138.786 46.0907 138.873 46.1956Z" fill="#EF873D"/>
<path d="M115.638 45.2805L137.226 44.9088C134.391 44.9565 131.575 46.6673 129.742 49.1979C125.06 55.6648 121.054 75.7518 120.862 88.0756C120.795 92.2837 122.498 99.575 124.307 107.295C126.705 117.465 129.378 128.988 128.874 136.804C128.495 142.689 126.734 149.752 124.873 157.225C123.256 163.691 121.591 170.382 120.646 176.93C119.528 184.708 120.483 193.91 122.604 195.854C123.164 196.406 123.828 196.841 124.558 197.136C125.289 197.43 126.071 197.578 126.859 197.57L105.27 197.947C104.483 197.953 103.702 197.805 102.972 197.511C102.243 197.216 101.579 196.781 101.02 196.231C98.8945 194.287 97.9398 185.084 99.0576 177.302C100.017 170.759 101.672 164.068 103.284 157.601C105.146 150.124 106.906 143.066 107.29 137.18C107.77 129.365 105.098 117.837 102.718 107.667C100.909 99.9515 99.2063 92.6554 99.2735 88.4521C99.4654 76.1283 103.471 56.046 108.154 49.5696C109.986 47.039 112.802 45.333 115.638 45.2805Z" fill="#DBDBDB"/>
<path d="M138.302 172.155L159.891 171.784C155.252 171.865 149.816 177.898 144.059 184.289C138.187 190.798 132.162 197.484 126.87 197.575L105.281 197.951C110.558 197.856 116.599 191.175 122.471 184.66C128.223 178.274 133.663 172.236 138.302 172.155Z" fill="#C7C7C7"/>
<path d="M111.348 196.791C113.881 196.695 116.414 196.661 118.947 196.594C121.48 196.527 124.013 196.512 126.546 196.522C124.013 196.618 121.48 196.647 118.947 196.714C116.414 196.781 113.881 196.791 111.348 196.791Z" fill="#A6A6A6"/>
<path d="M127.191 196.951C127.316 196.651 127.436 196.327 127.575 195.998V195.974H127.604C127.978 195.974 128.352 195.974 128.727 195.974H128.823L128.779 196.06L128.328 197.013V197.042H128.295L127.191 196.951ZM127.191 196.951H128.304L128.261 196.98L128.688 196.026L128.741 196.112C128.367 196.112 127.993 196.112 127.618 196.112L127.662 196.088L127.191 196.951Z" fill="#A6A6A6"/>
<path d="M128.189 196.537C128.132 196.453 128.08 196.365 128.036 196.274H128.113C127.833 196.594 127.525 196.888 127.191 197.152C127.445 196.807 127.731 196.488 128.045 196.198L128.103 196.146V196.217C128.141 196.321 128.17 196.428 128.189 196.537Z" fill="#EF873D"/>
<path d="M113.695 195.032C116.228 194.936 118.761 194.902 121.295 194.835C123.828 194.768 126.361 194.754 128.899 194.763C126.365 194.859 123.832 194.888 121.299 194.955C118.766 195.022 116.228 195.037 113.695 195.032Z" fill="#A6A6A6"/>
<path d="M129.543 195.178C129.663 194.878 129.783 194.554 129.927 194.225V194.201H129.956C130.33 194.201 130.704 194.201 131.078 194.201H131.174L131.136 194.287L130.685 195.24V195.269H130.656L129.543 195.178ZM129.543 195.178H130.651L130.608 195.207L131.035 194.253L131.088 194.339C130.714 194.339 130.339 194.339 129.965 194.339L130.008 194.315L129.543 195.178Z" fill="#A6A6A6"/>
<path d="M130.536 194.764C130.48 194.679 130.429 194.591 130.383 194.501H130.464C130.185 194.821 129.876 195.115 129.543 195.379C129.795 195.034 130.079 194.715 130.392 194.425L130.45 194.373V194.444C130.488 194.548 130.517 194.655 130.536 194.764Z" fill="#EF873D"/>
<path d="M116.051 193.259C118.584 193.163 121.117 193.13 123.65 193.063C126.183 192.996 128.721 192.981 131.254 192.991C128.721 193.087 126.188 193.115 123.655 193.183C121.122 193.25 118.589 193.264 116.051 193.259Z" fill="#A6A6A6"/>
<path d="M131.895 193.406C132.019 193.105 132.134 192.781 132.278 192.452V192.428H132.312C132.686 192.428 133.06 192.428 133.435 192.428H133.53L133.487 192.514L133.036 193.468V193.496H133.008L131.895 193.406ZM131.895 193.406H133.003L132.96 193.434L133.387 192.481L133.444 192.567C133.07 192.567 132.696 192.567 132.321 192.567L132.36 192.543L131.895 193.406Z" fill="#A6A6A6"/>
<path d="M118.148 191.487C120.677 191.391 123.215 191.357 125.748 191.29C128.281 191.223 130.814 191.208 133.347 191.218C130.814 191.314 128.281 191.343 125.748 191.41C123.215 191.477 120.682 191.491 118.148 191.487Z" fill="#A6A6A6"/>
<path d="M133.992 191.633C134.117 191.332 134.237 191.008 134.376 190.679V190.655H134.405C134.779 190.655 135.153 190.655 135.527 190.655H135.623L135.58 190.741L135.129 191.695V191.723H135.096L133.992 191.633ZM133.992 191.633H135.105L135.062 191.661L135.489 190.708L135.542 190.794C135.168 190.794 134.793 190.794 134.419 190.794L134.458 190.77L133.992 191.633Z" fill="#A6A6A6"/>
<path d="M120.051 189.713C122.584 189.617 125.122 189.584 127.655 189.517C130.188 189.45 132.721 189.435 135.254 189.44C132.721 189.541 130.188 189.569 127.655 189.637C125.122 189.704 122.589 189.718 120.051 189.713Z" fill="#A6A6A6"/>
<path d="M135.902 189.86C136.027 189.56 136.147 189.235 136.286 188.906V188.883H136.32C136.694 188.883 137.068 188.883 137.442 188.883H137.538L137.495 188.968L137.044 189.922V189.951H137.015L135.902 189.86ZM135.902 189.86H137.015L136.972 189.889L137.399 188.935L137.452 189.021C137.078 189.021 136.704 189.021 136.329 189.021L136.368 188.997L135.902 189.86Z" fill="#A6A6A6"/>
<path d="M121.613 187.941C124.146 187.845 126.679 187.811 129.212 187.744C131.746 187.677 134.283 187.663 136.816 187.667C134.283 187.768 131.75 187.797 129.217 187.864C126.684 187.931 124.151 187.946 121.613 187.941Z" fill="#A6A6A6"/>
<path d="M137.465 188.087C137.59 187.787 137.705 187.463 137.849 187.134V187.11H137.882C138.256 187.11 138.631 187.11 139.005 187.11H139.101L139.058 187.191L138.607 188.145V188.173H138.578L137.465 188.087ZM137.465 188.087H138.573L138.53 188.116L138.957 187.162L139.014 187.248C138.64 187.248 138.266 187.248 137.892 187.248L137.93 187.224L137.465 188.087Z" fill="#A6A6A6"/>
<path d="M123.383 186.168C125.916 186.072 128.449 186.039 130.982 185.971C133.515 185.904 136.053 185.89 138.586 185.895C136.053 185.995 133.52 186.024 130.987 186.091C128.454 186.158 125.921 186.173 123.383 186.168Z" fill="#A6A6A6"/>
<path d="M139.223 186.305C139.347 186.004 139.463 185.68 139.606 185.351H139.64C140.014 185.351 140.388 185.351 140.763 185.351H140.859L140.815 185.432L140.364 186.386V186.414H140.336L139.223 186.305ZM139.223 186.305H140.331L140.288 186.333L140.715 185.38L140.772 185.466C140.398 185.466 140.024 185.466 139.65 185.466L139.688 185.442L139.223 186.305Z" fill="#A6A6A6"/>
<path d="M125.02 184.4C127.553 184.304 130.086 184.27 132.619 184.203C135.152 184.136 137.69 184.122 140.223 184.126C137.69 184.227 135.157 184.256 132.624 184.323C130.09 184.39 127.553 184.4 125.02 184.4Z" fill="#A6A6A6"/>
<path d="M140.867 184.542C140.987 184.241 141.107 183.917 141.251 183.588V183.564H141.28C141.654 183.564 142.033 183.564 142.407 183.564H142.498L142.46 183.645L142.009 184.599V184.627H141.98L140.867 184.542ZM140.867 184.542H141.975L141.932 184.57L142.359 183.616L142.417 183.702C142.038 183.702 141.664 183.702 141.289 183.702L141.333 183.678L140.867 184.542Z" fill="#A6A6A6"/>
<path d="M126.559 182.622C129.087 182.526 131.625 182.493 134.158 182.426C136.691 182.358 139.224 182.344 141.757 182.349C139.224 182.45 136.691 182.478 134.158 182.546C131.625 182.613 129.087 182.627 126.559 182.622Z" fill="#A6A6A6"/>
<path d="M142.391 182.769C142.515 182.468 142.635 182.144 142.774 181.815H142.803C143.177 181.815 143.552 181.815 143.926 181.815H144.022L143.979 181.896L143.528 182.85V182.878H143.494L142.391 182.769ZM142.391 182.769H143.504H143.46L143.887 181.815L143.94 181.901C143.566 181.901 143.192 181.901 142.818 181.901L142.856 181.877L142.391 182.769Z" fill="#A6A6A6"/>
<path d="M128.242 180.85C130.775 180.754 133.308 180.72 135.841 180.653C138.374 180.586 140.908 180.571 143.445 180.576C140.912 180.677 138.374 180.706 135.841 180.773C133.308 180.84 130.775 180.854 128.242 180.85Z" fill="#A6A6A6"/>
<path d="M144.086 180.996C144.211 180.696 144.331 180.372 144.47 180.043V180.014H144.499C144.873 180.014 145.247 180.014 145.621 180.014H145.717L145.679 180.095L145.228 181.049V181.077H145.194L144.086 180.996ZM144.086 180.996H145.199L145.156 181.02L145.583 180.066L145.636 180.152C145.261 180.152 144.887 180.152 144.513 180.152L144.556 180.128L144.086 180.996Z" fill="#A6A6A6"/>
<path d="M129.641 179.077C132.174 178.981 134.707 178.947 137.24 178.88C139.773 178.813 142.311 178.799 144.844 178.803C142.311 178.904 139.778 178.933 137.245 179C134.712 179.067 132.178 179.082 129.641 179.077Z" fill="#A6A6A6"/>
<path d="M145.48 179.219C145.605 178.923 145.72 178.599 145.864 178.265V178.236H145.898C146.272 178.236 146.646 178.236 147.02 178.236H147.116L147.073 178.317L146.622 179.271V179.3H146.593L145.48 179.219ZM145.48 179.219H146.589H146.546L146.972 178.265L147.03 178.351C146.656 178.351 146.282 178.351 145.907 178.351H145.946L145.48 179.219Z" fill="#A6A6A6"/>
<path d="M131.359 177.304C133.892 177.208 136.43 177.175 138.963 177.107C141.496 177.04 144.03 177.026 146.563 177.031C144.03 177.131 141.496 177.16 138.963 177.227C136.43 177.294 133.907 177.309 131.359 177.304Z" fill="#A6A6A6"/>
<path d="M147.211 177.446C147.336 177.15 147.456 176.826 147.595 176.492V176.463H147.624C147.998 176.463 148.372 176.463 148.746 176.463H148.842L148.799 176.544L148.348 177.498V177.527H148.319L147.211 177.446ZM147.211 177.446H148.324L148.281 177.469L148.708 176.516L148.761 176.602C148.386 176.602 148.012 176.602 147.638 176.602L147.676 176.578L147.211 177.446Z" fill="#A6A6A6"/>
<path d="M133.445 175.531C135.978 175.435 138.511 175.401 141.045 175.334C143.578 175.267 146.111 175.253 148.649 175.258C146.115 175.358 143.578 175.387 141.045 175.454C138.511 175.521 135.978 175.536 133.445 175.531Z" fill="#A6A6A6"/>
<path d="M149.293 175.673C149.418 175.377 149.538 175.053 149.677 174.719V174.691H149.706C150.08 174.691 150.454 174.691 150.828 174.691H150.924L150.886 174.772L150.435 175.725V175.754H150.401L149.293 175.673ZM149.293 175.673H150.406H150.363L150.79 174.719L150.843 174.805C150.468 174.805 150.094 174.805 149.72 174.805H149.763L149.293 175.673Z" fill="#A6A6A6"/>
<path d="M135.395 173.758C137.928 173.662 140.461 173.629 142.994 173.562C145.527 173.495 148.06 173.48 150.593 173.485C148.065 173.586 145.527 173.615 142.994 173.682C140.461 173.749 137.928 173.763 135.395 173.758Z" fill="#A6A6A6"/>
<path d="M151.23 173.914C151.355 173.619 151.475 173.295 151.614 172.961V172.932H151.643C152.017 172.932 152.391 172.932 152.766 172.932H152.862L152.823 173.018L152.372 173.972V174H152.339L151.23 173.914ZM151.23 173.914H152.343L152.3 173.938L152.727 172.985L152.78 173.07C152.406 173.07 152.032 173.07 151.657 173.07L151.701 173.047L151.23 173.914Z" fill="#A6A6A6"/>
<path d="M138.293 172.165L159.882 171.793C166.027 171.684 169.86 178.603 173.569 185.289C176.822 191.156 179.897 196.703 184.2 196.627L162.611 197.003C158.294 197.075 155.233 191.532 151.98 185.666C148.272 178.975 144.439 172.06 138.293 172.165Z" fill="#EBEBEB"/>
<path d="M181.298 191.871L202.886 191.494C198.19 191.575 195.345 192.924 192.596 194.244C190.096 195.441 187.731 196.565 184.21 196.627L162.621 197.004C166.147 196.942 168.508 195.817 171.007 194.621C173.756 193.31 176.601 191.952 181.298 191.871Z" fill="#C7C7C7"/>
<path d="M170.215 196.033C172.426 195.937 174.643 195.903 176.855 195.836C179.066 195.769 181.283 195.754 183.499 195.764C181.287 195.86 179.071 195.889 176.859 195.956C174.648 196.023 172.426 196.037 170.215 196.033Z" fill="#A6A6A6"/>
<path d="M184.129 196.179C184.249 195.879 184.369 195.555 184.513 195.225V195.202H184.541C184.916 195.202 185.29 195.202 185.664 195.202H185.76L185.722 195.287L185.271 196.241V196.27H185.242L184.129 196.179ZM184.129 196.179H185.237L185.194 196.208L185.621 195.254L185.674 195.34C185.299 195.34 184.925 195.34 184.551 195.34L184.594 195.316L184.129 196.179Z" fill="#A6A6A6"/>
<path d="M173.723 194.594C176.016 194.498 178.309 194.469 180.602 194.402C182.895 194.335 185.189 194.32 187.487 194.325C185.193 194.421 182.895 194.455 180.602 194.522C178.309 194.589 176.016 194.603 173.723 194.594Z" fill="#A6A6A6"/>
<path d="M188.129 194.74C188.254 194.444 188.374 194.12 188.513 193.786V193.758H188.541C188.916 193.758 189.29 193.758 189.664 193.758H189.76L189.722 193.843L189.271 194.797V194.83H189.237L188.129 194.74ZM188.129 194.74H189.242L189.199 194.764L189.626 193.81L189.678 193.891H188.556L188.599 193.862L188.129 194.74Z" fill="#A6A6A6"/>
<path d="M177.625 193.259C179.918 193.163 182.211 193.13 184.505 193.063C186.798 192.996 189.091 192.981 191.389 192.991C189.096 193.087 186.803 193.115 184.509 193.183C182.216 193.25 179.918 193.264 177.625 193.259Z" fill="#A6A6A6"/>
<path d="M192.035 193.406C192.155 193.105 192.275 192.781 192.419 192.452V192.428H192.448C192.822 192.428 193.196 192.428 193.57 192.428H193.666L193.628 192.514L193.177 193.468V193.496H193.148L192.035 193.406ZM192.035 193.406H193.143L193.1 193.434L193.527 192.481L193.58 192.567C193.206 192.567 192.832 192.567 192.457 192.567L192.501 192.543L192.035 193.406Z" fill="#A6A6A6"/>
<path d="M181.293 191.871L202.882 191.494C205.156 191.456 216.722 196.589 217.212 196.809L195.623 197.18C195.134 196.961 183.572 191.833 181.293 191.871Z" fill="#EBEBEB"/>
</svg>
