<svg width="256" height="212" viewBox="0 0 256 212" fill="none" xmlns="http://www.w3.org/2000/svg">
<path fill-rule="evenodd" clip-rule="evenodd" d="M130.123 12.3717C152.538 13.863 179.905 -3.79861 195.869 11.8076C212.458 28.0259 189.271 58.0378 198.493 79.2125C209.499 104.485 255.647 112.923 251.769 140.164C248.16 165.521 207.643 163.314 184.797 175.435C166.077 185.367 150.836 200.012 130.123 204.705C104.626 210.481 76.5467 217.507 53.568 205.166C29.6949 192.345 18.0081 165.316 9.39679 139.869C0.7251 114.243 -4.20658 86.4578 4.75929 60.9308C13.6324 35.668 32.3936 12.3751 57.6067 2.60887C80.8866 -6.40852 105.171 10.7117 130.123 12.3717Z" fill="#FCE7D8" fill-opacity="0.44"/>
<path d="M28 135.066L53.0012 134.889L78.0024 134.832L128 134.711L177.998 134.825L202.999 134.889L228 135.066L202.999 135.236L177.998 135.3L128 135.42L78.0024 135.3L53.0012 135.236L28 135.066Z" fill="#263238"/>
<path d="M63.3619 22.2412C71.4735 29.8975 77.0497 49.8108 72.9405 62.3798C68.0408 77.352 54.6237 84.994 43.6207 81.4495C33.6504 78.231 29.2279 68.1787 32.8955 60.6997C36.4564 53.4829 43.2077 50.8387 44.4611 44.3947C45.0593 41.318 44.0267 36.2139 44.283 31.5776C44.7388 23.1628 57.0308 16.2864 63.3619 22.2412Z" fill="#263238"/>
<path d="M31.5547 62.4295C31.9822 60.8635 32.6474 59.3718 33.5274 58.0058C34.3654 56.6737 35.36 55.4457 36.49 54.3479C37.6152 53.2632 38.7191 52.1432 39.7873 50.9735C40.8866 49.789 41.8427 48.4804 42.636 47.0744C43.0471 46.3453 43.3927 45.5815 43.6686 44.7917C43.9184 43.9691 44.0667 43.1193 44.1101 42.2609C44.1616 40.5682 44.1236 38.8739 43.9962 37.1851C43.887 35.5272 43.9682 33.8623 44.2383 32.2228C44.6237 30.6117 45.2811 29.0776 46.1825 27.6857C45.1766 29.0222 44.4258 30.5312 43.9677 32.1377C43.6283 33.7978 43.4873 35.492 43.5475 37.1851C43.5475 38.8723 43.6971 40.5596 43.5475 42.1971C43.4926 43.0007 43.3445 43.7952 43.106 44.5649C42.8316 45.3005 42.4957 46.0119 42.1018 46.6916C40.5778 49.4918 38.2775 51.654 36.1268 53.9509C35.0266 55.1165 34.0703 56.4088 33.2781 57.8003C32.4576 59.2412 31.8757 60.8043 31.5547 62.4295Z" fill="#263238"/>
<path d="M122.039 195.946C120.365 195.336 82.5921 165.285 81.8799 163.236C81.6093 162.457 85.6829 156.729 90.8033 149.944C91.9072 148.477 93.0609 146.967 94.236 145.443C101.87 135.518 110.203 125.218 110.203 125.218L135.527 145.244L118.87 164.924L115.216 169.248C115.216 169.248 124.474 187.191 125.044 189.523C125.614 191.855 123.712 196.555 122.039 195.946Z" fill="#EB996E"/>
<path d="M122.039 195.946C120.365 195.336 82.592 165.285 81.8798 163.237C81.5522 162.287 87.6341 154.021 94.2359 145.443L118.87 164.924L115.216 169.248C115.216 169.248 124.474 187.191 125.044 189.523C125.614 191.855 123.712 196.555 122.039 195.946Z" fill="white"/>
<path d="M122.039 195.946C120.365 195.336 82.5921 165.285 81.8799 163.237C81.6093 162.457 85.6829 156.729 90.8033 149.944L115.216 169.269C115.216 169.269 124.474 187.212 125.044 189.544C125.614 191.877 123.712 196.555 122.039 195.946Z" fill="#EF873D"/>
<path d="M122.716 194.01C116.506 188.821 90.9747 168.49 84.4441 163.804C84.3872 163.761 84.3587 163.804 84.4085 163.804C90.4477 169.085 116.143 189.239 122.63 194.081C122.766 194.216 122.844 194.124 122.716 194.01Z" fill="#263238"/>
<path d="M123.7 186.241C123.011 185.662 122.209 185.231 121.345 184.978C120.481 184.724 119.573 184.652 118.679 184.766C117.067 184.955 115.592 185.758 114.562 187.006C114.562 187.042 114.605 187.098 114.641 187.063C115.858 185.986 117.394 185.332 119.017 185.197C120.64 185.063 122.263 185.457 123.643 186.319C123.653 186.323 123.664 186.323 123.675 186.32C123.686 186.317 123.695 186.311 123.702 186.302C123.708 186.293 123.712 186.282 123.711 186.271C123.711 186.26 123.707 186.249 123.7 186.241Z" fill="#263238"/>
<path d="M117.172 171.828C114.665 169.773 111.012 168.326 107.779 169.142C107.658 169.142 107.7 169.347 107.779 169.369C110.923 169.974 113.993 170.913 116.937 172.169C116.983 172.2 117.038 172.212 117.092 172.202C117.147 172.192 117.194 172.161 117.226 172.116C117.257 172.07 117.269 172.015 117.259 171.961C117.249 171.907 117.218 171.86 117.172 171.828Z" fill="#263238"/>
<path d="M118.524 174.14C116.017 172.091 112.364 170.645 109.13 171.453C109.009 171.488 109.052 171.665 109.13 171.687C112.275 172.293 115.345 173.231 118.289 174.487C118.335 174.518 118.392 174.529 118.447 174.519C118.501 174.508 118.55 174.476 118.581 174.43C118.612 174.384 118.623 174.328 118.613 174.273C118.602 174.219 118.57 174.171 118.524 174.14Z" fill="#263238"/>
<path d="M119.86 176.458C117.353 174.409 113.699 172.963 110.466 173.771C110.345 173.771 110.388 173.977 110.466 173.998C113.613 174.611 116.684 175.562 119.625 176.833C119.649 176.849 119.677 176.859 119.706 176.864C119.735 176.869 119.764 176.868 119.793 176.861C119.821 176.855 119.848 176.842 119.872 176.826C119.895 176.809 119.915 176.787 119.931 176.763C119.946 176.738 119.957 176.71 119.962 176.682C119.966 176.653 119.965 176.624 119.959 176.595C119.952 176.567 119.94 176.54 119.923 176.517C119.906 176.493 119.884 176.473 119.86 176.458Z" fill="#263238"/>
<path d="M121.215 178.776C118.708 176.72 115.055 175.274 111.829 176.082C111.7 176.117 111.75 176.295 111.829 176.316C114.973 176.921 118.043 177.86 120.987 179.116C121.032 179.146 121.088 179.157 121.141 179.146C121.195 179.136 121.242 179.105 121.272 179.059C121.302 179.014 121.313 178.959 121.302 178.906C121.292 178.853 121.26 178.806 121.215 178.776Z" fill="#263238"/>
<path d="M90.8569 159.096C88.0082 156.842 84.483 161.223 87.3388 163.506C90.1945 165.789 93.7126 161.358 90.8569 159.096Z" fill="white"/>
<path d="M125.309 167.27C124.882 165.193 122.46 164.945 120.758 165.413C117.904 166.274 115.327 167.868 113.288 170.035C113.277 170.043 113.269 170.053 113.263 170.065C113.258 170.076 113.255 170.089 113.255 170.102C113.255 170.115 113.258 170.128 113.263 170.14C113.269 170.152 113.277 170.162 113.288 170.17C113.262 170.225 113.249 170.286 113.25 170.348C113.251 170.409 113.267 170.47 113.295 170.524C113.323 170.579 113.363 170.626 113.413 170.663C113.462 170.7 113.519 170.725 113.58 170.737C116.386 170.928 119.355 171.481 122.126 170.808C123.764 170.418 125.722 169.269 125.309 167.27ZM117.895 170.163C116.514 170.099 115.147 169.971 113.765 169.957C115.225 169.064 116.614 168.107 118.195 167.355C118.937 166.985 119.703 166.662 120.488 166.391C121.706 166.001 125.886 165.867 123.935 168.816C122.859 170.439 119.541 170.233 117.895 170.163Z" fill="#263238"/>
<path d="M106.232 165.959C108.169 168.05 110.946 169.234 113.354 170.623C113.41 170.65 113.471 170.662 113.533 170.66C113.595 170.658 113.655 170.642 113.709 170.612C113.764 170.582 113.81 170.54 113.845 170.489C113.879 170.438 113.901 170.38 113.909 170.319C113.966 170.319 114.016 170.283 114.002 170.219C113.515 167.286 112.26 164.533 110.362 162.237C109.237 160.918 107.065 159.777 105.541 161.266C104.017 162.754 105.1 164.739 106.232 165.959ZM105.854 163.307C105.854 159.763 109.28 162.201 110.07 163.201C110.575 163.858 111.032 164.55 111.438 165.271C112.258 166.771 113.002 168.312 113.667 169.886C112.513 169.128 111.302 168.468 110.106 167.759C108.71 166.916 105.84 165.25 105.854 163.307Z" fill="#263238"/>
<path d="M161.117 106.736C159.386 119.83 126.933 157.643 123.208 161.982L122.354 162.967L95.5335 142.444L95.8397 142.047L119.462 111.266L49.0078 110.855L75.7567 90.1478C75.7567 90.1478 77.9288 91.3955 82.4368 90.7362C97.9904 88.4748 133.043 83.4557 141.311 83.7889C151.972 84.2 162.712 94.7132 161.117 106.736Z" fill="#37474F"/>
<path d="M127.94 99.7961C127.067 100.785 126.254 101.824 125.505 102.908C124.672 104 123.824 105.077 122.991 106.169C123.14 105.85 123.283 105.531 123.44 105.212C123.967 104.128 124.387 103.007 125.006 101.972C125.012 101.96 125.014 101.946 125.01 101.933C125.007 101.92 124.999 101.909 124.987 101.901C124.976 101.893 124.963 101.89 124.949 101.891C124.936 101.893 124.923 101.899 124.914 101.909C124.273 102.944 123.532 103.922 122.984 105.007C122.72 105.517 122.478 106.027 122.272 106.552C122.151 106.843 122.022 107.133 121.908 107.424C121.851 107.561 121.801 107.7 121.759 107.842C121.381 108.346 121.047 108.856 120.655 109.373C119.857 110.522 119.159 111.734 118.355 112.868C118.312 112.932 118.405 112.989 118.454 112.932C119.266 111.862 120.178 110.862 121.011 109.799C121.844 108.735 122.649 107.608 123.44 106.488C124.23 105.368 124.964 104.298 125.733 103.199C126.578 102.123 127.356 100.996 128.062 99.8244C128.033 99.8315 127.976 99.7961 127.94 99.7961Z" fill="#263238"/>
<path d="M63.2684 65.6195C67.0785 72.9 81.6778 96.1948 89.8535 97.1377C95.2161 97.7544 116.204 93.6357 119.387 88.2834C120.761 85.9511 116.574 71.0356 113.804 71.9146C111.033 72.7937 94.2475 76.6927 92.0968 76.2957C89.9461 75.8987 72.5194 59.4874 66.231 55.6026C55.3919 48.9105 61.2174 61.6992 63.2684 65.6195Z" fill="#EB996E"/>
<path d="M107.275 71.4396L109.981 94.2027C109.981 94.2027 93.466 98.9028 86.0097 96.8399C76.9438 94.3374 62.259 67.7745 60.2008 63.4147C56.8252 56.2122 57.3522 51.6964 61.554 52.533C63.1919 52.8449 65.3783 53.9508 68.113 56.0775C70.9616 58.2751 87.491 72.6589 92.5829 75.2181C95.4245 76.721 107.275 71.4396 107.275 71.4396Z" fill="#455A64"/>
<path d="M107.276 71.4396L109.982 94.2099C109.982 94.2099 107.24 94.9897 103.487 95.7695C98.0319 96.9108 90.4332 98.0592 86.0106 96.8399C76.9519 94.3375 62.2599 67.7746 60.2018 63.4077C57.7591 58.2043 57.3531 54.3974 58.927 53.008C59.2962 52.7251 59.7278 52.5339 60.186 52.4501C60.6442 52.3663 61.1159 52.3923 61.562 52.5259C63.1858 52.8449 65.3792 53.9437 68.1139 56.0705C70.9626 58.2681 87.4848 72.659 92.5768 75.2536C95.4254 76.7281 107.276 71.4396 107.276 71.4396Z" fill="#EF873D"/>
<path d="M105.773 94.1248C105.267 90.7717 103.722 76.9833 103.594 73.9775C103.594 73.772 103.715 73.7153 103.75 73.9279C105.495 83.9378 105.581 90.7858 105.887 94.0964C105.908 94.1815 105.78 94.2099 105.773 94.1248Z" fill="#263238"/>
<path d="M60.1949 63.4148C62.246 67.803 76.945 94.3517 85.9966 96.847C88.2328 97.4638 91.288 97.4709 94.4643 97.1944L60.9926 52.455C60.627 52.396 60.253 52.4155 59.8956 52.5121C59.5381 52.6087 59.2056 52.7802 58.9202 53.0151C57.3534 54.4258 57.738 58.2114 60.1949 63.4148Z" fill="#263238"/>
<path d="M35.0469 108.076L77.8907 97.1802L73.6675 81.7826C73.6675 81.7826 77.0574 76.9549 75.6117 72.347C74.3298 68.2424 64.559 56.0421 62.5863 54.4045C59.2035 51.6185 53.1501 50.6827 49.8385 54.5746C36.1792 70.6031 35.0469 108.076 35.0469 108.076Z" fill="#EF873D"/>
<path opacity="0.1" d="M60.2366 52.9584L48.842 55.794C49.1624 55.3757 49.49 54.9717 49.8248 54.5747L50.0598 54.3124L58.2354 52.2991C58.9223 52.4538 59.5926 52.6746 60.2366 52.9584ZM62.9215 54.7094L46.8408 58.7289C46.7696 58.8494 46.6912 58.9699 46.6271 59.0904L63.1707 54.9575L62.9215 54.7094ZM64.9938 56.9921L45.0533 61.9544C44.8325 62.394 44.6117 62.8477 44.3981 63.3014L65.82 57.9704C65.5351 57.623 65.2573 57.2969 64.9938 56.9921ZM67.4508 59.9837L43.1589 66.0519L43.0165 66.3922L67.6573 60.246L67.4508 59.9837ZM69.2668 62.3302L41.9625 69.1499C41.8058 69.5847 41.6562 70.0171 41.5138 70.4472L70.0004 63.3581C69.7725 62.9895 69.5161 62.6563 69.2668 62.3302ZM71.5102 65.3785L40.6521 73.0843C40.6123 73.191 40.579 73.2998 40.5524 73.4104L71.6739 65.6124C71.6312 65.5557 71.5671 65.4706 71.5102 65.3785ZM73.1339 67.7675L39.7904 76.0972C39.6835 76.5155 39.5696 76.9408 39.4556 77.3591L73.7891 68.7883C73.5826 68.4622 73.3689 68.122 73.1339 67.7675ZM74.9998 70.9151L38.8289 79.9466C38.8289 80.0529 38.7791 80.1664 38.7506 80.2727L75.1351 71.1845C75.0972 71.0913 75.0519 71.0012 74.9998 70.9151ZM75.8757 73.4884L38.1738 82.9028L37.9174 84.1504L75.9683 74.651C75.9691 74.2616 75.9381 73.8728 75.8757 73.4884ZM37.4189 86.6954C37.4189 86.8018 37.3761 86.9152 37.3619 87.0215L75.5837 77.4796C75.5837 77.3662 75.6407 77.2598 75.6621 77.1464L37.4189 86.6954ZM36.9203 89.6161C36.8563 90.0344 36.7922 90.4456 36.7352 90.8496L73.7677 81.5983C74.0506 81.1538 74.3097 80.6948 74.544 80.2231L36.9203 89.6161ZM74.2306 83.9094L36.3791 93.3663L36.3364 93.6853L74.3303 84.2001L74.2306 83.9094ZM74.9428 86.5253L36.0301 96.2515C35.9803 96.6698 35.9304 97.0739 35.8877 97.4709L75.2704 87.6312L74.9428 86.5253ZM75.8686 89.9068L35.6242 99.9592C35.6242 100.065 35.6242 100.172 35.6242 100.278L76.0039 90.1974L75.8686 89.9068ZM76.5808 92.5227L35.3749 102.816C35.3749 103.241 35.3109 103.645 35.2824 104.021L76.9155 93.6286L76.5808 92.5227ZM77.5066 95.8971L35.1328 106.488C35.1328 106.595 35.1328 106.701 35.1328 106.8L77.6419 96.1665L77.5066 95.8971Z" fill="black"/>
<path d="M68.3002 60.721C69.3756 62.0537 70.5435 63.3298 71.6545 64.6413C71.1631 63.6771 70.6717 62.7201 70.1376 61.8056C70.1376 61.8056 70.1376 61.7702 70.1376 61.8056C70.9415 62.914 71.6288 64.1018 72.1886 65.3502C73.0239 66.333 73.7856 67.3756 74.4675 68.4694C75.3135 69.7422 75.9215 71.1568 76.2622 72.6449C76.5301 74.1603 76.4645 75.7155 76.0699 77.2032C75.5954 78.9262 74.9612 80.6017 74.1755 82.2081C74.0758 82.4207 73.7554 82.2648 73.8337 82.0521C74.8877 79.2165 76.077 76.2249 75.607 73.1836C75.137 70.1424 73.3423 67.562 71.5904 65.1021C70.5541 63.5925 69.4218 62.1504 68.2005 60.7848C68.1506 60.7352 68.2575 60.6643 68.3002 60.721Z" fill="#263238"/>
<path d="M67.337 79.7623C65.3773 80.4722 63.473 81.3252 61.6397 82.3144C60.7352 82.8248 59.8664 83.3636 59.0047 83.9307C58.5703 84.2143 58.1359 84.4766 57.6943 84.7389C57.2514 85.0339 56.7728 85.2721 56.27 85.4478C56.2605 85.4478 56.2515 85.4516 56.2448 85.4582C56.2381 85.4649 56.2344 85.4739 56.2344 85.4833C56.2344 85.4927 56.2381 85.5017 56.2448 85.5083C56.2515 85.515 56.2605 85.5187 56.27 85.5187C56.7683 85.4141 57.2586 85.2743 57.737 85.1004C58.1937 84.9151 58.6384 84.7021 59.0688 84.4624C59.9875 83.9591 60.8777 83.4133 61.7964 82.9028C63.6409 81.8678 65.4783 80.8328 67.394 79.9325C67.4937 79.8758 67.4296 79.7269 67.337 79.7623Z" fill="#263238"/>
<path d="M72.7528 80.2018C71.0507 80.472 69.365 80.8365 67.7036 81.2936C66.8703 81.5204 66.0656 81.7969 65.2609 82.1017C64.8763 82.2435 64.4988 82.3924 64.1214 82.5484C63.7439 82.7043 63.3024 82.9453 62.8893 83.1084C62.8395 83.1084 62.8893 83.1935 62.8893 83.1793C63.2953 83.0375 63.7154 82.9595 64.1285 82.839L65.3534 82.4775C66.1795 82.2364 66.9985 82.0025 67.8175 81.7685C69.4555 81.2723 71.0935 80.7973 72.7528 80.3507C72.881 80.3153 72.8454 80.1877 72.7528 80.2018Z" fill="#263238"/>
<path d="M54.1775 54.4613C54.4339 55.2269 58.6713 59.9624 62.2535 59.4591C63.4143 59.296 62.7947 52.9158 62.7947 52.9158L62.8588 52.4409L63.7205 45.6991L55.4666 41.4457L54.2844 40.8856C54.2844 40.8856 54.1704 42.7501 54.0493 45.0611V45.3943C54.0493 45.5219 54.0493 45.6495 54.0493 45.77C54.0493 46.1174 54.0066 46.4789 53.9924 46.8192C53.9781 47.1595 53.9924 47.3509 53.9924 47.6345V48.471C53.9164 50.4696 53.9782 52.4711 54.1775 54.4613Z" fill="#EB996E"/>
<path d="M54.0547 45.0682C54.8973 46.8601 56.1218 48.4478 57.6431 49.721C59.1645 50.9942 60.9461 51.9223 62.8642 52.4409L63.7259 45.6991L55.4719 41.4457L54.2897 40.8856C54.2897 40.8856 54.1758 42.7572 54.0547 45.0682Z" fill="#263238"/>
<path d="M72.1953 33.6618C75.2504 45.1887 68.6344 48.315 66.1632 48.9671C63.8985 49.5626 56.1004 51.2924 51.863 40.1412C47.6256 28.99 52.041 23.9426 57.1544 22.3121C62.2677 20.6816 69.133 22.142 72.1953 33.6618Z" fill="#EB996E"/>
<path d="M70.1303 33.1586C69.8551 33.1728 69.5794 33.1728 69.3042 33.1586C69.0122 33.1909 68.7175 33.1287 68.4638 32.9813C68.3939 32.9185 68.3463 32.8348 68.3283 32.7427C68.3103 32.6506 68.3229 32.5552 68.3641 32.4709C68.4733 32.3189 68.6213 32.1986 68.7929 32.1226C68.9644 32.0466 69.1532 32.0175 69.3398 32.0385C69.7257 32.0198 70.1045 32.1463 70.4009 32.3929C70.4598 32.4535 70.5005 32.5292 70.5186 32.6115C70.5367 32.6938 70.5314 32.7795 70.5033 32.859C70.4752 32.9385 70.4254 33.0086 70.3595 33.0615C70.2937 33.1144 70.2143 33.148 70.1303 33.1586Z" fill="#263238"/>
<path d="M61.9425 34.2998C62.2025 34.2082 62.4569 34.1017 62.7045 33.9808C62.987 33.9068 63.2373 33.7424 63.4167 33.513C63.4579 33.4286 63.4705 33.3332 63.4525 33.2412C63.4345 33.1491 63.387 33.0653 63.317 33.0025C63.1593 32.9009 62.9773 32.8427 62.7896 32.834C62.6019 32.8253 62.4153 32.8663 62.2487 32.9529C61.885 33.0748 61.5802 33.3277 61.3941 33.6618C61.3487 33.7417 61.3292 33.8335 61.338 33.9248C61.3469 34.0161 61.3838 34.1024 61.4437 34.1721C61.5036 34.2418 61.5836 34.2915 61.6729 34.3143C61.7621 34.3372 61.8562 34.3321 61.9425 34.2998Z" fill="#263238"/>
<path d="M64.0999 36.221C64.0999 36.221 64.0429 36.2777 64.05 36.3061C64.2494 37.093 64.342 38.0287 63.6797 38.4328C63.6797 38.4328 63.6797 38.4895 63.6797 38.4753C64.5485 38.1776 64.4132 36.937 64.0999 36.221Z" fill="#263238"/>
<path d="M63.2102 35.5475C61.907 35.7247 62.3556 38.3052 63.5663 38.1421C64.777 37.9791 64.2998 35.3986 63.2102 35.5475Z" fill="#263238"/>
<path d="M62.718 35.7743C62.5186 35.9586 62.3405 36.2564 62.0699 36.3273C61.7993 36.3982 61.4717 36.1855 61.2224 35.9586C61.2224 35.9586 61.1797 35.9586 61.1797 36.0012C61.2651 36.4974 61.5429 36.9653 62.0841 36.9511C62.6254 36.9369 62.8604 36.4336 62.896 35.9161C62.9031 35.8169 62.7963 35.6963 62.718 35.7743Z" fill="#263238"/>
<path d="M68.7751 35.1079C68.7751 35.1079 68.8392 35.1079 68.8463 35.1717C68.9531 35.9728 69.2166 36.8802 69.9858 37.022V37.0716C69.0813 37.0929 68.7466 35.8877 68.7751 35.1079Z" fill="#263238"/>
<path d="M69.3595 34.1581C70.6343 33.8462 71.1684 36.4124 69.9862 36.696C68.804 36.9795 68.2841 34.4204 69.3595 34.1581Z" fill="#263238"/>
<path d="M69.9232 34.2148C70.1582 34.307 70.4074 34.5126 70.6353 34.4771C70.8632 34.4417 71.0697 34.1156 71.1979 33.8178C71.1979 33.7824 71.1979 33.8178 71.2407 33.8178C71.3546 34.2999 71.2976 34.8457 70.849 35.0371C70.4003 35.2285 70.03 34.8599 69.8092 34.392C69.7878 34.3282 69.8448 34.1723 69.9232 34.2148Z" fill="#263238"/>
<path d="M65.5689 43.0194C65.7826 43.1895 66.0105 43.4235 66.2811 43.4093C66.5795 43.363 66.8654 43.2569 67.1214 43.0974C67.1214 43.0974 67.1784 43.0974 67.1642 43.0974C67.0691 43.27 66.9289 43.4139 66.7584 43.5138C66.5879 43.6136 66.3934 43.6657 66.1956 43.6645C66.0284 43.639 65.8722 43.5659 65.7458 43.4539C65.6194 43.3419 65.5283 43.1959 65.4835 43.0335C65.4407 43.0265 65.4977 42.9981 65.5689 43.0194Z" fill="#263238"/>
<path d="M68.343 39.5386C68.343 39.5386 68.7347 40.7012 68.8415 41.2613C68.8415 41.3109 68.7205 41.3676 68.5282 41.4101C68.0602 41.589 67.5517 41.6353 67.0589 41.5439C66.5661 41.4526 66.1084 41.2272 65.7365 40.8926C65.7266 40.8833 65.7204 40.8708 65.7191 40.8573C65.7177 40.8439 65.7211 40.8303 65.7289 40.8192C65.7366 40.8081 65.7481 40.8001 65.7613 40.7966C65.7744 40.7932 65.7884 40.7946 65.8006 40.8005C66.6132 41.1572 67.5196 41.2442 68.3858 41.0486C68.3858 40.8855 67.6736 39.0778 67.7377 39.0566C68.1842 39.0142 68.6344 39.0308 69.0766 39.1062C68.3644 36.6675 67.2107 34.3636 66.5128 31.9178C66.5061 31.8994 66.5067 31.8791 66.5144 31.861C66.5221 31.843 66.5364 31.8285 66.5544 31.8204C66.5723 31.8123 66.5927 31.8113 66.6114 31.8176C66.6301 31.8238 66.6457 31.8368 66.6552 31.854C67.939 34.2874 68.9744 36.8428 69.746 39.4819C69.8457 39.7796 68.5923 39.5741 68.343 39.5386Z" fill="#263238"/>
<path d="M51.9864 40.7864C52.7096 40.3282 53.3019 39.6922 53.7061 38.9397C54.1103 38.1871 54.3127 37.3435 54.2938 36.4904C56.2811 35.3549 57.9263 33.7098 59.0582 31.7265C59.0083 31.9817 58.6238 33.8107 58.403 34.7394C65.8166 32.4992 67.5258 26.4735 67.5258 26.4735C69.1194 27.6411 70.4289 29.1505 71.3572 30.89C71.3572 30.89 70.8943 26.2608 68.1668 23.4252C67.2734 22.4315 66.13 21.6929 64.8544 21.2854C63.5789 20.8779 62.2172 20.8164 60.9098 21.107C58.9906 20.8605 57.0401 21.1341 55.264 21.899C53.4879 22.6638 51.9521 23.8915 50.8184 25.4527C46.4885 31.3366 51.9864 40.7864 51.9864 40.7864Z" fill="#263238"/>
<path d="M64.0208 32.8608C62.8766 33.6577 61.6187 34.279 60.2891 34.7039C62.3528 33.8903 64.148 32.5205 65.4736 30.7482C66.0352 29.9912 66.4993 29.1672 66.8552 28.2954C67.2919 27.3584 67.5341 26.3433 67.5674 25.3109C67.5674 25.2329 67.6813 25.2329 67.6813 25.3109C67.763 26.3325 67.6715 27.3606 67.4107 28.3521C67.1043 29.3244 66.6216 30.2326 65.9864 31.0318C65.4191 31.7349 64.7577 32.3575 64.0208 32.882" fill="#263238"/>
<path d="M53.9509 40.5453C53.9509 40.5453 50.7391 37.3269 49.2222 38.5249C47.7053 39.723 50.5753 44.7066 52.6619 45.0965C52.9263 45.1647 53.2019 45.1788 53.472 45.1381C53.742 45.0973 54.001 45.0025 54.2333 44.8594C54.4655 44.7163 54.6663 44.5279 54.8234 44.3055C54.9805 44.0831 55.0907 43.8313 55.1474 43.5653L53.9509 40.5453Z" fill="#EB996E"/>
<path d="M50.0703 39.9357V39.9853C51.5445 40.3043 52.4917 41.4527 53.2252 42.6792C53.1202 42.5565 52.9898 42.4581 52.8428 42.3905C52.6959 42.323 52.536 42.288 52.3742 42.288C52.2123 42.288 52.0524 42.323 51.9055 42.3905C51.7585 42.4581 51.6281 42.5565 51.5231 42.6792C51.5231 42.6792 51.5231 42.7571 51.573 42.743C51.8014 42.6256 52.0607 42.581 52.3154 42.6153C52.5702 42.6495 52.8083 42.7609 52.9973 42.9344C53.3113 43.2301 53.593 43.558 53.8377 43.9127C53.9231 44.0261 54.1296 43.9127 54.0584 43.7851C53.7736 41.9915 51.986 39.7868 50.0703 39.9357Z" fill="#263238"/>
<path d="M44.8668 60.487C38.4573 70.4827 31.1221 86.4402 30.9226 97.7261C30.8229 103.234 40.3944 108.239 43.884 106.573C52.0739 102.639 63.4828 93.6073 67.9694 87.6525C69.5575 85.5257 52.6009 71.4113 51.3546 73.9351C50.1083 76.4588 49.3392 77.9333 48.0929 78.8974C47.4805 79.3724 51.084 71.9501 52.9 61.5575C55.3712 47.3722 47.1885 56.8645 44.8668 60.487Z" fill="#EB996E"/>
<path d="M64.7627 49.6903C64.7627 49.6903 62.1064 46.4151 64.4992 44.7988C66.8921 43.1825 68.9787 46.8263 68.9787 46.8263L64.7627 49.6903Z" fill="#FF91B4"/>
<path d="M68.8837 46.7136L64.6719 49.5746L81.4274 74.0159L85.6392 71.1549L68.8837 46.7136Z" fill="#EF873D"/>
<path opacity="0.2" d="M68.8837 46.7136L64.6719 49.5746L81.4274 74.0159L85.6392 71.1549L68.8837 46.7136Z" fill="black"/>
<path d="M69.1443 46.3341L64.2266 49.6747L64.8929 50.6467L69.8107 47.3061L69.1443 46.3341Z" fill="#37474F"/>
<path d="M69.8709 47.4093L64.9531 50.7499L65.6195 51.7219L70.5372 48.3813L69.8709 47.4093Z" fill="#37474F"/>
<path d="M85.6457 71.1277L86.13 75.2252L86.2938 76.5722L85.0831 75.9341L81.4297 73.9917V73.0985L82.2629 73.4246V72.5243L83.1033 72.8504V71.9572L83.9507 72.2762V71.383L84.7911 71.702V70.8087L85.6457 71.1277Z" fill="white"/>
<path d="M86.1328 75.2252L86.2966 76.5721L85.0859 75.9341L86.1328 75.2252Z" fill="#37474F"/>
<path d="M76.9069 53.6247C78.4238 55.7089 72.9473 58.9912 72.9473 58.9912C74.0588 58.9455 75.1509 59.292 76.0309 59.9695C77.5336 61.2314 76.2018 64.1237 76.2018 64.1237C77.3655 64.3155 78.4433 64.8544 79.2926 65.6691C80.603 67.0232 79.6772 70.1282 79.6772 70.1282C80.6482 70.8949 81.3083 71.985 81.536 73.1978C82.0202 76.4517 77.9182 79.4504 75.7461 81.811C73.4173 84.3348 68.8523 86.738 67.0861 88.5741L50.8203 75.2394C50.8203 75.2394 56.0262 62.082 60.5912 58.5375C63.1336 56.5525 74.5924 50.4417 76.9069 53.6247Z" fill="#EB996E"/>
<path d="M72.8548 58.9629C69.5361 60.1255 66.5094 62.0679 63.5967 63.982C63.5326 64.0245 63.5967 64.1238 63.6679 64.0812C66.5166 62.1459 69.9848 60.9266 72.926 59.1188C72.9468 59.1094 72.963 59.0922 72.971 59.0709C72.979 59.0497 72.9782 59.0261 72.9688 59.0054C72.9593 58.9847 72.942 58.9686 72.9206 58.9607C72.8993 58.9527 72.8756 58.9535 72.8548 58.9629Z" fill="#263238"/>
<path d="M75.9691 63.9606C75.2419 64.2992 74.562 64.7306 73.9465 65.2438C73.2344 65.74 72.5863 66.2575 71.924 66.7821C70.5851 67.8218 69.2771 68.9017 68 70.0218C67.943 70.0714 68 70.1636 68.0641 70.1211C69.3958 69.079 70.7418 68.0581 72.1234 67.0727C72.8356 66.5765 73.4979 66.0944 74.1958 65.6053C74.8799 65.2035 75.5176 64.728 76.0973 64.1875C76.1275 64.1705 76.1497 64.1424 76.1591 64.1091C76.1684 64.0759 76.1641 64.0403 76.1471 64.0102C76.1301 63.9802 76.1018 63.958 76.0684 63.9487C76.0351 63.9394 75.9993 63.9437 75.9691 63.9606Z" fill="#263238"/>
<path d="M79.6156 70.1706C78.9631 70.4853 78.3684 70.9071 77.8566 71.4183C77.2583 71.9075 76.6601 72.3966 76.0548 72.8787C74.8512 73.8428 73.6405 74.8069 72.4014 75.7143C72.3373 75.7569 72.4014 75.8561 72.4726 75.8136C73.7331 74.8778 75.015 73.9633 76.2684 73.0205C76.888 72.5597 77.5005 72.0918 78.1129 71.6026C78.7119 71.2242 79.2397 70.7444 79.6726 70.1848C79.6726 70.1848 79.6512 70.1635 79.6156 70.1706Z" fill="#263238"/>
<path d="M59.7031 59.3315C60.955 57.7957 62.6504 56.6797 64.5601 56.1343C64.6384 56.1343 64.6384 56.1343 64.5601 56.191C62.8231 57.0408 61.2008 58.1055 59.7316 59.3598L59.7031 59.3315Z" fill="#263238"/>
<path d="M68.7817 90.6228L51.0987 73.2899L48.3996 78.1601C48.3996 78.1601 52.4305 67.3209 53.456 61.4086C54.4815 55.4963 54.3106 48.5631 46.7759 57.4245C39.3978 66.1016 29.513 91.1332 30.0186 97.6197C30.5243 104.106 38.8139 108.034 42.9872 107.289C47.1604 106.545 68.7817 90.6228 68.7817 90.6228Z" fill="#EF873D"/>
<path d="M64.1474 92.4943C61.6762 90.162 51.9195 80.2514 49.954 77.9687C49.8187 77.8057 49.8899 77.6851 50.0537 77.834C57.624 84.6396 61.9326 89.9777 64.2329 92.3879C64.3041 92.4518 64.2257 92.551 64.1474 92.4943Z" fill="#263238"/>
<path d="M35.7493 95.7198C36.7036 94.0752 37.8146 92.4943 38.8757 90.9063C39.9368 89.3184 41.0122 87.7091 42.1232 86.1495C43.2342 84.5899 44.4448 83.0658 45.6413 81.5416C46.2324 80.776 47.3932 79.2873 47.9914 78.5287C48.5896 77.7702 48.6466 77.9474 48.084 78.7698C47.5214 79.5921 46.4389 81.0808 45.8977 81.8748C44.8365 83.4344 43.7612 85.0082 42.7 86.5465C41.6389 88.0849 40.4567 89.609 39.3244 91.1332C38.192 92.6573 37.0882 94.2736 35.8704 95.7765C35.8205 95.8403 35.7137 95.7907 35.7493 95.7198Z" fill="#263238"/>
<path d="M49.8597 72.7794C50.4722 70.9859 51.2128 69.2349 51.69 67.3775C51.69 67.3066 51.8253 67.335 51.8039 67.3775C51.4478 68.5898 51.1701 69.8162 50.8496 71.0355C50.883 70.9875 50.9139 70.9378 50.9422 70.8866C51.2199 70.4188 51.4906 69.9367 51.7541 69.4688C51.7897 69.405 51.8894 69.4688 51.8538 69.5326C51.6116 70.0218 51.3695 70.518 51.1416 71.0142C50.98 71.4235 50.7772 71.8154 50.5363 72.1839C50.4579 72.4462 50.3867 72.7086 50.3013 72.9708C49.7509 74.7722 49.0726 76.5324 48.2716 78.238C48.2576 78.2574 48.2374 78.2715 48.2144 78.2781C48.1914 78.2846 48.1668 78.2833 48.1446 78.2743C48.1225 78.2653 48.104 78.2492 48.0921 78.2285C48.0803 78.2077 48.0758 78.1837 48.0793 78.1601C48.6063 76.3594 49.2401 74.5588 49.8597 72.7794Z" fill="#263238"/>
<path d="M50.964 73.1906C51.021 73.0985 51.4554 73.5522 51.6762 73.7932C51.7118 73.8287 51.6762 73.8499 51.6121 73.7932C51.548 73.7365 51.3059 73.6231 51.1706 73.5097C50.7575 74.332 48.4643 78.2097 48.3219 78.3799C48.1795 78.55 48.1795 78.3799 48.2151 78.2806C48.3148 77.8765 50.4513 74.0342 50.964 73.1906Z" fill="#263238"/>
<path d="M48.7834 104.269C53.8825 100.562 59.0813 96.9746 64.4012 93.5789C65.8255 92.6432 67.2498 91.6436 68.6742 90.6724C68.5175 90.5731 67.0789 89.0561 67.0362 88.9993C66.9935 88.9426 67.0362 88.9284 67.0362 88.9568C67.2 89.0915 69.0374 90.5731 69.1727 90.7433C69.308 90.9134 63.8386 94.5218 61.2819 96.3224C58.7252 98.123 56.0404 99.8315 53.384 101.533C51.8742 102.497 50.3573 103.447 48.819 104.369C48.7763 104.404 48.7265 104.312 48.7834 104.269Z" fill="#263238"/>
<path d="M106.803 96.6556L80.1328 98.9525L89.6331 63.8188L116.304 61.522L106.803 96.6556Z" fill="#EBEBEB"/>
<path d="M108.639 96.4996L81.9609 98.7894L91.4612 63.6558L118.132 61.366L108.639 96.4996Z" fill="#EF873D"/>
<path d="M94.294 63.4148C94.1623 64.026 93.7938 64.561 93.2685 64.9035C93.0263 65.0595 92.9337 64.7334 93.1688 64.5845C93.5111 64.3643 93.7635 64.0301 93.8809 63.6416C93.9017 63.579 93.9184 63.5151 93.9308 63.4502C93.9885 63.2366 93.9885 63.0116 93.9308 62.798C93.9025 62.7086 93.8448 62.6312 93.767 62.5783H93.7314C93.7149 62.5819 93.6979 62.5819 93.6815 62.5783C93.6215 62.5578 93.5563 62.5578 93.4963 62.5783C93.3836 62.6319 93.284 62.7093 93.2044 62.8051C93.1103 62.9199 93.0313 63.0462 92.9693 63.1809C92.9693 63.2447 92.9053 63.3156 92.8696 63.3864V63.429V63.4999C92.8673 63.5163 92.8673 63.533 92.8696 63.5495L92.4922 63.5849C92.5613 63.3359 92.6644 63.0973 92.7984 62.876C92.8982 62.6947 93.0366 62.5373 93.2039 62.4149C93.3712 62.2924 93.5634 62.2079 93.767 62.1671C93.9165 62.1508 94.0667 62.1925 94.1861 62.2836C94.3055 62.3747 94.385 62.5082 94.4079 62.6562C94.434 62.9146 94.3948 63.1753 94.294 63.4148Z" fill="#455A64"/>
<path d="M96.3749 63.2375C96.2432 63.8488 95.8747 64.3837 95.3493 64.7263C95.1072 64.8822 95.0146 64.5561 95.2568 64.4072C95.5949 64.1827 95.8461 63.8501 95.9689 63.4644C95.9689 63.4006 96.0045 63.3297 96.0117 63.273C96.0691 63.0594 96.0691 62.8344 96.0117 62.6208C95.982 62.53 95.9216 62.4523 95.8407 62.401H95.7838C95.7237 62.381 95.6587 62.381 95.5986 62.401C95.4872 62.4503 95.3895 62.5257 95.3137 62.6208C95.179 62.8029 95.0666 63.0005 94.979 63.2092V63.2517C94.9773 63.2753 94.9773 63.299 94.979 63.3226C94.9759 63.339 94.9759 63.3558 94.979 63.3722H94.6016C94.6717 63.1235 94.7747 62.8851 94.9078 62.6633C95.0076 62.482 95.1459 62.3246 95.3132 62.2022C95.4806 62.0797 95.6727 61.9951 95.8763 61.9544C96.0259 61.938 96.176 61.9798 96.2955 62.0709C96.4149 62.162 96.4943 62.2955 96.5173 62.4436C96.5406 62.7161 96.4914 62.9899 96.3749 63.2375Z" fill="#455A64"/>
<path d="M98.4608 63.0603C98.332 63.669 97.9657 64.2019 97.4424 64.5419C97.2003 64.705 97.1006 64.3789 97.3427 64.2229C97.6788 63.9994 97.9296 63.6698 98.0549 63.2872C98.0725 63.2218 98.0867 63.1555 98.0976 63.0887C98.155 62.875 98.155 62.6501 98.0976 62.4365C98.0639 62.3479 98.0044 62.2713 97.9267 62.2167H97.8768C97.8107 62.2118 97.7445 62.224 97.6845 62.2521C97.5722 62.2999 97.4741 62.3756 97.3997 62.4719C97.3007 62.5832 97.2213 62.7102 97.1646 62.8476C97.1243 62.9125 97.0909 62.9814 97.0649 63.0532V63.1028C97.061 63.1263 97.061 63.1503 97.0649 63.1737C97.0649 63.1737 97.0649 63.1737 97.0649 63.2163L96.6875 63.2517C96.7576 63.003 96.8606 62.7646 96.9937 62.5428C97.0957 62.3633 97.2348 62.2072 97.4017 62.085C97.5686 61.9629 97.7597 61.8773 97.9623 61.8339C98.1126 61.8195 98.2627 61.8628 98.3819 61.9551C98.5011 62.0474 98.5803 62.1816 98.6032 62.3301C98.6192 62.5816 98.5702 62.833 98.4608 63.0603Z" fill="#455A64"/>
<path d="M100.543 62.8761C100.48 63.1789 100.358 63.4664 100.183 63.7219C100.008 63.9775 99.7843 64.196 99.5242 64.3648C99.282 64.5208 99.1823 64.1947 99.4245 64.0458C99.7647 63.8234 100.016 63.49 100.137 63.103C100.155 63.0401 100.169 62.9762 100.179 62.9116C100.237 62.6979 100.237 62.473 100.179 62.2594C100.148 62.1694 100.088 62.0921 100.008 62.0396H99.9728H99.923C99.8625 62.0226 99.7984 62.0226 99.7378 62.0396C99.624 62.0914 99.524 62.1691 99.4459 62.2664C99.3493 62.3795 99.2701 62.5061 99.2108 62.6422C99.1734 62.7086 99.1401 62.7772 99.1111 62.8478V62.8903V62.9612C99.1111 62.9612 99.1111 62.9612 99.1111 63.0108L98.7266 63.0463C98.7957 62.7972 98.8987 62.5587 99.0328 62.3373C99.1348 62.1578 99.2738 62.0018 99.4408 61.8796C99.6077 61.7574 99.7988 61.6718 100.001 61.6284C100.152 61.6119 100.303 61.6534 100.423 61.7444C100.544 61.8354 100.625 61.969 100.649 62.1176C100.678 62.3753 100.641 62.636 100.543 62.8761Z" fill="#455A64"/>
<path d="M102.64 62.6989C102.508 63.3101 102.14 63.845 101.614 64.1876C101.372 64.3435 101.272 64.0174 101.515 63.8686C101.855 63.6462 102.107 63.3128 102.227 62.9257C102.227 62.8619 102.262 62.791 102.269 62.7343C102.327 62.5207 102.327 62.2957 102.269 62.0821C102.242 61.9901 102.181 61.9117 102.099 61.8623H102.049C101.989 61.8418 101.924 61.8418 101.864 61.8623C101.75 61.9114 101.65 61.9867 101.572 62.0821C101.477 62.1994 101.398 62.328 101.337 62.4649C101.301 62.5287 101.272 62.5996 101.237 62.6705V62.713C101.231 62.7364 101.231 62.7606 101.237 62.7839C101.237 62.7839 101.237 62.7839 101.237 62.8335H100.859C100.925 62.5844 101.026 62.3457 101.158 62.1246C101.258 61.9433 101.397 61.7859 101.564 61.6635C101.731 61.541 101.923 61.4565 102.127 61.4157C102.278 61.3974 102.43 61.4382 102.551 61.5295C102.672 61.6209 102.752 61.7555 102.775 61.9049C102.801 62.1768 102.754 62.4506 102.64 62.6989Z" fill="#455A64"/>
<path d="M104.745 62.5215C104.613 63.1308 104.245 63.6634 103.72 64.0032C103.478 64.1662 103.378 63.8401 103.62 63.6841C103.958 63.4631 104.21 63.1326 104.332 62.7484C104.352 62.6831 104.369 62.6168 104.382 62.5499C104.44 62.3387 104.44 62.116 104.382 61.9048C104.356 61.8124 104.298 61.7322 104.218 61.6779H104.033C103.969 61.6722 103.905 61.6845 103.848 61.7134C103.733 61.7601 103.632 61.8358 103.556 61.9331C103.462 62.0479 103.383 62.1742 103.321 62.3089C103.321 62.3727 103.257 62.4436 103.221 62.5144V62.5641C103.218 62.5876 103.218 62.6114 103.221 62.6349C103.221 62.6349 103.221 62.635 103.221 62.6775H102.844C102.911 62.429 103.012 62.1906 103.143 61.9686C103.246 61.7896 103.385 61.634 103.552 61.5119C103.718 61.3898 103.909 61.3039 104.111 61.2597C104.263 61.2451 104.414 61.2882 104.534 61.3804C104.654 61.4725 104.735 61.6068 104.759 61.7559C104.819 62.0083 104.814 62.2715 104.745 62.5215Z" fill="#455A64"/>
<path d="M106.814 62.3444C106.68 62.9528 106.312 63.4846 105.788 63.826C105.546 63.982 105.454 63.6559 105.689 63.507C106.031 63.2869 106.283 62.9527 106.401 62.5642C106.422 62.5015 106.438 62.4376 106.451 62.3728C106.508 62.1592 106.508 61.9342 106.451 61.7206C106.422 61.6311 106.365 61.5537 106.287 61.5008H106.251H106.166C106.105 61.4839 106.041 61.4839 105.981 61.5008C105.867 61.5526 105.767 61.6303 105.689 61.7277C105.595 61.8425 105.516 61.9687 105.454 62.1034C105.418 62.1672 105.39 62.2381 105.354 62.309V62.3586C105.351 62.3798 105.351 62.4012 105.354 62.4224C105.352 62.4389 105.352 62.4556 105.354 62.472H104.977C105.042 62.2216 105.145 61.9826 105.283 61.7631C105.383 61.5818 105.521 61.4244 105.688 61.302C105.856 61.1795 106.048 61.0949 106.251 61.0542C106.401 61.0378 106.551 61.0796 106.67 61.1707C106.79 61.2618 106.869 61.3953 106.892 61.5434C106.936 61.8126 106.909 62.0885 106.814 62.3444Z" fill="#455A64"/>
<path d="M108.906 62.16C108.774 62.7713 108.406 63.3062 107.881 63.6487C107.638 63.8047 107.546 63.4786 107.788 63.3297C108.126 63.1052 108.377 62.7726 108.5 62.3869C108.5 62.3231 108.536 62.2522 108.543 62.1955C108.6 61.9818 108.6 61.7569 108.543 61.5433C108.513 61.4525 108.453 61.3748 108.372 61.3235H108.315C108.255 61.3035 108.19 61.3035 108.13 61.3235C108.018 61.3728 107.921 61.4482 107.845 61.5433C107.746 61.657 107.666 61.7863 107.61 61.9261C107.57 61.991 107.536 62.0599 107.51 62.1317V62.1742V62.2451C107.507 62.2615 107.507 62.2783 107.51 62.2947H107.133C107.204 62.0465 107.307 61.8083 107.439 61.5858C107.539 61.4045 107.677 61.2471 107.844 61.1247C108.012 61.0022 108.204 60.9176 108.408 60.8769C108.557 60.8605 108.707 60.9023 108.827 60.9934C108.946 61.0845 109.026 61.218 109.049 61.366C109.072 61.6386 109.023 61.9124 108.906 62.16Z" fill="#455A64"/>
<path d="M110.997 61.9827C110.868 62.5915 110.502 63.1244 109.979 63.4644C109.737 63.6274 109.637 63.3013 109.879 63.1524C110.214 62.9247 110.464 62.5933 110.591 62.2096C110.609 62.1442 110.623 62.078 110.634 62.0111C110.691 61.7999 110.691 61.5772 110.634 61.366C110.602 61.2744 110.542 61.195 110.463 61.1391H110.385C110.319 61.1343 110.252 61.1465 110.192 61.1746C110.08 61.2223 109.982 61.298 109.907 61.3943C109.81 61.5066 109.731 61.6333 109.672 61.7701C109.632 61.835 109.599 61.9039 109.573 61.9756V62.0253C109.57 62.0488 109.57 62.0726 109.573 62.0962C109.573 62.0962 109.573 62.0962 109.573 62.1387L109.195 62.1741C109.265 61.9254 109.368 61.687 109.502 61.4652C109.604 61.2857 109.743 61.1297 109.91 61.0075C110.076 60.8853 110.268 60.7997 110.47 60.7563C110.62 60.7419 110.771 60.7853 110.89 60.8776C111.009 60.9698 111.088 61.104 111.111 61.2526C111.132 61.5015 111.093 61.7519 110.997 61.9827Z" fill="#455A64"/>
<path d="M113.085 61.8055C112.956 62.4143 112.59 62.9472 112.067 63.2872C111.825 63.4431 111.725 63.117 111.967 62.9682C112.305 62.7436 112.556 62.4111 112.679 62.0253C112.698 61.9625 112.712 61.8986 112.722 61.8339C112.779 61.6203 112.779 61.3953 112.722 61.1817C112.691 61.0917 112.631 61.0145 112.551 60.9619H112.501C112.441 60.945 112.377 60.945 112.316 60.9619C112.202 61.0137 112.102 61.0914 112.024 61.1888C111.927 61.3018 111.848 61.4284 111.789 61.5645C111.751 61.6309 111.718 61.6996 111.689 61.7701V61.8197C111.685 61.8432 111.685 61.8672 111.689 61.8906C111.689 61.8906 111.689 61.8906 111.689 61.9331L111.305 61.9686C111.374 61.7195 111.477 61.481 111.611 61.2597C111.713 61.0801 111.852 60.9241 112.019 60.8019C112.186 60.6797 112.377 60.5942 112.579 60.5508C112.729 60.5344 112.879 60.5761 112.999 60.6673C113.118 60.7584 113.197 60.8919 113.22 61.0399C113.244 61.3025 113.197 61.5666 113.085 61.8055Z" fill="#455A64"/>
<path d="M115.171 61.6213C115.039 62.2325 114.671 62.7675 114.146 63.11C113.903 63.266 113.804 62.9398 114.046 62.791C114.386 62.5686 114.638 62.2352 114.758 61.8481C114.776 61.7851 114.79 61.7212 114.801 61.6567C114.858 61.4431 114.858 61.2182 114.801 61.0045C114.773 60.9125 114.712 60.8341 114.63 60.7848H114.58C114.52 60.7642 114.455 60.7642 114.395 60.7848C114.283 60.8362 114.183 60.9111 114.103 61.0045C114.009 61.1218 113.93 61.2504 113.868 61.3873C113.868 61.4512 113.804 61.522 113.768 61.5929V61.6355C113.763 61.6588 113.763 61.683 113.768 61.7063C113.768 61.7063 113.768 61.7418 113.768 61.756H113.391C113.454 61.5062 113.555 61.2672 113.69 61.0471C113.789 60.8658 113.928 60.7084 114.095 60.5859C114.263 60.4634 114.455 60.3789 114.658 60.3382C114.809 60.3198 114.961 60.3607 115.082 60.452C115.203 60.5433 115.283 60.6779 115.306 60.8273C115.332 61.0992 115.285 61.373 115.171 61.6213Z" fill="#455A64"/>
<path d="M117.262 61.444C117.13 62.0533 116.761 62.5859 116.237 62.9257C115.994 63.0887 115.895 62.7626 116.137 62.6137C116.474 62.3884 116.725 62.0561 116.849 61.6709C116.849 61.6071 116.885 61.5362 116.899 61.4795C116.957 61.2659 116.957 61.0409 116.899 60.8273C116.872 60.733 116.811 60.652 116.728 60.6004H116.692H116.642C116.579 60.5947 116.514 60.607 116.457 60.6359C116.342 60.6826 116.242 60.7583 116.165 60.8556C116.073 60.9715 115.994 61.0976 115.93 61.2314C115.93 61.2952 115.866 61.3661 115.831 61.437V61.4866C115.827 61.5101 115.827 61.5339 115.831 61.5575C115.831 61.5575 115.831 61.5575 115.831 61.6L115.453 61.6354C115.521 61.3869 115.621 61.1485 115.752 60.9265C115.855 60.7476 115.994 60.592 116.161 60.4699C116.328 60.3478 116.519 60.2618 116.721 60.2176C116.872 60.203 117.023 60.2462 117.143 60.3383C117.264 60.4305 117.344 60.5647 117.369 60.7139C117.392 60.9622 117.356 61.2126 117.262 61.444Z" fill="#455A64"/>
<path d="M117.226 69.8021C118.593 72.7016 122.047 76.3099 122.318 78.6777C122.407 79.2583 122.305 79.852 122.028 80.3705C121.751 80.889 121.313 81.3047 120.78 81.5559C120.78 81.5559 123.144 82.7468 123.037 84.9303C122.98 86.0574 121.129 86.9578 121.129 86.9578C121.129 86.9578 122.98 87.9928 122.76 89.9281C122.589 91.4735 120.758 92.147 120.758 92.147C120.758 92.147 122.069 93.9618 121.385 95.4789C120.004 98.5555 106.594 98.4917 104.55 93.5648C103.595 91.2679 106.871 91.4381 106.871 91.4381C106.871 91.4381 102.235 90.0203 102.178 87.2768C102.121 84.5333 106.359 85.0366 106.359 85.0366C106.359 85.0366 101.872 83.6188 102.086 80.7831C102.321 77.8057 106.472 79.0392 106.472 79.0392C106.472 79.0392 103.503 77.0117 104.186 74.8637C105.304 71.3192 110.931 75.8137 113.879 75.1331L115.531 70.3054L117.226 69.8021Z" fill="#EB996E"/>
<path d="M119.892 74.0201C118.845 71.1845 122.413 67.6399 121.8 64.8043C120.974 60.9124 116.559 64.698 115.555 70.3409V74.8566L119.892 74.0201Z" fill="#EB996E"/>
<path d="M120.484 92.2959C120.527 92.2959 120.541 92.3526 120.484 92.3597C115.9 93.4646 111.086 93.1556 106.683 91.4736C106.54 91.4168 106.576 91.1687 106.74 91.1971C111.243 92.2256 115.874 92.5957 120.484 92.2959Z" fill="#263238"/>
<path d="M121.195 86.9861C121.245 86.9861 121.252 87.064 121.195 87.0782C116.637 88.1345 110.819 87.7517 106.197 85.1783C106.033 85.0862 105.983 84.8522 106.197 84.9373C109.387 86.4189 116.851 87.3263 121.195 86.9861Z" fill="#263238"/>
<path d="M106.214 78.7557C110.744 81.0525 115.558 81.6764 120.593 81.5913C120.664 81.5913 120.657 81.6835 120.593 81.6977C118.143 82.4066 114.896 82.1088 112.446 81.6977C110.132 81.3369 107.954 80.3787 106.129 78.9187C106.065 78.8549 106.122 78.7061 106.214 78.7557Z" fill="#263238"/>
<path d="M219.965 153.482C219.346 155.141 189.036 192.649 186.971 193.351C186.194 193.62 180.447 189.544 173.646 184.426C172.179 183.32 170.669 182.164 169.138 180.988C159.218 173.36 148.898 165.016 148.898 165.016L169.103 139.871L188.78 156.509L193.11 160.16C193.11 160.16 211.163 150.944 213.513 150.441C215.863 149.937 220.585 151.816 219.965 153.482Z" fill="#EB996E"/>
<path d="M219.971 153.482C219.351 155.141 189.041 192.649 186.976 193.351C186.022 193.677 177.718 187.595 169.172 180.988L188.785 156.509L193.115 160.16C193.115 160.16 211.168 150.944 213.518 150.441C215.868 149.937 220.59 151.816 219.971 153.482Z" fill="white"/>
<path d="M219.968 153.482C219.348 155.141 189.038 192.649 186.973 193.351C186.197 193.62 180.45 189.544 173.648 184.426L193.119 160.188C193.119 160.188 211.172 150.972 213.522 150.469C215.873 149.966 220.587 151.816 219.968 153.482Z" fill="#EF873D"/>
<path d="M218.02 152.808C212.786 158.976 192.254 184.32 187.547 190.806C187.547 190.863 187.547 190.891 187.59 190.841C192.909 184.844 213.228 159.33 218.127 152.893C218.227 152.759 218.134 152.681 218.02 152.808Z" fill="#263238"/>
<path d="M210.214 151.795C209.635 152.475 209.203 153.267 208.946 154.12C208.689 154.974 208.611 155.872 208.719 156.757C208.905 158.361 209.706 159.832 210.955 160.862C210.991 160.862 211.048 160.819 211.012 160.784C209.936 159.568 209.285 158.037 209.156 156.422C209.028 154.806 209.429 153.192 210.3 151.823C210.299 151.814 210.295 151.805 210.289 151.798C210.283 151.79 210.275 151.785 210.266 151.782C210.257 151.779 210.248 151.779 210.238 151.781C210.229 151.783 210.221 151.788 210.214 151.795Z" fill="#263238"/>
<path d="M195.72 158.253C193.655 160.741 192.159 164.371 192.993 167.589C192.993 167.717 193.199 167.674 193.221 167.589C193.841 164.46 194.796 161.406 196.069 158.48C196.099 158.434 196.11 158.378 196.099 158.324C196.087 158.27 196.055 158.223 196.009 158.193C195.962 158.163 195.906 158.152 195.852 158.163C195.798 158.175 195.75 158.207 195.72 158.253Z" fill="#263238"/>
<path d="M198.041 156.92C195.975 159.408 194.48 163.038 195.313 166.256C195.313 166.384 195.519 166.334 195.541 166.256C196.161 163.127 197.116 160.074 198.39 157.147C198.42 157.101 198.43 157.045 198.419 156.991C198.408 156.937 198.375 156.89 198.329 156.86C198.283 156.83 198.226 156.819 198.172 156.831C198.118 156.842 198.071 156.874 198.041 156.92Z" fill="#263238"/>
<path d="M200.381 155.587C198.308 158.076 196.82 161.705 197.646 164.924C197.646 165.051 197.853 165.002 197.874 164.924C198.495 161.797 199.45 158.746 200.723 155.821C200.738 155.799 200.749 155.774 200.755 155.747C200.76 155.721 200.761 155.693 200.756 155.667C200.751 155.64 200.741 155.615 200.726 155.592C200.711 155.569 200.692 155.549 200.669 155.534C200.647 155.519 200.622 155.508 200.595 155.502C200.568 155.497 200.541 155.496 200.514 155.501C200.487 155.506 200.462 155.516 200.439 155.531C200.416 155.546 200.396 155.565 200.381 155.587Z" fill="#263238"/>
<path d="M202.709 154.255C200.637 156.743 199.148 160.372 199.974 163.591C199.974 163.719 200.188 163.669 200.209 163.591C200.829 160.464 201.784 157.413 203.058 154.489C203.089 154.442 203.101 154.386 203.09 154.331C203.079 154.277 203.047 154.229 203.001 154.198C202.955 154.167 202.898 154.155 202.843 154.166C202.788 154.177 202.74 154.209 202.709 154.255Z" fill="#263238"/>
<path d="M182.846 184.405C180.567 187.24 184.982 190.785 187.261 187.949C189.54 185.114 185.118 181.569 182.846 184.405Z" fill="white"/>
<path d="M191.173 150.129C189.086 150.554 188.823 152.964 189.293 154.659C190.146 157.507 191.738 160.081 193.907 162.123C193.915 162.134 193.926 162.142 193.937 162.148C193.949 162.154 193.962 162.157 193.975 162.157C193.988 162.157 194.001 162.154 194.013 162.148C194.025 162.142 194.035 162.134 194.043 162.123C194.098 162.152 194.16 162.168 194.223 162.168C194.286 162.168 194.347 162.154 194.403 162.125C194.459 162.097 194.507 162.055 194.544 162.004C194.58 161.953 194.604 161.895 194.612 161.833C194.819 159.047 195.382 156.091 194.719 153.326C194.335 151.681 193.153 149.732 191.173 150.129ZM194.021 157.523C193.95 158.898 193.815 160.259 193.801 161.634C192.86 160.206 191.993 158.732 191.201 157.218C190.83 156.477 190.509 155.712 190.24 154.928C189.848 153.716 189.734 149.554 192.683 151.504C194.349 152.582 194.135 155.885 194.057 157.523H194.021Z" fill="#263238"/>
<path d="M189.784 169.121C191.921 167.206 193.096 164.442 194.499 162.031C194.525 161.976 194.538 161.915 194.536 161.853C194.534 161.791 194.517 161.731 194.487 161.677C194.457 161.623 194.415 161.577 194.364 161.543C194.313 161.508 194.254 161.486 194.192 161.478C194.192 161.422 194.157 161.372 194.093 161.386C191.144 161.86 188.373 163.1 186.059 164.98C184.735 166.101 183.574 168.263 185.07 169.78C186.565 171.297 188.552 170.248 189.784 169.121ZM187.121 169.489C183.56 169.454 186.017 166.079 187.028 165.292C187.692 164.795 188.389 164.342 189.115 163.938C190.624 163.125 192.174 162.389 193.758 161.734C192.996 162.882 192.334 164.08 191.621 165.278C190.76 166.661 189.072 169.51 187.121 169.489Z" fill="#263238"/>
<path d="M187.729 152.745L166.699 180.981L95.7674 131.974L88.9235 127.252C88.9235 127.252 86.9864 128.55 84.0737 130.152C80.0215 132.378 74.1034 135.199 68.8334 135.972C60.031 137.269 46.7563 137.127 39.3284 127.252C33.0756 118.93 35.0554 108.076 35.0554 108.076L44.7266 103.943C44.7266 103.943 67.6156 84.9657 82.4713 84.3915C88.7668 84.1434 97.9324 88.8931 106.421 93.8555C114.91 98.8179 187.729 152.745 187.729 152.745Z" fill="#37474F"/>
<path d="M88.9249 127.252C88.9249 127.252 86.9878 128.55 84.0751 130.152C78.919 124.012 68.0015 112.854 67.6953 112.429L88.9249 127.252Z" fill="#263238"/>
<path d="M53.1108 97.5914C51.7435 98.5342 50.4188 99.5409 49.0657 100.512C47.7126 101.483 46.3737 102.362 45.1061 103.404C43.8384 104.447 42.6064 105.595 41.4028 106.736C40.8189 107.289 40.2349 107.842 39.6723 108.416C39.0785 108.966 38.5284 109.561 38.0272 110.196C37.9844 110.253 38.0699 110.323 38.1269 110.288C38.7683 109.834 39.3796 109.339 39.9571 108.806L41.8729 107.183C43.1049 106.141 44.3583 105.134 45.5832 104.085C46.8082 103.036 47.9334 101.916 49.1441 100.867C50.3547 99.8173 51.8004 98.6973 53.1464 97.6339C53.1607 97.6126 53.1393 97.5701 53.1108 97.5914Z" fill="#263238"/>
<path d="M182.806 151.731C181.438 153.198 180.178 154.772 178.903 156.318C177.628 157.863 176.361 159.437 175.1 161.003C172.579 164.137 170.037 167.256 167.558 170.425C166.191 172.169 164.852 173.92 163.585 175.735C163.528 175.813 163.656 175.905 163.727 175.834C166.433 172.864 168.919 169.695 171.433 166.568C173.947 163.442 176.46 160.28 178.939 157.104C180.292 155.368 181.688 153.638 182.927 151.823C182.934 151.807 182.936 151.789 182.931 151.772C182.927 151.755 182.917 151.74 182.903 151.729C182.889 151.719 182.872 151.713 182.854 151.713C182.836 151.714 182.819 151.72 182.806 151.731Z" fill="#263238"/>
<path d="M128.963 154.808C125.402 152.043 117.405 146.634 113.744 144.039C110.084 141.445 106.466 138.864 102.77 136.355C101.711 135.641 100.645 134.932 99.5723 134.228C98.5041 133.519 97.3931 132.867 96.3462 132.137C96.2892 132.094 96.2323 132.193 96.2892 132.236C97.2506 132.945 98.1551 133.689 99.1379 134.398C100.121 135.107 100.933 135.766 101.837 136.433C103.61 137.737 105.398 139.02 107.192 140.31C110.81 142.912 114.464 145.492 118.153 148.009C120.246 149.427 126.699 153.68 128.835 155.027C128.913 155.091 129.07 154.907 128.963 154.808Z" fill="#263238"/>
<path d="M151.204 125.636C147.942 122.949 140.522 117.774 137.089 115.286C133.656 112.797 130.195 110.231 126.72 107.729L116.386 100.299C113.053 97.8961 109.728 95.4504 106.202 93.3237C104.272 92.1611 102.293 91.0835 100.256 90.1123C98.2859 89.1054 96.2319 88.2705 94.117 87.6169C94.105 87.6158 94.0929 87.6185 94.0826 87.6247C94.0722 87.6308 94.064 87.64 94.0593 87.6511C94.0545 87.6621 94.0534 87.6743 94.0561 87.686C94.0588 87.6978 94.0652 87.7083 94.0743 87.7162C95.8119 88.6874 97.6351 89.4956 99.3941 90.4313C101.153 91.3671 102.848 92.3241 104.536 93.3379C108.033 95.4646 111.337 97.8536 114.656 100.228C121.557 105.191 128.436 110.153 135.38 114.988C139.268 117.717 147.017 123.346 151.047 125.849C151.076 125.861 151.108 125.864 151.138 125.856C151.168 125.848 151.194 125.831 151.213 125.806C151.231 125.781 151.24 125.75 151.239 125.719C151.237 125.688 151.225 125.659 151.204 125.636Z" fill="#263238"/>
</svg>
