<svg width="256" height="212" viewBox="0 0 256 212" fill="none" xmlns="http://www.w3.org/2000/svg">
<path fill-rule="evenodd" clip-rule="evenodd" d="M130.123 12.3717C152.538 13.863 179.905 -3.79861 195.869 11.8076C212.458 28.0259 189.271 58.0378 198.493 79.2125C209.499 104.485 255.647 112.923 251.769 140.164C248.16 165.521 207.643 163.314 184.797 175.435C166.077 185.367 150.836 200.012 130.123 204.705C104.626 210.481 76.5467 217.507 53.568 205.166C29.6949 192.345 18.0081 165.316 9.39679 139.869C0.7251 114.243 -4.20658 86.4578 4.75929 60.9308C13.6324 35.668 32.3936 12.3751 57.6067 2.60887C80.8866 -6.40852 105.171 10.7117 130.123 12.3717Z" fill="#FCE7D8" fill-opacity="0.44"/>
<path d="M42.4766 126.405C42.564 126.142 52.6532 94.2477 52.6532 94.2477L52.4007 90.2867L55.0396 86.0846L58.3163 87.1335L57.8695 91.8304L55.5382 95.2559L45.3907 127.323L42.4766 126.405Z" fill="#E0E0E0"/>
<path d="M42.4766 126.405L42.6708 126.458L43.231 126.628L45.3907 127.282L45.355 127.301C46.9967 122.1 50.7915 110.063 55.467 95.2434L57.795 91.8209V91.8554C57.9375 90.3555 58.0896 88.7617 58.2418 87.1585L58.3001 87.2431L58.0281 87.1585L55.0234 86.1973L55.1205 86.1628L52.4816 90.3649V90.3179C52.5658 91.6685 52.6489 92.9889 52.7309 94.2789V94.3071C49.7812 103.572 47.2265 111.598 45.4101 117.309C44.497 120.168 43.7652 122.444 43.2634 124.013C43.0141 124.796 42.8165 125.4 42.6838 125.813L42.5316 126.28L42.4766 126.44C42.4876 126.388 42.5016 126.337 42.5187 126.286C42.551 126.177 42.5964 126.023 42.6579 125.826C42.7874 125.413 42.9817 124.811 43.2148 124.035C43.7037 122.469 44.4161 120.19 45.3097 117.334C47.1165 111.604 49.6485 103.557 52.5755 94.2601V94.2883C52.4913 92.9983 52.4061 91.6779 52.3197 90.3273V90.3023V90.2804L54.9586 86.0783L54.991 86.0219L55.0557 86.0438L58.0637 87.002L58.3325 87.0897L58.3972 87.1084V87.1742C58.2451 88.7868 58.0929 90.3806 57.9472 91.871V91.8929V91.9086L55.6191 95.3342V95.3122C50.8951 110.101 47.0679 122.122 45.4101 127.323V127.351H45.3809L43.218 126.659L42.6708 126.48L42.4766 126.405Z" fill="#263238"/>
<path d="M40.0483 127.949L35.5153 133.873L29.1787 156.104C29.1787 156.104 28.2689 160.638 33.4463 161.925C39.2745 163.372 40.602 159.063 40.602 159.063L46.754 137.355L46.6892 129.827L48.2078 128.171C48.2764 128.094 48.3246 128.001 48.3481 127.902C48.3716 127.803 48.3697 127.7 48.3426 127.601C48.3155 127.503 48.264 127.412 48.1925 127.338C48.1211 127.263 48.0318 127.206 47.9326 127.172L40.6538 124.849C40.5526 124.818 40.4453 124.812 40.3411 124.831C40.2369 124.85 40.1391 124.893 40.0564 124.957C39.9736 125.021 39.9083 125.104 39.8662 125.198C39.8242 125.292 39.8066 125.395 39.8152 125.497L40.0483 127.949Z" fill="#EF873D"/>
<path d="M46.7296 130.088C46.7134 130.132 45.1884 129.703 43.3233 129.13C41.4583 128.557 39.9527 128.056 39.9689 128.012C39.9851 127.968 41.5069 128.4 43.3751 128.973C45.2434 129.546 46.7425 130.044 46.7296 130.088Z" fill="#263238"/>
<path d="M46.7633 137.359C46.6099 137.349 46.4579 137.324 46.31 137.284C46.0186 137.224 45.6042 137.127 45.0893 137.002C44.0597 136.754 42.648 136.375 41.11 135.9C39.572 135.424 38.1959 134.941 37.2019 134.569C36.7097 134.381 36.3114 134.224 36.0395 134.112C35.8951 134.061 35.7562 133.997 35.625 133.921C35.7759 133.95 35.9234 133.994 36.0654 134.052L37.2439 134.459C38.2412 134.804 39.6206 135.27 41.1585 135.743C42.6965 136.216 44.1018 136.613 45.1185 136.892L46.3262 137.221C46.476 137.254 46.6223 137.3 46.7633 137.359Z" fill="#263238"/>
<g opacity="0.3">
<path d="M38.2468 136.229L38.0883 136.185C37.5217 136.025 36.9286 136.339 36.7633 136.887L31.1523 155.491C30.9871 156.039 31.3124 156.613 31.8789 156.773L32.0374 156.817C32.6039 156.977 33.1971 156.662 33.3624 156.115L38.9734 137.511C39.1386 136.963 38.8133 136.389 38.2468 136.229Z" fill="black"/>
</g>
<g opacity="0.3">
<path d="M41.4968 137.249L41.3383 137.204C40.7718 137.044 40.1786 137.359 40.0133 137.907L34.4023 156.51C34.2371 157.058 34.5624 157.632 35.1289 157.792L35.2874 157.836C35.8539 157.996 36.4471 157.682 36.6124 157.134L42.2234 138.53C42.3886 137.982 42.0633 137.408 41.4968 137.249Z" fill="black"/>
</g>
<g opacity="0.3">
<path d="M44.4251 138.186L44.2667 138.14C43.7009 137.978 43.1064 138.291 42.9389 138.838L37.2508 157.42C37.0833 157.967 37.4062 158.542 37.972 158.704L38.1304 158.749C38.6962 158.911 39.2907 158.599 39.4582 158.052L45.1463 139.47C45.3138 138.923 44.9909 138.348 44.4251 138.186Z" fill="black"/>
</g>
<path d="M55.5174 95.2587C55.0223 95.1784 54.5379 95.045 54.0733 94.861C53.5909 94.7298 53.1258 94.5449 52.6875 94.3099C53.1811 94.3923 53.6642 94.5256 54.1284 94.7076C54.6117 94.8393 55.0777 95.0242 55.5174 95.2587Z" fill="#263238"/>
<path d="M58.3223 87.133C58.298 87.2821 58.2601 87.4288 58.209 87.5714C58.1151 87.8845 57.992 88.279 57.8398 88.7675L56.5447 92.8381L56.5188 92.9164L56.4378 92.8913L54.9452 92.3872L53.4104 91.8674L53.3359 91.8424L53.3586 91.7703C53.8249 90.1609 54.2361 88.7487 54.5404 87.6997C54.6894 87.2144 54.8092 86.8136 54.9031 86.513C54.9411 86.3675 54.9909 86.2251 55.052 86.0872C55.0343 86.2367 55.0029 86.3845 54.9581 86.5287L54.6343 87.7279C54.3462 88.7706 53.9576 90.1859 53.5108 91.7985L53.459 91.7014L54.997 92.2212L56.4864 92.7254L56.3796 92.7786L57.7395 88.7362C57.9078 88.2508 58.0633 87.8563 58.1539 87.5557C58.1976 87.4105 58.2539 87.2691 58.3223 87.133Z" fill="#263238"/>
<path d="M146.685 56.6081C146.424 56.6086 146.165 56.5646 145.918 56.4782L141.952 55.101C141.562 54.9644 141.215 54.728 140.946 54.4151C140.676 54.1022 140.492 53.7239 140.414 53.3178L139.62 49.1829C139.542 48.7763 139.573 48.3563 139.708 47.9652C139.843 47.5741 140.079 47.2255 140.391 46.9547L143.564 44.2003C143.876 43.9299 144.254 43.7465 144.659 43.6685C145.064 43.5904 145.483 43.6203 145.873 43.7553L149.836 45.1325C150.226 45.2685 150.573 45.5048 150.844 45.8177C151.114 46.1306 151.298 46.5092 151.377 46.9157L152.17 51.0506C152.247 51.4571 152.216 51.8766 152.08 52.2675C151.945 52.6583 151.711 53.0069 151.4 53.2788L148.227 56.0332C147.798 56.4042 147.251 56.6083 146.685 56.6081ZM142.929 52.6909L146.637 53.9901L149.599 51.4176L148.858 47.5393L145.154 46.2401L142.185 48.8386L142.929 52.6909Z" fill="#E0E0E0"/>
<path d="M142.926 52.6909C142.899 52.6068 142.878 52.5211 142.862 52.4343L142.7 51.671C142.56 50.9856 142.376 50.0209 142.126 48.8419C142.124 48.8308 142.125 48.8192 142.128 48.8084C142.131 48.7976 142.138 48.7878 142.146 48.7802L145.099 46.1817C145.111 46.1754 145.124 46.1721 145.138 46.1721C145.151 46.1721 145.165 46.1754 145.177 46.1817L148.881 47.4809L148.939 47.5459V47.6011V47.666L148.965 47.7927L149.013 48.0461C149.046 48.2117 149.075 48.3709 149.107 48.5463C149.172 48.8711 149.234 49.1959 149.295 49.5207C149.418 50.1704 149.538 50.794 149.651 51.3949C149.654 51.4085 149.653 51.4227 149.649 51.4358C149.644 51.4489 149.636 51.4606 149.625 51.4696L146.672 54.0356C146.663 54.041 146.653 54.0439 146.642 54.0439C146.631 54.0439 146.62 54.041 146.611 54.0356L143.901 53.0612L143.172 52.7884C143.088 52.7608 143.006 52.7272 142.926 52.6877C143.019 52.7071 143.11 52.7331 143.198 52.7656L143.946 53.006L146.653 53.9155H146.592L149.544 51.3169L149.519 51.3949C149.402 50.7908 149.279 50.1671 149.156 49.5207C149.094 49.1959 149.03 48.8711 148.965 48.5463C148.933 48.3806 148.903 48.2215 148.871 48.0461L148.822 47.7927L148.797 47.666V47.6011V47.5686V47.5459C148.797 47.5459 148.9 47.666 148.848 47.6076L145.147 46.3083H145.225L142.25 48.8711L142.272 48.8094C142.483 49.9852 142.658 50.9434 142.781 51.6288C142.836 51.9536 142.881 52.2102 142.913 52.4051C142.926 52.4997 142.931 52.5954 142.926 52.6909Z" fill="#263238"/>
<path d="M146.684 56.6081C146.684 56.6081 146.823 56.6081 147.085 56.5562C147.463 56.484 147.818 56.32 148.118 56.0787L151.34 53.2496C151.692 52.9443 151.944 52.5388 152.062 52.0867C152.125 51.8486 152.152 51.6021 152.14 51.3559C152.111 51.0992 152.068 50.8444 152.01 50.5926C151.806 49.5434 151.589 48.4261 151.363 47.2503C151.323 46.9561 151.243 46.6688 151.126 46.396C151 46.1208 150.821 45.8736 150.599 45.6689C150.376 45.4642 150.115 45.3061 149.831 45.2039L148.918 44.8791L147.043 44.2295L146.072 43.9047C145.764 43.7748 145.434 43.7053 145.101 43.7001C144.765 43.6997 144.434 43.7728 144.129 43.9144C143.833 44.0633 143.563 44.2572 143.326 44.4894L141.827 45.7886L140.38 47.0456C139.939 47.4506 139.674 48.0126 139.641 48.6112C139.637 48.9012 139.669 49.1905 139.739 49.472C139.794 49.7611 139.845 50.0437 139.901 50.323C140.004 50.8817 140.108 51.4209 140.205 51.9471C140.302 52.4733 140.396 52.98 140.496 53.4542C140.617 53.9039 140.87 54.3068 141.222 54.6105C141.385 54.7506 141.567 54.8675 141.762 54.9581C141.953 55.0425 142.157 55.1042 142.345 55.1757L143.43 55.559L145.165 56.1761C145.524 56.3215 145.892 56.4441 146.266 56.5432C146.525 56.5919 146.668 56.5886 146.668 56.5951C146.532 56.6116 146.395 56.6116 146.26 56.5951C145.881 56.5077 145.509 56.3937 145.146 56.2541L143.417 55.6597L142.329 55.2894C142.135 55.2212 141.937 55.1627 141.733 55.075C141.527 54.9815 141.334 54.8602 141.16 54.7145C140.787 54.3979 140.517 53.9756 140.386 53.5029C140.276 53.0092 140.189 52.509 140.085 51.986C139.981 51.4631 139.878 50.9207 139.761 50.362C139.705 50.087 139.65 49.8044 139.596 49.5142C139.523 49.2211 139.488 48.9198 139.493 48.6177C139.526 47.9764 139.809 47.3736 140.279 46.9384L141.723 45.6782L143.223 44.3789C143.352 44.2685 143.472 44.158 143.611 44.0541C143.753 43.9483 143.905 43.8569 144.064 43.7813C144.387 43.631 144.738 43.5534 145.094 43.5539C145.447 43.5594 145.795 43.6322 146.12 43.7683L147.092 44.0931L148.967 44.7427L149.88 45.0675C150.188 45.1779 150.471 45.3491 150.712 45.571C150.948 45.7886 151.139 46.0514 151.272 46.344C151.394 46.6291 151.477 46.9297 151.518 47.2373C151.734 48.4174 151.944 49.5326 152.149 50.5829C152.208 50.8409 152.25 51.1023 152.276 51.3656C152.294 51.7396 152.227 52.1128 152.079 52.4564C151.93 52.7999 151.705 53.1047 151.421 53.347L148.164 56.1372C147.85 56.3774 147.482 56.5359 147.092 56.5984C146.957 56.6184 146.82 56.6217 146.684 56.6081Z" fill="#263238"/>
<path d="M119.088 49.8453C118.831 49.8447 118.578 49.7859 118.347 49.6735C118.116 49.561 117.913 49.3977 117.754 49.1957L116.624 47.7827C116.437 47.5478 116.315 47.2681 116.27 46.9712C116.224 46.6743 116.257 46.3707 116.365 46.0905L117.013 44.4014C117.121 44.1219 117.302 43.876 117.535 43.6885C117.769 43.5009 118.048 43.3783 118.343 43.3328L120.127 43.0567C120.423 43.0118 120.726 43.0454 121.005 43.1543C121.284 43.2631 121.529 43.4434 121.717 43.6771L122.847 45.0933C123.034 45.3275 123.156 45.6068 123.201 45.9031C123.247 46.1995 123.214 46.5026 123.106 46.7823L122.459 48.4746C122.351 48.7543 122.173 49.001 121.941 49.1902C121.709 49.3793 121.432 49.5044 121.138 49.553L119.35 49.8258C119.263 49.839 119.176 49.8455 119.088 49.8453ZM120.383 44.3462H120.322L118.547 44.6158C118.476 44.6265 118.408 44.6558 118.351 44.7008C118.294 44.7458 118.25 44.805 118.223 44.8724L117.576 46.5647C117.55 46.6319 117.542 46.7047 117.553 46.7759C117.564 46.847 117.593 46.9142 117.637 46.9707L118.767 48.3836C118.813 48.4397 118.872 48.4829 118.939 48.5091C119.006 48.5353 119.078 48.5435 119.15 48.5331L120.937 48.257C121.009 48.2466 121.076 48.2174 121.133 48.1724C121.19 48.1273 121.234 48.068 121.261 48.0004L121.908 46.3113C121.935 46.2442 121.943 46.1713 121.932 46.1C121.921 46.0287 121.892 45.9616 121.847 45.9053L120.717 44.4924C120.677 44.4459 120.628 44.4087 120.573 44.3835C120.517 44.3582 120.457 44.3455 120.396 44.3462H120.383Z" fill="#E0E0E0"/>
<path d="M120.396 44.3464C120.442 44.3322 120.49 44.3322 120.536 44.3464C120.592 44.3617 120.644 44.3895 120.688 44.4276C120.743 44.4821 120.795 44.5396 120.843 44.5998L121.763 45.7074L121.912 45.8925C121.968 45.969 121.999 46.0607 122.002 46.1556C122 46.2491 121.978 46.3411 121.938 46.4252C121.908 46.5064 121.876 46.5876 121.847 46.6721C121.717 46.9969 121.581 47.3639 121.439 47.7407C121.403 47.8349 121.368 47.9291 121.329 48.0266C121.286 48.1439 121.201 48.2404 121.089 48.2962C120.985 48.3351 120.876 48.3602 120.765 48.3709L120.442 48.4228C120.005 48.4878 119.577 48.5625 119.091 48.6242C119.022 48.6244 118.953 48.6097 118.889 48.5812C118.826 48.5526 118.769 48.5108 118.722 48.4586L118.509 48.189L118.091 47.6693L117.693 47.1626L117.592 47.0391C117.554 46.9936 117.523 46.942 117.502 46.8865C117.458 46.7714 117.458 46.6442 117.502 46.5292L117.923 45.467L118.114 44.9863C118.141 44.9045 118.178 44.826 118.224 44.7524C118.276 44.6792 118.348 44.6228 118.431 44.59C119.053 44.4763 119.525 44.4309 119.865 44.3854C120.039 44.3513 120.216 44.336 120.393 44.3399C120.35 44.3559 120.306 44.3668 120.26 44.3724L119.878 44.4504C119.554 44.5153 119.043 44.5868 118.476 44.7005C118.415 44.7273 118.363 44.7699 118.324 44.8239C118.288 44.8915 118.257 44.9621 118.233 45.035L118.052 45.519L117.644 46.5876C117.615 46.6662 117.615 46.7527 117.644 46.8312C117.689 46.9149 117.745 46.9924 117.809 47.0619L118.224 47.5718L118.641 48.0915L118.852 48.3546C118.882 48.3887 118.92 48.4158 118.962 48.4343C119.004 48.4528 119.049 48.4622 119.095 48.4618L120.419 48.2637L120.743 48.2149C120.841 48.2088 120.938 48.1891 121.031 48.1565C121.108 48.1199 121.167 48.0546 121.196 47.9746C121.232 47.8771 121.271 47.7829 121.306 47.6888C121.455 47.3185 121.594 46.9612 121.727 46.6266C121.764 46.5465 121.796 46.4653 121.824 46.383C121.859 46.3155 121.88 46.2414 121.886 46.1654C121.883 46.0961 121.861 46.0289 121.824 45.9705L121.682 45.7886L120.804 44.6485C120.766 44.5689 120.708 44.4998 120.637 44.4472C120.566 44.3946 120.484 44.36 120.396 44.3464Z" fill="#263238"/>
<path d="M119.087 49.8456C119.157 49.8295 119.229 49.8187 119.301 49.8131L119.919 49.7059L120.891 49.5402C121.092 49.5181 121.29 49.4701 121.48 49.3973C121.687 49.3114 121.875 49.1831 122.03 49.0205C122.209 48.8426 122.346 48.6275 122.432 48.3904C122.526 48.1435 122.626 47.8837 122.726 47.6141C122.905 47.0717 123.267 46.5162 123.134 45.8958C123.077 45.5812 122.934 45.2888 122.72 45.0513L122.072 44.2458L121.749 43.83C121.645 43.6903 121.523 43.5657 121.386 43.4597C121.106 43.2489 120.765 43.1349 120.415 43.1349C120.234 43.1416 120.054 43.1622 119.877 43.1966L119.336 43.2778L118.284 43.4435C117.961 43.5138 117.667 43.6815 117.442 43.9242C117.334 44.0406 117.242 44.1718 117.17 44.314C117.102 44.4537 117.047 44.6161 116.989 44.7622L116.642 45.6425C116.522 45.9079 116.426 46.1841 116.358 46.4675C116.319 46.7234 116.339 46.9846 116.416 47.2316C116.493 47.4785 116.625 47.7048 116.801 47.8934L117.614 48.9328C117.737 49.0822 117.837 49.2317 117.954 49.3453C118.059 49.4493 118.178 49.5389 118.307 49.6117C118.555 49.7436 118.827 49.8232 119.106 49.8456C119.106 49.8456 119.087 49.8456 119.048 49.8456C119.009 49.8456 118.958 49.8456 118.886 49.8456C118.674 49.8263 118.467 49.7656 118.278 49.6669C118.141 49.5941 118.014 49.5046 117.899 49.4006C117.772 49.2695 117.652 49.1318 117.539 48.9881L116.707 47.9649C116.517 47.765 116.374 47.5242 116.29 47.2609C116.206 46.9976 116.182 46.7185 116.222 46.4448C116.286 46.1491 116.381 45.8608 116.503 45.584L116.843 44.7038C116.905 44.5511 116.953 44.4017 117.028 44.2425C117.105 44.0853 117.204 43.9398 117.322 43.8105C117.564 43.5494 117.877 43.3653 118.223 43.2811C118.579 43.2194 118.925 43.1706 119.285 43.1122L119.825 43.031C120.011 42.9936 120.199 42.9719 120.389 42.966C120.775 42.9625 121.151 43.0857 121.46 43.3168C121.609 43.4308 121.741 43.5653 121.852 43.7163L122.176 44.1321C122.396 44.4049 122.61 44.6778 122.824 44.9409C123.055 45.1994 123.208 45.518 123.267 45.8601C123.325 46.1882 123.289 46.5259 123.164 46.8345C123.053 47.1171 122.943 47.3932 122.84 47.6628C122.736 47.9324 122.633 48.1858 122.535 48.4359C122.445 48.6802 122.302 48.9018 122.118 49.0855C121.789 49.4023 121.358 49.5901 120.904 49.6149L119.932 49.7514C119.663 49.7871 119.453 49.8163 119.31 49.8261C119.237 49.8414 119.162 49.848 119.087 49.8456Z" fill="#263238"/>
<path d="M150.629 45.6068C150.401 45.9999 150.12 46.3596 149.793 46.6754C149.507 47.031 149.162 47.3352 148.773 47.5751C149.046 47.216 149.346 46.8783 149.67 46.5649C149.953 46.2102 150.274 45.8888 150.629 45.6068Z" fill="#263238"/>
<path d="M144.562 43.7391C144.774 44.1211 144.92 44.5362 144.993 44.9669C145.124 45.3868 145.182 45.8264 145.165 46.2661C145.02 45.8588 144.911 45.4391 144.841 45.0123C144.709 44.5974 144.616 44.1712 144.562 43.7391Z" fill="#263238"/>
<path d="M142.146 48.7639C141.722 48.6803 141.306 48.5608 140.902 48.4066C140.482 48.3032 140.071 48.1663 139.672 47.9974C140.543 48.0679 141.387 48.3296 142.146 48.7639Z" fill="#263238"/>
<path d="M141.453 54.3994C141.623 54.0598 141.841 53.7468 142.101 53.4704C142.324 53.161 142.59 52.8854 142.891 52.6519C142.723 52.9929 142.505 53.3061 142.243 53.5809C142.02 53.8903 141.754 54.166 141.453 54.3994Z" fill="#263238"/>
<path d="M146.908 56.1761C146.777 55.8418 146.701 55.4887 146.681 55.1302C146.603 54.7786 146.582 54.4166 146.619 54.0583C146.749 54.3942 146.825 54.7481 146.846 55.1075C146.922 55.4583 146.943 55.8189 146.908 56.1761Z" fill="#263238"/>
<path d="M151.516 52.0153C151.184 51.9764 150.862 51.882 150.561 51.736C150.239 51.6436 149.936 51.4964 149.664 51.3007C150.317 51.4336 150.943 51.6751 151.516 52.0153Z" fill="#263238"/>
<path d="M215.797 76.922C217.989 74.2715 220.181 71.5951 221.891 68.6068C223.6 65.6185 224.805 62.2794 224.892 58.8364C224.892 58.3135 224.682 54.6918 224.18 54.5456C223.824 54.4417 223.577 57.6411 223.286 57.8717C220.489 60.0675 218.672 63.3253 217.626 66.7294C216.642 70.0484 216.028 73.4669 215.797 76.922Z" fill="#263238"/>
<path d="M187.238 97.0669C188.112 94.7932 192.419 83.4248 192.396 83.4248C192.373 83.4248 184.978 79.553 187.539 71.6665C188.769 67.8565 191.939 60.2201 194.886 53.3406C196.415 49.7763 199.226 46.9201 202.759 45.3403C206.292 43.7604 210.289 43.5726 213.954 44.8142L214.708 45.0708C222.693 48.319 224.422 56.9168 220.967 64.8325L205.101 101.699L191.198 97.3885L187.238 97.0669Z" fill="#EB996E"/>
<path d="M192.399 83.4313C192.399 83.4313 197.233 85.3802 203.605 83.86C203.605 83.86 199.195 88.8589 191.625 85.5068L192.399 83.4313Z" fill="#FF9A6C"/>
<path d="M194.878 60.9314C194.777 61.2228 194.793 61.5422 194.923 61.8218C195.053 62.1014 195.287 62.3191 195.574 62.4288C195.713 62.4881 195.861 62.5191 196.012 62.5199C196.162 62.5208 196.312 62.4914 196.451 62.4336C196.59 62.3758 196.716 62.2908 196.822 62.1834C196.927 62.076 197.011 61.9486 197.067 61.8084C197.169 61.5171 197.153 61.1973 197.023 60.9175C196.893 60.6377 196.659 60.42 196.371 60.311C196.232 60.2513 196.083 60.2199 195.933 60.2189C195.782 60.2179 195.633 60.2471 195.494 60.305C195.355 60.3628 195.228 60.448 195.123 60.5556C195.017 60.6632 194.934 60.791 194.878 60.9314Z" fill="#263238"/>
<path d="M195.451 57.1733C195.542 57.3682 196.601 57.0239 197.802 57.4364C199.003 57.849 199.683 58.7357 199.861 58.6447C199.949 58.6025 199.897 58.2907 199.606 57.8782C199.208 57.3402 198.654 56.9395 198.019 56.7316C197.391 56.514 196.71 56.5049 196.076 56.7056C195.61 56.8648 195.406 57.0856 195.451 57.1733Z" fill="#263238"/>
<path d="M205.426 65.1898C205.324 65.4807 205.34 65.8 205.47 66.0792C205.6 66.3585 205.834 66.5756 206.122 66.6839C206.26 66.7437 206.409 66.775 206.56 66.776C206.71 66.7771 206.86 66.7478 206.999 66.69C207.138 66.6321 207.264 66.5469 207.37 66.4393C207.476 66.3317 207.559 66.2039 207.614 66.0635C207.715 65.7721 207.699 65.4527 207.569 65.1731C207.439 64.8935 207.206 64.6758 206.918 64.5661C206.78 64.5069 206.631 64.4761 206.48 64.4755C206.329 64.4749 206.18 64.5045 206.041 64.5626C205.902 64.6207 205.776 64.7061 205.67 64.8138C205.564 64.9215 205.481 65.0493 205.426 65.1898Z" fill="#263238"/>
<path d="M207.068 61.6526C207.156 61.8475 208.218 61.5064 209.419 61.9157C210.62 62.3249 211.297 63.2149 211.478 63.1272C211.563 63.0817 211.514 62.7699 211.223 62.3607C210.824 61.8218 210.268 61.4201 209.633 61.2108C209.005 60.9925 208.324 60.9834 207.69 61.1848C207.237 61.344 207.023 61.5649 207.068 61.6526Z" fill="#263238"/>
<path d="M199.635 69.4643C199.664 69.3993 198.958 69.016 197.799 68.4509C197.504 68.3144 197.232 68.1553 197.252 67.9247C197.271 67.694 197.494 67.3887 197.763 67.0834L199.463 65.0436C201.849 62.1202 203.688 59.6939 203.569 59.5964C203.449 59.499 201.422 61.7857 199.036 64.6993C198.456 65.4203 197.899 66.1057 197.371 66.7651C197.138 67.0899 196.805 67.4147 196.805 67.9214C196.813 68.0448 196.849 68.1647 196.91 68.2721C196.972 68.3795 197.056 68.4717 197.158 68.5418C197.313 68.6451 197.481 68.7291 197.656 68.7919C198.848 69.2694 199.605 69.5325 199.635 69.4643Z" fill="#263238"/>
<path d="M202.893 71.4976C202.699 71.4229 202.246 72.7319 200.828 73.2809C199.409 73.8298 198.053 73.2191 197.981 73.3978C197.936 73.4725 198.208 73.7551 198.788 73.9727C199.55 74.241 200.382 74.233 201.138 73.95C201.864 73.6753 202.454 73.1292 202.786 72.4266C203.02 71.9004 202.984 71.5204 202.893 71.4976Z" fill="#263238"/>
<path d="M208.781 56.7804C208.781 57.1474 210.044 57.4007 211.397 58.0471C212.751 58.6935 213.764 59.4698 214.049 59.2392C214.179 59.1255 214.085 58.7487 213.726 58.2647C213.243 57.6665 212.631 57.1866 211.936 56.8618C211.241 56.537 210.481 56.3758 209.714 56.3906C209.131 56.4361 208.784 56.6082 208.781 56.7804Z" fill="#263238"/>
<path d="M197.304 53.3308C197.424 53.6784 198.346 53.6557 199.347 53.9805C200.347 54.3053 201.128 54.7893 201.416 54.5684C201.549 54.4579 201.51 54.1396 201.228 53.7531C200.837 53.2746 200.313 52.9233 199.723 52.7435C199.133 52.5636 198.503 52.5635 197.912 52.7429C197.466 52.9216 197.255 53.1652 197.304 53.3308Z" fill="#263238"/>
<path d="M218.359 70.4387C218.515 70.4387 224.275 70.6628 222.3 75.9605C220.325 81.2582 215.413 78.1855 215.461 78.0296C215.51 77.8737 218.359 70.4387 218.359 70.4387Z" fill="#EB996E"/>
<path d="M217.831 76.6362C217.86 76.6362 217.899 76.7369 218.028 76.8668C218.211 77.044 218.457 77.142 218.711 77.1396C219.359 77.1396 220.149 76.4283 220.531 75.4798C220.715 75.0294 220.796 74.5432 220.767 74.0572C220.781 73.8717 220.749 73.6858 220.674 73.5158C220.599 73.3458 220.483 73.1971 220.337 73.0827C220.241 73.0119 220.123 72.9779 220.004 72.9868C219.885 72.9958 219.774 73.0471 219.689 73.1314C219.563 73.2549 219.556 73.3718 219.527 73.3718C219.498 73.3718 219.446 73.2386 219.569 73.047C219.647 72.9283 219.76 72.8382 219.893 72.7904C220.08 72.7349 220.281 72.7547 220.453 72.8456C220.653 72.9718 220.817 73.1469 220.93 73.3543C221.043 73.5617 221.102 73.7947 221.101 74.0312C221.153 74.576 221.073 75.1255 220.868 75.6325C220.434 76.6881 219.518 77.4872 218.669 77.4222C218.512 77.4096 218.358 77.362 218.221 77.2827C218.084 77.2035 217.966 77.0947 217.876 76.9642C217.792 76.7726 217.808 76.6394 217.831 76.6362Z" fill="#FF9A6C"/>
<path d="M201.645 45.8926C200.971 45.0936 204.594 43.2941 207.058 43.1577C210.782 42.9368 215.966 43.9112 218.569 45.8699C221.71 48.2248 223.96 51.1091 224.498 55.0036C225.035 58.8981 224.268 62.8998 222.762 66.5312C222.302 67.6388 221.739 68.7594 220.78 69.4773C219.599 70.364 217.902 70.5557 217.345 72.196C217.253 72.4955 217.102 72.7738 216.902 73.0147C216.702 73.2555 216.457 73.4542 216.179 73.5991C214.819 74.2488 214.01 72.8358 213.838 71.6503C213.473 69.1297 214.288 66.6059 215.095 64.1796C215.668 62.4646 216.26 60.7138 217.361 59.2749C217.957 58.4921 218.689 57.8197 219.242 57.0012C219.796 56.1827 220.156 55.1595 219.89 54.2143C219.822 54.0059 219.735 53.8046 219.628 53.6134C219.138 52.6865 218.412 51.9069 217.523 51.3544C216.635 50.8019 215.615 50.4964 214.57 50.4692C211.193 50.3815 205.504 50.0015 204.581 48.4814C203.231 46.2921 203.137 45.1683 203.137 45.1683L201.645 45.8926Z" fill="#263238"/>
<path d="M219.245 42.6282C219.585 42.8004 227.54 47.7311 227.488 54.9224C227.436 62.1138 226.125 63.8743 226.125 63.8743C226.392 64.2039 226.61 64.5704 226.773 64.9624C226.986 65.5081 225.766 67.3595 224.72 66.7424C217.577 60.0934 207.734 56.2736 196.505 52.7754L188.035 49.7319C185.554 49.1895 184.936 48.2638 186.147 48.0136C187.076 47.8188 194.769 47.429 194.769 47.429L196.43 46.9158L201.611 43.2421C201.611 43.2421 201.41 42.4106 202.463 42.141C203.515 41.8714 212.555 39.2177 219.245 42.6282Z" fill="#EF873D"/>
<path d="M196.43 46.9288C196.43 46.9288 196.543 46.9742 196.753 47.0457L197.725 47.351C198.56 47.6011 199.749 48.0234 201.212 48.5626C204.999 50.0246 208.651 51.8157 212.127 53.9155C215.601 56.0241 218.952 58.3297 222.164 60.821C223.408 61.7662 224.395 62.5523 225.078 63.0947L225.872 63.7151C226.053 63.8548 226.153 63.923 226.153 63.923C226.153 63.923 226.066 63.8385 225.888 63.6891L225.114 63.0395C224.437 62.4873 223.456 61.6883 222.223 60.7333C219.022 58.2126 215.67 55.8913 212.185 53.7823C208.699 51.6747 205.027 49.8927 201.215 48.4586C199.647 47.8686 198.049 47.358 196.43 46.9288Z" fill="#263238"/>
<g opacity="0.3">
<path d="M225.834 49.1635C225.834 49.1635 217.053 44.4472 212.203 45.0189L212.773 44.941L208.24 45.3177C207.472 45.3827 206.595 45.4054 206.07 44.8435C206.07 44.8435 208.819 43.6742 213.161 43.6969C217.503 43.7197 223.875 45.2658 225.834 49.1635Z" fill="black"/>
</g>
<path d="M225.951 49.2414C225.756 48.9474 225.539 48.6684 225.303 48.4067C224.67 47.6822 223.955 47.0346 223.172 46.4773C222.013 45.6443 220.738 44.9876 219.387 44.5284C217.742 43.9204 215.985 43.6755 214.236 43.8106C213.338 43.9013 212.447 44.0489 211.568 44.2523C210.72 44.444 209.894 44.5771 209.114 44.8045C208.398 45.0426 207.664 45.2186 206.918 45.3307C206.266 45.3954 205.608 45.3075 204.995 45.0741C202.699 44.3173 201.459 43.3591 201.615 43.2519C201.623 43.3452 201.666 43.4321 201.734 43.4955C201.921 43.6783 202.13 43.8366 202.356 43.9665C203.18 44.4613 204.055 44.8653 204.966 45.1715C205.592 45.4144 206.266 45.51 206.934 45.4509C207.688 45.3452 208.431 45.1746 209.156 44.9409C209.92 44.7298 210.755 44.5869 211.603 44.3952C212.477 44.2001 213.362 44.0569 214.252 43.9665C215.98 43.836 217.716 44.074 219.345 44.6648C220.685 45.1147 221.955 45.7545 223.114 46.565C223.896 47.1111 224.616 47.7417 225.261 48.4457C225.491 48.6958 225.662 48.8971 225.772 49.0368C225.883 49.1765 225.951 49.2414 225.951 49.2414Z" fill="#263238"/>
<g opacity="0.3">
<path d="M227.384 57.8945C225.72 57.3066 224.606 56.4394 223.075 55.5039C221.456 54.51 219.801 53.6005 218.218 52.5286C217.016 51.7166 215.563 50.8591 215.028 49.6053C214.851 49.9095 214.755 50.2544 214.75 50.6067C214.745 50.959 214.831 51.3067 214.999 51.6159C215.339 52.2655 216.78 53.4251 217.395 53.8441C220.895 56.2315 223.327 57.862 227.238 59.5218C227.322 58.9842 227.369 58.4417 227.381 57.8978" fill="black"/>
</g>
<path d="M227.467 54.1266C228.368 54.9484 228.908 55.4811 228.63 56.4003C228.4 57.1604 227.934 58.0244 227.15 57.9042C226.918 57.8502 226.699 57.7532 226.503 57.6184L215.779 51.3202C215.39 51.1496 215.076 50.8455 214.891 50.4627C214.678 49.8521 215.215 49.183 215.834 49.0141C216.452 48.8452 217.113 49.0141 217.728 49.2284C221.218 50.362 224.401 52.103 227.467 54.1234" fill="#EF873D"/>
<path d="M215.014 50.6966C214.915 50.5088 214.868 50.298 214.878 50.0859C214.902 49.7997 215.006 49.5261 215.178 49.2963C215.35 49.0666 215.582 48.89 215.85 48.7867C216.536 48.5528 217.446 48.7087 218.339 49.0725C219.233 49.4363 220.24 49.8488 221.254 50.3198C223.014 51.103 224.701 52.0422 226.295 53.1262C226.904 53.5452 227.373 53.9155 227.7 54.1721L228.069 54.4742C228.111 54.5114 228.157 54.5441 228.205 54.5716C228.205 54.5716 228.17 54.5261 228.089 54.4514L227.736 54.1266C227.412 53.857 226.962 53.477 226.356 53.0385C224.773 51.9239 223.084 50.9676 221.315 50.1834C220.285 49.7092 219.291 49.2999 218.378 48.9394C217.465 48.5788 216.529 48.4229 215.788 48.686C215.507 48.7984 215.264 48.9896 215.089 49.2367C214.913 49.4838 214.812 49.7763 214.797 50.0794C214.793 50.2422 214.827 50.4036 214.898 50.5504C214.928 50.6056 214.967 50.6551 215.014 50.6966Z" fill="#263238"/>
<path d="M199.984 44.4082L207.273 46.7501L205.961 48.5853L198.148 45.7075L199.984 44.4082Z" fill="white"/>
<path d="M208.728 54.6236C208.745 54.5846 205.678 52.9996 201.874 51.1091C198.069 49.2187 194.961 47.6889 194.961 47.7278C194.961 47.7668 198.011 49.3519 201.816 51.2423C205.62 53.1327 208.709 54.6593 208.728 54.6236Z" fill="#263238"/>
<path d="M210.564 94.0299L210.661 89.2292L194.284 95.3324C194.284 95.3324 191.256 85.4678 191.256 85.0033L187.627 87.277L181.594 84.6785L175.562 81.6902L163.362 103.128L150.562 140.982L180.714 161.159L203.075 137.123L216.674 116.335L224.147 103.173L210.564 94.0299Z" fill="#EF873D"/>
<path d="M192.829 95.2609C192.81 95.1015 192.802 94.9408 192.806 94.7802C192.806 94.4554 192.806 93.9942 192.787 93.4355L192.861 93.481C191.062 94.3627 189.4 95.5041 187.93 96.8688L187.801 96.9922V96.8135C187.801 96.5992 187.775 96.3718 187.762 96.1412C187.629 93.7863 187.519 91.6555 187.438 90.1094C187.406 89.3558 187.38 88.7387 187.36 88.2807C187.36 88.0815 187.36 87.9158 187.36 87.7837C187.339 87.7797 187.32 87.7678 187.307 87.7503C187.294 87.7329 187.287 87.7112 187.289 87.6894C187.291 87.6677 187.302 87.6474 187.318 87.6327C187.334 87.618 187.355 87.6099 187.376 87.6099C187.398 87.6099 187.419 87.618 187.435 87.6327C187.451 87.6474 187.462 87.6677 187.464 87.6894C187.466 87.7112 187.459 87.7329 187.446 87.7503C187.433 87.7678 187.414 87.7797 187.393 87.7837C187.393 87.9137 187.419 88.0793 187.438 88.2775C187.47 88.7354 187.512 89.3526 187.564 90.1029C187.668 91.6458 187.794 93.7765 187.927 96.1314C187.927 96.3621 187.953 96.5894 187.963 96.8038L187.823 96.7453C189.305 95.3712 190.992 94.2379 192.823 93.3868L192.9 93.3543V93.4355C192.9 93.9942 192.878 94.4457 192.871 94.7802C192.869 94.9413 192.855 95.102 192.829 95.2609Z" fill="#263238"/>
<path d="M209.058 94.2605C209 94.3013 208.937 94.3351 208.871 94.3612L208.323 94.6243L206.296 95.5565L199.575 98.5708L196.382 99.987L196.246 100.045L196.272 99.8993C196.535 98.3764 196.659 96.8325 196.641 95.2869L196.716 95.3324L195.203 96.0697L194.799 96.2581C194.708 96.3003 194.659 96.3198 194.656 96.3133C194.696 96.2809 194.739 96.2537 194.786 96.2321L195.178 96.0177L196.67 95.2382L196.741 95.1992V95.2869C196.787 96.8454 196.679 98.4045 196.418 99.9415L196.308 99.8538L199.497 98.4311L206.238 95.4591L208.291 94.5756L208.851 94.345C208.917 94.3084 208.986 94.28 209.058 94.2605Z" fill="#263238"/>
<path d="M177.822 76.7369H59.5744C58.9897 76.7369 58.5156 77.2124 58.5156 77.799V153.032C58.5156 153.619 58.9897 154.094 59.5744 154.094H177.822C178.407 154.094 178.881 153.619 178.881 153.032V77.799C178.881 77.2124 178.407 76.7369 177.822 76.7369Z" fill="#EBEBEB"/>
<path d="M183 161.405H58L58.1311 82.155H183V161.405Z" fill="#FAFAFA"/>
<path d="M105.771 96.2614C107.728 95.0764 109.834 94.1588 112.033 93.5329L113.328 87.3128L123.8 87.1276L125.308 93.2991C127.527 93.8488 129.664 94.692 131.661 95.8066L136.955 92.3279L144.49 99.6264L141.213 105.061C142.395 107.025 143.31 109.138 143.933 111.346L150.13 112.645L150.315 123.149L144.163 124.663C143.613 126.883 142.772 129.02 141.66 131.016L145.131 136.327L137.855 143.885L132.445 140.595C130.487 141.781 128.38 142.698 126.179 143.324L124.884 149.544L114.41 149.726L112.904 143.554C110.691 143.01 108.56 142.172 106.568 141.063L101.274 144.545L93.739 137.246L97.019 131.819C95.8361 129.855 94.9203 127.741 94.2959 125.534L88.0986 124.234L87.9141 113.73L94.0661 112.216C94.6134 109.99 95.454 107.847 96.5657 105.843L93.0979 100.533L100.373 92.9743L105.771 96.2614ZM111.353 110.258C109.81 111.861 108.775 113.888 108.38 116.082C107.985 118.275 108.247 120.537 109.133 122.581C110.02 124.625 111.49 126.36 113.359 127.566C115.228 128.771 117.412 129.394 119.633 129.355C121.855 129.316 124.015 128.617 125.841 127.346C127.667 126.076 129.076 124.29 129.89 122.216C130.705 120.142 130.888 117.873 130.416 115.694C129.945 113.516 128.84 111.527 127.241 109.978C126.179 108.951 124.926 108.143 123.553 107.601C122.179 107.059 120.713 106.794 119.238 106.821C117.762 106.848 116.306 107.166 114.954 107.758C113.601 108.349 112.377 109.202 111.353 110.267V110.258Z" fill="#E0E0E0"/>
<path d="M147.609 100.279C147.752 99.5023 147.997 98.7476 148.337 98.0348L147.042 96.2809L149.386 93.5264L151.329 94.5464C151.977 94.0984 152.681 93.739 153.424 93.4777L153.748 91.3112L157.345 91.0286L157.993 93.1172C158.768 93.2607 159.52 93.5076 160.23 93.8513L161.978 92.552L164.724 94.9069L163.707 96.8558C164.156 97.5064 164.515 98.2143 164.776 98.9606L166.932 99.2854L167.214 102.897L165.132 103.547C164.99 104.325 164.744 105.08 164.4 105.791L165.695 107.549L163.351 110.3L161.409 109.28C160.76 109.729 160.054 110.09 159.31 110.352L158.987 112.518L155.389 112.801L154.742 110.709C153.967 110.567 153.214 110.321 152.504 109.978L150.753 111.277L148.013 108.897L149.03 106.948C148.583 106.297 148.223 105.589 147.962 104.843L145.805 104.518L145.523 100.906L147.605 100.257L147.609 100.279ZM152.488 101.374C152.411 102.186 152.59 103.002 153.001 103.707C153.411 104.412 154.031 104.969 154.773 105.302C155.516 105.634 156.344 105.724 157.141 105.56C157.938 105.395 158.663 104.983 159.214 104.383C159.765 103.783 160.114 103.025 160.213 102.215C160.312 101.405 160.154 100.584 159.763 99.8688C159.373 99.1532 158.768 98.5788 158.034 98.2265C157.3 97.8742 156.475 97.7617 155.674 97.9049C154.838 98.0544 154.074 98.4746 153.499 99.1011C152.923 99.7275 152.568 100.526 152.488 101.374Z" fill="#E0E0E0"/>
<path d="M68.7577 136.538C68.7839 135.605 68.9353 134.68 69.2078 133.787L67.3719 131.991L69.619 128.359L72.0539 129.204C72.7339 128.564 73.4962 128.018 74.3204 127.58L74.301 124.998L78.452 124.023L79.5755 126.346C80.5058 126.372 81.4283 126.523 82.318 126.797L84.128 124.955L87.7479 127.21L86.9061 129.652C87.5443 130.334 88.0887 131.099 88.525 131.926L91.0991 131.906L92.0705 136.067L89.7522 137.188C89.7233 138.121 89.5709 139.046 89.2989 139.939L91.1348 141.751L88.8877 145.386L86.4528 144.542C85.7733 145.182 85.011 145.729 84.1863 146.166L84.2057 148.748L80.0579 149.722L78.9312 147.4C78.0035 147.368 77.0843 147.21 76.1984 146.932L74.3916 148.774L70.7685 146.52L71.6103 144.077C70.9721 143.395 70.4277 142.63 69.9914 141.803L67.4011 141.823L66.4297 137.662L68.7448 136.532L68.7577 136.538ZM74.7575 137.708C74.9655 138.59 75.4295 139.39 76.0908 140.008C76.7521 140.626 77.5811 141.033 78.473 141.179C79.365 141.324 80.28 141.201 81.1023 140.825C81.9247 140.45 82.6175 139.838 83.0934 139.067C83.5692 138.296 83.8067 137.401 83.7759 136.495C83.7451 135.589 83.4473 134.713 82.9202 133.977C82.393 133.24 81.6602 132.677 80.8142 132.358C79.9682 132.04 79.047 131.98 78.167 132.186C77.5803 132.323 77.0263 132.575 76.537 132.928C76.0477 133.28 75.6327 133.726 75.3159 134.24C74.9991 134.754 74.7866 135.326 74.6908 135.923C74.595 136.52 74.6177 137.129 74.7575 137.717V137.708Z" fill="#E0E0E0"/>
<path d="M76.2091 101.842C76.3149 101.255 76.5 100.686 76.7595 100.149L75.7882 98.8241L77.5561 96.7486L79.0131 97.5184C79.5019 97.18 80.0332 96.9081 80.5932 96.7096L80.8328 95.0855L83.5461 94.8712L84.0318 96.4465C84.6158 96.5556 85.183 96.7412 85.7188 96.9987L87.0398 96.0242L89.1056 97.7977L88.3415 99.2594C88.679 99.7491 88.9491 100.282 89.1445 100.844L90.7634 101.082L90.9771 103.804L89.41 104.278C89.3028 104.864 89.1188 105.433 88.8628 105.97L89.8341 107.292L88.0662 109.368L86.6092 108.598C86.1211 108.937 85.5896 109.209 85.0291 109.407L84.7927 111.031L82.0794 111.242L81.5905 109.666C81.0058 109.56 80.4383 109.374 79.9035 109.114L78.5857 110.089L76.5167 108.315L77.2808 106.854C76.9433 106.364 76.6732 105.831 76.4778 105.268L74.8589 105.028L74.6484 102.306L76.2188 101.819L76.2091 101.842ZM79.8841 103.164C79.9299 103.74 80.1448 104.289 80.5016 104.742C80.8584 105.196 81.3411 105.533 81.8888 105.711C82.4365 105.89 83.0247 105.902 83.579 105.745C84.1333 105.588 84.6289 105.27 85.0033 104.832C85.3777 104.393 85.614 103.852 85.6824 103.279C85.7508 102.705 85.6483 102.124 85.3878 101.609C85.1273 101.093 84.7204 100.667 84.2186 100.384C83.7168 100.1 83.1425 99.9724 82.5683 100.016C82.1858 100.045 81.8128 100.15 81.4706 100.324C81.1285 100.498 80.824 100.738 80.5746 101.031C80.3253 101.323 80.1359 101.662 80.0174 102.028C79.8989 102.394 79.8536 102.78 79.8841 103.164Z" fill="#EBEBEB"/>
<path d="M147.747 131.156C147.841 130.652 148 130.163 148.22 129.701L147.375 128.564L148.894 126.781L150.147 127.43C150.566 127.139 151.022 126.905 151.503 126.735L151.707 125.332L154.039 125.15L154.456 126.505C154.959 126.597 155.447 126.757 155.907 126.979L157.04 126.131L158.818 127.655L158.17 128.908C158.461 129.33 158.694 129.789 158.863 130.273L160.262 130.477L160.443 132.816L159.093 133.235C159.001 133.739 158.842 134.228 158.62 134.69L159.465 135.827L157.947 137.607L156.697 136.957C156.276 137.247 155.819 137.481 155.337 137.652L155.133 139.052L152.802 139.234L152.384 137.883C151.882 137.789 151.394 137.63 150.933 137.409L149.8 138.256L148.016 136.733L148.664 135.479C148.373 135.059 148.14 134.601 147.971 134.118L146.575 133.914L146.391 131.575L147.741 131.156H147.747ZM150.904 132.29C150.943 132.787 151.127 133.261 151.435 133.653C151.742 134.045 152.158 134.336 152.631 134.49C153.104 134.644 153.611 134.654 154.09 134.518C154.568 134.382 154.995 134.107 155.317 133.727C155.639 133.347 155.842 132.88 155.899 132.385C155.956 131.89 155.865 131.389 155.638 130.945C155.411 130.502 155.058 130.136 154.623 129.894C154.188 129.652 153.692 129.546 153.197 129.587C152.536 129.642 151.924 129.957 151.494 130.463C151.064 130.97 150.852 131.627 150.904 132.29Z" fill="#EBEBEB"/>
<path d="M116.5 125.17C116.5 123.737 117.64 122.669 119.262 122.669C120.884 122.669 121.998 123.737 121.998 125.17C121.998 126.602 120.884 127.72 119.262 127.72C117.64 127.72 116.5 126.583 116.5 125.17ZM116.526 110.498H121.998L121.078 121.308H117.423L116.526 110.498Z" fill="white"/>
<path d="M116.375 124.492C116.375 123.059 117.515 121.991 119.137 121.991C120.759 121.991 121.873 123.059 121.873 124.492C121.873 125.924 120.759 127.041 119.137 127.041C117.515 127.041 116.375 125.905 116.375 124.492ZM116.401 109.82H121.873L120.953 120.63H117.298L116.401 109.82Z" fill="#BA1A1A"/>
<path d="M119.876 96.95C119.544 96.8377 119.201 96.7657 118.852 96.7356C118.006 96.7173 117.179 96.9952 116.515 97.5216C115.866 98.0644 115.343 98.7428 114.983 99.5095C114.689 100.094 114.549 100.484 114.523 100.468C114.532 100.372 114.555 100.278 114.591 100.188C114.672 99.9395 114.767 99.6955 114.876 99.4575C115.219 98.6529 115.748 97.9422 116.421 97.3852C117.114 96.8337 117.986 96.5604 118.869 96.6187C119.133 96.6385 119.392 96.7022 119.636 96.8071C119.795 96.8818 119.882 96.9402 119.876 96.95Z" fill="white"/>
<path d="M113.141 102.888C113.207 102.607 113.327 102.343 113.494 102.108C113.73 101.708 113.953 101.403 113.995 101.426C113.927 101.702 113.806 101.962 113.639 102.192C113.519 102.454 113.35 102.69 113.141 102.888Z" fill="white"/>
<g opacity="0.3">
<path d="M127.191 104.466L102.101 119.973L98.8438 125.638L128.963 107.542L127.191 104.466Z" fill="white"/>
</g>
<g opacity="0.3">
<path d="M131.139 111.339L97.8828 131.016C98.0162 131.532 98.2629 132.012 98.6049 132.42L131.725 112.359L131.139 111.339Z" fill="white"/>
</g>
<path d="M213.326 148.037C212.062 146.639 210.423 145.636 208.606 145.148C206.789 144.659 204.87 144.706 203.078 145.282L199.98 141.872L199.549 141.388L175.029 114.399C175.718 112.797 175.969 111.04 175.757 109.308C175.545 107.576 174.878 105.933 173.823 104.545C172.768 103.158 171.363 102.078 169.754 101.416C168.145 100.753 166.39 100.533 164.667 100.776L163.469 101.254L167.637 104.057L167.413 108.621L164.043 111.69L159.493 111.466L156.521 108.179L155.294 108.663C154.941 111.414 156.78 114.883 158.784 117.108C160.046 118.504 161.682 119.506 163.496 119.995C165.31 120.484 167.226 120.439 169.016 119.866L193.948 147.306L194.712 148.16L197.075 150.759C196.336 152.487 196.107 154.393 196.417 156.248C196.726 158.104 197.561 159.831 198.821 161.224C200.815 163.433 203.464 164.907 206.219 164.833L207.45 164.352L204.474 161.062L204.697 156.514L208.068 153.445L212.601 153.666L214.343 157.437L215.573 156.953C215.953 155.395 215.947 153.769 215.555 152.214C215.163 150.66 214.398 149.226 213.326 148.037Z" fill="#E0E0E0"/>
<g opacity="0.3">
<path d="M213.326 148.037C212.062 146.639 210.423 145.636 208.606 145.147C206.789 144.659 204.87 144.706 203.078 145.282L199.98 141.872L199.549 141.388L175.029 114.399C175.718 112.797 175.969 111.04 175.757 109.308C175.545 107.576 174.878 105.932 173.823 104.545C172.768 103.158 171.363 102.078 169.754 101.416C168.145 100.753 166.39 100.532 164.667 100.776L163.469 101.254L167.637 104.057L167.413 108.62L164.043 111.69L159.493 111.466L156.521 108.179L155.294 108.663C154.941 111.414 156.78 114.883 158.784 117.108C160.046 118.504 161.682 119.506 163.496 119.995C165.31 120.484 167.226 120.439 169.016 119.866L193.948 147.306L194.712 148.16L197.075 150.758C196.336 152.487 196.107 154.393 196.417 156.248C196.726 158.104 197.561 159.831 198.821 161.224C200.815 163.433 203.464 164.907 206.219 164.833L207.45 164.352L204.474 161.062L204.697 156.514L208.068 153.445L212.601 153.666L214.343 157.437L215.573 156.953C215.953 155.395 215.947 153.769 215.555 152.214C215.163 150.66 214.398 149.226 213.326 148.037Z" fill="black"/>
</g>
<path d="M212.098 148.517C210.834 147.12 209.196 146.117 207.379 145.629C205.562 145.141 203.644 145.189 201.853 145.766L198.751 142.352L198.321 141.868L173.8 114.88C174.49 113.278 174.741 111.521 174.53 109.789C174.318 108.057 173.65 106.414 172.595 105.027C171.54 103.64 170.135 102.56 168.526 101.898C166.917 101.236 165.161 101.016 163.439 101.26L166.411 104.547L166.191 109.095L162.814 112.177L158.281 111.956L155.309 108.669C154.898 110.364 154.944 112.138 155.443 113.808C155.942 115.479 156.875 116.986 158.148 118.175C159.42 119.364 160.984 120.191 162.681 120.572C164.377 120.953 166.144 120.874 167.8 120.343L192.732 147.783L193.5 148.637L195.863 151.236C195.177 152.837 194.928 154.593 195.141 156.322C195.354 158.052 196.023 159.694 197.077 161.079C198.132 162.464 199.535 163.542 201.143 164.204C202.75 164.865 204.504 165.086 206.224 164.842L203.249 161.549L203.469 157.001L206.843 153.932L211.376 154.156L214.348 157.443C214.73 155.884 214.725 154.255 214.332 152.699C213.94 151.143 213.173 149.707 212.098 148.517Z" fill="#E0E0E0"/>
<path d="M212.094 148.517C212.094 148.517 212.237 148.673 212.505 148.988C212.888 149.468 213.227 149.981 213.519 150.521C214.644 152.644 214.955 155.106 214.393 157.443V157.508L214.348 157.459L211.372 154.176L211.398 154.192L206.865 153.974H206.897L203.53 157.047V157.011C203.465 158.427 203.391 159.97 203.313 161.575V161.533L206.263 164.797L206.34 164.881L206.227 164.898C204.585 165.137 202.91 164.955 201.357 164.37C199.804 163.784 198.424 162.814 197.345 161.549C196.172 160.182 195.399 158.516 195.111 156.735C194.806 154.868 195.037 152.953 195.778 151.213V151.291L167.709 120.405L167.797 120.427C166.023 120.99 164.127 121.044 162.325 120.583C159.813 119.932 157.658 118.315 156.325 116.083C154.992 113.85 154.589 111.182 155.201 108.653L155.24 108.497L155.347 108.614L158.319 111.901L158.261 111.875L162.81 112.096L162.749 112.119L166.142 109.046L166.113 109.104C166.187 107.565 166.262 106.048 166.336 104.541L166.356 104.599L163.383 101.312L163.283 101.199L163.432 101.179C165.222 100.925 167.048 101.17 168.71 101.886C170.371 102.602 171.805 103.762 172.854 105.239C173.858 106.649 174.473 108.299 174.638 110.024C174.791 111.686 174.53 113.36 173.877 114.896V114.818L201.901 145.727H201.862C203.196 145.3 204.606 145.164 205.996 145.328C207.387 145.492 208.726 145.953 209.925 146.679C210.534 147.052 211.102 147.487 211.621 147.978C211.945 148.326 212.12 148.504 212.12 148.504L211.608 147.991C211.085 147.503 210.514 147.067 209.905 146.692C208.71 145.977 207.376 145.525 205.993 145.367C204.611 145.21 203.21 145.349 201.885 145.776H201.862V145.756L173.787 114.899L173.754 114.863L173.774 114.821C174.416 113.303 174.672 111.649 174.518 110.007C174.356 108.309 173.749 106.684 172.757 105.298C171.724 103.844 170.313 102.703 168.678 101.999C167.042 101.295 165.246 101.055 163.484 101.306L163.532 101.173L166.466 104.492L166.488 104.515V104.551C166.417 106.053 166.344 107.569 166.268 109.098V109.134L166.242 109.156L162.872 112.226L162.846 112.249H162.81L158.277 112.025H158.242L158.219 111.999L155.243 108.711L155.389 108.676C154.982 110.355 155.028 112.113 155.522 113.768C156.016 115.424 156.94 116.918 158.199 118.097C159.458 119.277 161.007 120.099 162.687 120.48C164.368 120.861 166.119 120.787 167.761 120.265H167.809L167.848 120.304C178.041 131.536 187.599 142.05 195.898 151.203L195.931 151.239L195.911 151.285C195.183 152.996 194.952 154.879 195.247 156.716C195.531 158.426 196.262 160.03 197.366 161.365C198.469 162.7 199.906 163.717 201.529 164.313C203.026 164.856 204.634 165.024 206.211 164.8L206.172 164.901L203.203 161.614L203.187 161.594V161.549C203.264 159.947 203.339 158.405 203.41 157.001V156.979V156.962L206.787 153.899H206.807L211.34 154.127C212.428 155.335 213.428 156.443 214.306 157.42H214.247C214.814 155.098 214.515 152.648 213.409 150.531C213.121 149.991 212.789 149.476 212.415 148.992C212.227 148.683 212.094 148.517 212.094 148.517Z" fill="#263238"/>
<path d="M172.681 116.455C172.658 116.541 172.622 116.624 172.574 116.699C172.461 116.91 172.334 117.114 172.195 117.309C171.277 118.619 169.983 119.618 168.485 120.171C168.261 120.255 168.031 120.325 167.798 120.379C167.715 120.407 167.627 120.421 167.539 120.421C167.539 120.392 167.892 120.294 168.442 120.06C169.887 119.458 171.148 118.485 172.101 117.241C172.467 116.764 172.655 116.442 172.681 116.455Z" fill="#263238"/>
<path d="M200.068 128.177L190.756 123.825L182.431 122.782L185.488 125.381C185.488 125.381 174.725 129.145 174.537 129.993C174.35 130.841 175.386 133.121 177.283 132.699C177.283 132.699 176.218 133.998 176.661 135.431C177.105 136.863 178.086 137.133 179.899 136.798C179.899 136.798 178.669 138.646 179.634 139.588C180.599 140.53 182.101 140.293 182.101 140.293C182.101 140.293 182.121 142.544 183.306 142.739C184.491 142.934 187.793 142.703 189.027 142.323L195.292 140.374L199.353 139.462L200.068 128.177Z" fill="#EB996E"/>
<path d="M182.922 131.036C182.957 131.159 181.717 131.627 180.156 132.085C178.596 132.543 177.294 132.809 177.259 132.686C177.223 132.562 178.463 132.091 180.024 131.637C181.584 131.182 182.886 130.912 182.922 131.036Z" fill="#FF9A6C"/>
<path d="M184.507 135.476C184.543 135.599 183.562 136.005 182.312 136.386C181.062 136.766 180.017 136.967 179.978 136.843C179.939 136.72 180.926 136.314 182.176 135.937C183.426 135.56 184.472 135.356 184.507 135.476Z" fill="#FF9A6C"/>
<path d="M185.93 139.169C185.953 139.309 185.059 139.494 184.01 139.76C182.961 140.027 182.142 140.41 182.067 140.277C181.993 140.144 182.764 139.608 183.881 139.302C184.998 138.997 185.914 139.056 185.93 139.169Z" fill="#FF9A6C"/>
<path d="M187.106 125.007C187.141 125.134 185.921 125.579 184.409 126.102C182.896 126.625 181.663 127.024 181.611 126.904C181.559 126.784 182.731 126.186 184.26 125.66C185.788 125.134 187.073 124.884 187.106 125.007Z" fill="#FF9A6C"/>
<path d="M198.309 127.359L218.478 134.687L217.299 148.573L195.094 139.591L198.309 127.359Z" fill="#EB996E"/>
<path d="M224.186 103.06C224.186 103.06 226.815 105.785 228.346 110.686C229.878 115.588 237.089 136.366 236.914 142.976C236.723 149.813 232.135 154.692 222.052 151.99C216.036 150.365 208.867 147.767 208.867 147.767L213.964 130.961L217.949 131.991L211.513 119.869L224.186 103.06Z" fill="#EF873D"/>
<path d="M219.569 111.001C219.608 111.031 216.817 115.016 213.339 119.905C209.862 124.793 207.016 128.743 206.977 128.71C206.938 128.678 209.729 124.696 213.207 119.807C216.684 114.919 219.533 110.975 219.569 111.001Z" fill="#263238"/>
<path d="M227.289 134.265C227.289 134.265 227.115 134.18 226.8 134.034C226.353 133.834 225.891 133.67 225.418 133.543C224.819 133.378 224.094 133.219 223.287 133.046L220.671 132.468C218.816 132.053 217.135 131.666 215.924 131.377L214.49 131.026C214.312 130.992 214.138 130.942 213.969 130.877C214.149 130.892 214.328 130.921 214.503 130.964L215.95 131.26C217.171 131.52 218.864 131.887 220.71 132.303L223.323 132.897C224.126 133.079 224.851 133.248 225.45 133.43C225.926 133.568 226.388 133.751 226.83 133.975C226.949 134.036 227.065 134.105 227.176 134.18C227.217 134.203 227.255 134.232 227.289 134.265Z" fill="#263238"/>
<g opacity="0.3">
<path d="M232.445 135.005C232.381 134.606 232.221 134.229 231.98 133.905C231.738 133.582 231.423 133.322 231.059 133.147C230.33 132.801 229.545 132.59 228.741 132.524C225.118 132.023 221.452 131.874 217.797 131.747L218.121 131.893C222.637 132.731 227.058 134.024 231.315 135.752C231.548 135.882 231.822 135.914 232.079 135.843C232.218 135.757 232.327 135.631 232.393 135.482C232.458 135.332 232.476 135.166 232.445 135.005Z" fill="black"/>
</g>
<g opacity="0.3">
<path d="M149.35 70.5751C145.951 69.9937 141.884 70.9844 138.484 70.403C137.979 70.3185 137.422 70.2373 136.975 70.4972C136.438 70.8058 136.253 71.4944 136.227 72.1212C136.214 72.9814 136.38 73.8349 136.714 74.6269C137.049 75.419 137.545 76.1321 138.17 76.7206C139.443 77.8882 141.033 78.6502 142.739 78.9098C144.095 79.1405 145.556 79.095 146.763 78.4389C148.887 77.2825 149.907 72.917 149.35 70.5751Z" fill="#EB996E"/>
</g>
<path d="M136.162 76.8148C136.162 76.8148 134.1 74.3885 133.802 73.2711C133.605 72.5305 133.702 70.455 133.802 69.1395C133.825 68.6962 133.976 68.2693 134.238 67.9114C134.5 67.5536 134.861 67.2804 135.275 67.1256C135.397 67.0652 135.532 67.039 135.667 67.0498C135.803 67.0607 135.932 67.1082 136.043 67.1874C136.323 66.8063 136.637 66.4518 136.982 66.1285C137.791 65.2969 138.176 64.735 139.957 65.2515C139.957 65.2515 141.269 63.8645 142.023 63.9685C142.529 64.0436 143.03 64.1521 143.522 64.2933C143.522 64.2933 146.394 64.1698 146.983 65.0858C147.318 65.4993 147.77 65.8016 148.279 65.9531C148.728 66.1121 149.141 66.3599 149.493 66.6818C149.845 67.0037 150.129 67.3932 150.328 67.8272C150.663 68.6244 150.857 69.474 150.901 70.338L147.987 70.455C147.987 70.455 148.194 77.1818 147.459 77.7243C146.724 78.2667 146.446 78.0718 146.446 78.0718C146.446 78.0718 145.886 79.6504 143.7 78.4844C143.7 78.4844 141.887 79.0333 141.11 78.283C140.333 77.5326 137.49 70.325 137.49 70.325L137.571 73.898C137.571 73.898 139.07 76.2139 138.335 76.7563C137.6 77.2988 136.162 76.8148 136.162 76.8148Z" fill="#EB996E"/>
<path d="M139.797 67.6973C139.866 67.8322 139.921 67.9737 139.962 68.1196L140.357 69.2889C140.681 70.2634 141.124 71.6536 141.597 73.1704C142.07 74.6873 142.465 76.0937 142.912 77.0162C143.084 77.3878 143.283 77.7461 143.507 78.0881C143.666 78.3317 143.767 78.4551 143.757 78.4649C143.747 78.4746 143.721 78.4421 143.669 78.3837C143.593 78.3022 143.522 78.2165 143.456 78.1271C143.207 77.7955 142.99 77.4409 142.808 77.0682C142.326 76.1295 141.921 74.736 141.442 73.2224C140.963 71.7088 140.545 70.3251 140.247 69.3246C140.111 68.8472 139.994 68.4509 139.904 68.1391C139.855 67.9954 139.819 67.8476 139.797 67.6973Z" fill="#FF9A6C"/>
<path d="M143.383 66.8658C143.448 67.0052 143.498 67.1511 143.532 67.301L143.878 68.5061C144.16 69.5228 144.526 70.9324 144.953 72.4915C145.381 74.0507 145.727 75.4668 145.98 76.4932C146.099 76.9805 146.197 77.3897 146.274 77.708C146.318 77.8563 146.346 78.0087 146.358 78.1628C146.297 78.022 146.247 77.8764 146.209 77.7275C146.119 77.4027 146.005 77.0064 145.866 76.5225C145.581 75.5058 145.199 74.0961 144.791 72.537C144.383 70.9779 144.017 69.5617 143.762 68.5353C143.645 68.0449 143.545 67.6388 143.47 67.3173C143.427 67.1699 143.398 67.0187 143.383 66.8658Z" fill="#FF9A6C"/>
</svg>
