<svg width="125" height="127" viewBox="0 0 125 127" fill="none" xmlns="http://www.w3.org/2000/svg">
<g filter="url(#filter0_d_212_156)">
<path fill-rule="evenodd" clip-rule="evenodd" d="M72.958 19.3934C75.1751 21.6829 76.346 24.5467 76.3598 27.1299C77.0171 29.6039 76.4591 33.6319 75.5594 37.7475L75.422 38.3653L75.2801 38.9833C75.2561 39.0863 75.232 39.1892 75.2077 39.2921L75.0603 39.9084L74.9101 40.5221L74.7577 41.1322L74.5265 42.0382L74.2167 43.2232L73.9861 44.0899L73.1252 47.2893L72.9364 48.0037L72.7626 48.6766L72.6561 49.1003C72.6391 49.1692 72.6223 49.2372 72.606 49.3042L72.5122 49.6956C72.4825 49.8224 72.4543 49.9453 72.4278 50.0642L72.3533 50.4087C72.2146 51.0731 72.1396 51.587 72.1516 51.9109C75.6297 51.0066 78.5334 50.4484 80.9699 50.1209L81.524 50.0493L82.0617 49.9857C82.768 49.9059 83.4316 49.8463 84.0556 49.8035L84.5163 49.7745C84.5918 49.7702 84.6668 49.7661 84.7412 49.7623L85.1801 49.7421C85.2521 49.7392 85.3235 49.7366 85.3943 49.7341L85.8123 49.7221C85.9493 49.719 86.084 49.7167 86.2166 49.7152L86.6075 49.7129L86.9853 49.7151C87.1091 49.7165 87.2308 49.7186 87.3504 49.7213L87.703 49.7314C87.7608 49.7334 87.818 49.7355 87.8747 49.7377L88.2091 49.7528C88.2639 49.7556 88.3181 49.7585 88.3719 49.7615L88.6888 49.781L88.9944 49.803L89.2889 49.8272L89.7107 49.8669L89.979 49.8952L90.3628 49.9397L90.8412 50.0009L91.2837 50.0621L92.1602 50.1867L92.4193 50.2204L92.6634 50.2484L92.8184 50.2634L92.8937 50.2697C98.7319 50.7274 103.504 55.5403 103.504 61.5915C103.504 63.1822 103.176 64.6937 102.585 66.0577C104.045 67.9344 104.918 70.3185 104.918 72.9133C104.918 75.8457 103.803 78.509 101.986 80.4754C102.509 81.8677 102.796 83.382 102.796 84.9656C102.796 88.8169 101.099 92.2587 98.4336 94.5364C98.4728 94.8223 98.4925 95.1115 98.5075 95.4035L98.5352 95.9911C98.5402 96.0896 98.5458 96.1884 98.5524 96.2874C100.105 119.485 48.6754 109.424 40.464 105.981C40.0356 105.802 39.6267 105.374 39.2428 104.738C38.1823 105.428 36.9651 105.892 35.6499 106.065L21.8026 107.877C19.7703 108.143 17.8865 106.736 17.495 104.659C16.3606 98.6449 15.7935 92.3119 15.7935 85.6605C15.7935 78.8005 16.3968 71.9405 17.6034 65.0805C17.9547 63.0862 19.6895 61.6744 21.6494 61.7882L36.7042 62.664C37.5347 62.7123 38.325 62.9072 39.0522 63.2235C39.9664 61.0831 41.0738 59.1192 42.316 57.6747L44.2888 55.3795L44.6867 54.9134L45.2589 54.2382L45.625 53.8021L45.9796 53.3757L46.3234 52.9575L46.657 52.5463L46.9811 52.1406C47.0344 52.0734 47.0873 52.0064 47.1399 51.9395L47.4511 51.5396C47.5023 51.4732 47.5532 51.4069 47.6037 51.3406L47.9036 50.9435C49.7806 48.4306 51.253 45.9263 53.1041 41.8801L53.3996 41.2282C53.5989 40.7847 53.8028 40.3233 54.0123 39.842L54.3308 39.1051L54.6584 38.3371L54.9957 37.5366L55.3434 36.7025L55.7022 35.8332L56.0727 34.9274L56.4557 33.9837L56.8519 33.0009L57.4723 31.4502L57.9043 30.3635L58.5817 28.6505L59.0539 27.4514C59.1271 27.2651 59.1463 27.0108 59.1341 26.7013L59.1264 26.5546L59.1148 26.4003L59.091 26.1554L59.0387 25.7133L58.9522 25.031L58.9031 24.6119L58.8694 24.2854L58.8495 24.0625C58.8464 24.025 58.8433 23.9874 58.8404 23.9495L58.8245 23.7209C58.8221 23.6825 58.8199 23.6439 58.8178 23.6052L58.807 23.3715C58.7436 21.685 58.9927 19.764 60.3816 18.0752C63.2886 14.5406 69.1598 15.4711 72.958 19.3934Z" stroke="white" stroke-width="6" shape-rendering="crispEdges"/>
</g>
<path d="M39.0436 107.156L39.1078 62.9028" stroke="white" stroke-width="5" stroke-linejoin="round"/>
<defs>
<filter id="filter0_d_212_156" x="8.79346" y="12.8761" width="103.125" height="109.249" filterUnits="userSpaceOnUse" color-interpolation-filters="sRGB">
<feFlood flood-opacity="0" result="BackgroundImageFix"/>
<feColorMatrix in="SourceAlpha" type="matrix" values="0 0 0 0 0 0 0 0 0 0 0 0 0 0 0 0 0 0 127 0" result="hardAlpha"/>
<feOffset dy="4"/>
<feGaussianBlur stdDeviation="2"/>
<feComposite in2="hardAlpha" operator="out"/>
<feColorMatrix type="matrix" values="0 0 0 0 0.952941 0 0 0 0 0.458824 0 0 0 0 0.109804 0 0 0 1 0"/>
<feBlend mode="normal" in2="BackgroundImageFix" result="effect1_dropShadow_212_156"/>
<feBlend mode="normal" in="SourceGraphic" in2="effect1_dropShadow_212_156" result="shape"/>
</filter>
</defs>
</svg>
