<svg width="84" height="64" viewBox="0 0 84 64" fill="none" xmlns="http://www.w3.org/2000/svg">
<g clip-path="url(#clip0_508_282)">
<path d="M84 53.8321C82.6264 55.9841 80.6242 57.4479 78.5869 58.8243C72.8504 62.7099 66.5391 64.4084 59.6532 63.9197C56.5944 63.7144 53.5874 63.0098 50.7461 61.8327C62.2119 61.3417 71.8047 56.7956 79.5333 48.0127C81.1456 49.4093 82.9989 50.492 84 52.4961V53.8321Z" fill="#FEF3E7"/>
<path d="M29.2705 28.5168C29.4677 17.4272 33.0121 8.47171 40.0616 0.991227C41.3103 -0.333606 42.7342 -0.326881 43.9894 0.991227C49.6675 6.99669 53.2317 14.1006 54.3139 22.3925C55.9349 34.7733 52.4036 45.4975 44.0639 54.5853C42.7385 56.029 41.3103 55.9998 39.963 54.5719C34.5615 48.923 31.0075 41.6971 29.7919 33.8924C29.4567 31.8883 29.391 29.8394 29.2705 28.5168Z" fill="#FEF3E7"/>
<path d="M53.5586 50.4382C54.597 48.1786 55.7492 45.9392 56.6737 43.6011C59.0834 37.4387 59.9596 31.0208 59.458 24.3966C59.1555 20.3882 58.2992 16.444 56.9146 12.6816C56.6956 12.1077 56.7766 11.8141 57.3221 11.5876C59.8698 10.5385 62.3869 9.39977 64.9652 8.4493C66.617 7.83508 67.9796 8.67346 68.3695 10.4422C71.4992 24.5274 68.0445 36.6511 58.0056 46.8134C56.8226 48.0038 55.4425 48.9856 54.1457 50.0571C53.9572 50.1955 53.7612 50.3227 53.5586 50.4382Z" fill="#FEF3E7"/>
<path d="M30.4026 50.6176C28.6019 49.0148 26.6983 47.5151 25.0159 45.789C19.3377 39.9606 16.0124 32.9016 14.8491 24.78C14.1862 20.0092 14.4588 15.1511 15.6509 10.4892C16.089 8.68245 17.4034 7.82389 19.1012 8.44708C21.6072 9.36841 24.0476 10.4646 26.5274 11.4711C27.235 11.7558 27.3533 12.1279 27.0773 12.8609C24.9808 18.4427 24.1834 24.2487 24.4967 30.1959C24.8323 36.999 26.7625 43.6197 30.1244 49.499L30.6173 50.3665L30.4026 50.6176Z" fill="#FEF3E7"/>
<path d="M10.182 26.7998C12.6465 39.8016 19.4221 49.647 30.4914 56.5357C30.038 56.4819 29.5823 56.4326 29.1289 56.3698C28.6754 56.3071 28.2088 56.2577 27.7553 56.1614C16.0369 53.6596 7.69492 46.8367 2.72948 35.6926C2.07229 34.2041 1.63416 32.608 1.1566 31.0388C1.05807 30.739 1.01887 30.422 1.04129 30.1065C1.06371 29.791 1.1473 29.4832 1.28718 29.2011C1.42706 28.919 1.62044 28.6682 1.85603 28.4634C2.09162 28.2585 2.36472 28.1038 2.65938 28.0081C5.09896 27.2455 7.63144 26.8387 10.182 26.7998Z" fill="#FEF3E7"/>
<path d="M53.5566 56.5668C64.5931 49.6826 71.3753 39.8327 73.8836 26.683C75.601 26.9072 77.3185 27.1313 79.0316 27.4003C79.7298 27.518 80.4199 27.682 81.0974 27.8912C82.5717 28.3396 83.3099 29.6442 82.8652 31.1394C78.8147 44.7397 69.9536 53.0295 56.4308 56.1409C55.4888 56.3584 54.5161 56.4301 53.5566 56.5668Z" fill="#FEF3E7"/>
<path d="M4.47522 47.972C12.2366 56.793 21.8251 61.3324 33.3347 61.9579C31.9765 62.3726 30.638 62.8904 29.2557 63.1863C18.5654 65.4773 9.16537 62.8994 1.13669 55.2665C-0.370474 53.834 -0.383617 52.415 1.12573 50.9669C2.19038 49.9358 3.33609 48.983 4.47522 47.972Z" fill="#FEF3E7"/>
</g>
<defs>
<clipPath id="clip0_508_282">
<rect width="84" height="64" fill="white"/>
</clipPath>
</defs>
</svg>
