<svg width="24" height="24" viewBox="0 0 24 24" fill="none" xmlns="http://www.w3.org/2000/svg">
<path d="M5.69426 12L2.29926 3.27004C2.06326 2.66304 2.65526 2.08204 3.24126 2.28904L3.33426 2.32804L21.3343 11.328C21.4503 11.386 21.5494 11.4731 21.6217 11.5808C21.6941 11.6885 21.7373 11.8131 21.747 11.9425C21.7568 12.0719 21.7329 12.2016 21.6775 12.3189C21.6222 12.4363 21.5373 12.5373 21.4313 12.612L21.3343 12.67L3.33426 21.67C2.75126 21.961 2.11726 21.425 2.26926 20.822L2.29926 20.727L5.69426 12L2.29926 3.27004L5.69426 12ZM4.40226 4.54004L7.01226 11.25H13.6393C13.8205 11.25 13.9956 11.3157 14.1322 11.4348C14.2688 11.5539 14.3576 11.7185 14.3823 11.898L14.3893 12C14.3892 12.1814 14.3234 12.3567 14.2041 12.4933C14.0848 12.6299 13.92 12.7186 13.7403 12.743L13.6393 12.75H7.01026L4.40126 19.46L19.3223 12L4.40126 4.54004H4.40226Z" fill="#06152B"/>
</svg>
