<svg width="88" height="104" viewBox="0 0 88 104" fill="none" xmlns="http://www.w3.org/2000/svg">
<path d="M87.2054 8.15612C85.7741 4.88555 82.7329 2.85387 79.2692 2.85387H70.1529C69.8669 1.23119 68.4991 0 66.8516 0C64.9969 0 63.493 1.5593 63.493 3.48242V9.19052C63.493 11.1136 64.9969 12.6729 66.8516 12.6729C68.4994 12.6729 69.8672 11.4418 70.1529 9.81872H79.2692C80.4313 9.81872 80.9288 10.6689 81.0889 11.0345C81.2486 11.4001 81.538 12.348 80.7731 13.2549C80.7731 13.2549 70.9993 26.4479 66.802 29.8102C64.7716 31.4367 57.6216 34.5697 57.6216 34.5697C52.0254 37.4712 45.3435 37.4712 39.7467 34.5697C39.7467 34.5697 32.5977 31.4374 30.5673 29.8109C26.3697 26.4486 16.5959 13.2553 16.5959 13.2553C15.8306 12.3483 16.1204 11.4004 16.2801 11.0349C16.4402 10.6693 16.9377 9.81907 18.0998 9.81907H27.216C27.5018 11.4418 28.8696 12.6733 30.5173 12.6733C32.3721 12.6733 33.876 11.114 33.876 9.19087V3.48242C33.876 1.5593 32.3721 0 30.5173 0C28.8699 0 27.5018 1.23119 27.216 2.85387H18.0998C14.6361 2.85387 11.5948 4.8859 10.1635 8.15612C8.73226 11.427 9.25979 15.1378 11.5411 17.8407L45.326 57.8748V81.6817C45.326 90.1477 38.6829 97.0355 30.5173 97.0355C22.3521 97.0355 15.709 90.1477 15.709 81.6817V70.4087C20.8914 68.8876 24.7007 63.9425 24.7007 58.0887C24.7007 51.0279 19.1602 45.2834 12.3503 45.2834C5.54041 45.2834 0 51.0279 0 58.0887C0 63.9425 3.80956 68.8879 8.99164 70.4087V81.6817C8.99164 93.988 18.6479 104 30.517 104C42.3864 104 52.0427 93.988 52.0427 81.6817V57.8748L85.8278 17.8407C88.1088 15.1378 88.6367 11.427 87.2054 8.15612ZM6.71705 58.0887C6.71705 54.8682 9.24426 52.2479 12.3503 52.2479C15.4564 52.2479 17.9836 54.8682 17.9836 58.0887C17.9836 61.3092 15.4564 63.9295 12.3503 63.9295C9.24426 63.9295 6.71705 61.3092 6.71705 58.0887ZM48.6843 43.7059C51.1322 43.7059 53.5803 43.3575 55.9515 42.667L48.6843 51.2783L41.4171 42.667C43.7883 43.3578 46.2358 43.7059 48.6843 43.7059Z" fill="#EF873D" fill-opacity="0.04"/>
</svg>
