<svg width="24" height="24" viewBox="0 0 24 24" fill="none" xmlns="http://www.w3.org/2000/svg">
<path d="M17.8011 2.1L7.87107 4.59C6.42107 4.95 4.95107 6.42 4.59107 7.87L2.10107 17.8C1.35107 20.8 3.19107 22.65 6.20107 21.9L16.1311 19.42C17.5711 19.06 19.0511 17.58 19.4111 16.14L21.9011 6.2C22.6511 3.2 20.8011 1.35 17.8011 2.1Z" stroke="#06152B" stroke-width="1.5" stroke-linecap="round" stroke-linejoin="round"/>
<path d="M12 15.5C13.933 15.5 15.5 13.933 15.5 12C15.5 10.067 13.933 8.5 12 8.5C10.067 8.5 8.5 10.067 8.5 12C8.5 13.933 10.067 15.5 12 15.5Z" stroke="#06152B" stroke-width="1.5" stroke-linecap="round" stroke-linejoin="round"/>
</svg>
