<svg width="24" height="24" viewBox="0 0 24 24" fill="none" xmlns="http://www.w3.org/2000/svg">
<g clip-path="url(#clip0_1294_6276)">
<path d="M10.7462 0.306427C7.74833 0.625628 4.91346 2.14627 2.95457 4.49323C0.964495 6.88387 -0.0305452 10.1383 0.301135 13.1798C0.682975 16.7347 2.54153 19.8136 5.49545 21.7975C6.20273 22.2731 7.49801 22.9053 8.31785 23.1743C11.2655 24.1319 14.4009 23.9066 17.1609 22.5547C23.0123 19.6759 25.4157 12.6667 22.5494 6.84019C21.8923 5.51347 21.1915 4.54963 20.1211 3.5169C17.6491 1.13251 14.1758 -0.0626926 10.7462 0.306427ZM13.3934 1.3329C17.7367 1.90243 21.3477 5.09419 22.4179 9.31843C23.5507 13.7932 21.7982 18.3741 17.9558 20.9589C13.7191 23.8127 8.01761 23.2432 4.39409 19.607C0.175855 15.3703 0.175855 8.61739 4.39409 4.39939C5.82089 2.97259 7.51697 2.01499 9.45089 1.55179C10.7587 1.23259 12.0919 1.16371 13.3934 1.3329Z" fill="#06152B"/>
<path d="M11.0845 6.77755C10.2273 6.96523 9.44485 7.52851 9.06301 8.24203C8.86909 8.60515 8.57485 9.60019 8.63749 9.66883C8.65621 9.68755 8.95669 9.73147 9.30085 9.77515L9.92677 9.85027L10.0269 9.43723C10.2145 8.68627 10.5462 8.23555 11.1409 7.92259C11.3663 7.79755 11.4976 7.77859 12.0297 7.77859C12.5867 7.77859 12.6868 7.79731 12.9748 7.94755C13.6132 8.28547 14.0637 8.98027 14.0637 9.62467C14.0637 10.1879 13.9134 10.4071 12.8747 11.4395C12.3301 11.9716 11.817 12.5347 11.7294 12.6911C11.4978 13.0917 11.3728 13.6425 11.3728 14.237V14.7563H11.9673C12.399 14.7563 12.5617 14.7376 12.5617 14.675C12.5617 14.2931 12.7057 13.5235 12.8121 13.3043C12.8934 13.1416 13.3314 12.6597 13.9072 12.0964C14.7333 11.2828 14.8897 11.0951 15.0901 10.6883C15.8975 9.04243 14.8773 7.18363 12.9561 6.77683C12.4302 6.66499 11.5979 6.66499 11.0845 6.77755Z" fill="#06152B"/>
<path d="M11.2461 16.6031V17.3229H11.9971H12.748V16.6031V15.8834H11.9971H11.2461V16.6031Z" fill="#06152B"/>
</g>
<defs>
<clipPath id="clip0_1294_6276">
<rect width="24" height="24" fill="white"/>
</clipPath>
</defs>
</svg>
