<svg width="24" height="24" viewBox="0 0 24 24" fill="none" xmlns="http://www.w3.org/2000/svg">
<g clip-path="url(#clip0_857_822)">
<path d="M1.09268 23.7432C0.857481 23.7432 0.641481 23.6568 0.485481 23.5008C0.327081 23.3424 0.238281 23.124 0.238281 22.884V3.39357C0.238281 2.55357 0.555081 1.76877 1.13108 1.18077C1.71428 0.585575 2.50148 0.256775 3.34868 0.256775H20.8111C21.5815 0.256775 22.3423 0.597575 22.8991 1.19517C23.4535 1.79037 23.7583 2.57278 23.7583 3.39598V22.8888C23.7583 23.3784 23.3911 23.7456 22.9039 23.7456C22.5583 23.7456 22.1431 23.5944 21.0319 22.8288C20.3191 22.3344 19.4311 21.6648 18.4927 20.9544C17.2399 20.0064 15.8191 18.9312 14.5975 18.1224C12.8527 16.968 12.2383 16.8432 12.0535 16.8432C11.8711 16.8432 11.2543 16.968 9.49748 18.1176C8.27108 18.9192 6.83828 19.992 5.57348 20.9376C4.61828 21.6528 3.71588 22.3272 2.98868 22.824C1.86788 23.5896 1.43108 23.7432 1.09268 23.7432ZM3.34868 1.67037C2.39828 1.67037 1.65428 2.42877 1.65428 3.39357V22.008C1.82708 21.9 2.04548 21.756 2.32148 21.5664C3.00068 21.096 3.83828 20.4672 4.72628 19.8048C8.26388 17.16 10.6831 15.4248 12.0559 15.4248C12.7711 15.4248 13.7959 15.8928 15.3799 16.9392C16.6375 17.772 18.0775 18.8616 19.3471 19.8216C20.2183 20.4792 21.0391 21.1032 21.7063 21.5688C21.9679 21.7512 22.1767 21.8904 22.3423 21.996V3.39357C22.3423 2.45997 21.6415 1.67037 20.8111 1.67037H3.34868Z" fill="#06152B"/>
</g>
<defs>
<clipPath id="clip0_857_822">
<rect width="24" height="24" fill="white"/>
</clipPath>
</defs>
</svg>
